<?xml version="1.0" standalone="no"?>
<!DOCTYPE svg PUBLIC "-//W3C//DTD SVG 20010904//EN"
 "http://www.w3.org/TR/2001/REC-SVG-20010904/DTD/svg10.dtd">
<svg version="1.0" xmlns="http://www.w3.org/2000/svg"
 width="700.000000pt" height="700.000000pt" viewBox="0 0 700.000000 700.000000"
 preserveAspectRatio="xMidYMid meet">
<metadata>
Created by potrace 1.11, written by Peter Selinger 2001-2013
</metadata>
<g transform="translate(0.000000,700.000000) scale(0.100000,-0.100000)"
fill="#000000" stroke="none">
<path d="M4905 6313 c-60 -8 -83 -23 -104 -71 -11 -26 -72 -146 -136 -267
-154 -294 -304 -601 -345 -703 -18 -45 -34 -81 -36 -80 -5 6 25 141 50 224 13
44 51 156 84 249 33 94 83 233 110 310 27 77 57 164 66 194 l16 53 -53 -6
c-360 -44 -1116 -357 -1401 -581 -88 -68 -113 -108 -129 -205 -3 -14 -10 -45
-17 -70 -7 -25 -14 -56 -16 -70 -3 -14 -7 -33 -10 -42 -3 -9 -7 -27 -9 -40 -3
-13 -7 -34 -10 -48 -3 -14 -7 -36 -10 -50 -3 -14 -12 -59 -20 -100 -27 -134
-53 -279 -61 -344 -2 -23 -7 -59 -10 -81 -19 -131 -28 -258 -27 -395 l0 -125
-28 86 c-26 79 -43 161 -55 264 -5 44 -5 317 1 405 14 246 19 388 16 492 l-1
47 -127 -66 c-158 -81 -220 -121 -301 -197 -103 -97 -190 -223 -250 -366 -26
-60 -78 -220 -86 -260 -2 -14 -9 -46 -15 -72 -15 -64 -38 -225 -48 -328 -9
-100 -10 -547 -1 -637 3 -35 2 -63 -1 -63 -10 0 -132 256 -165 345 -62 168
-117 371 -131 483 -4 39 -13 37 -57 -13 -285 -321 -503 -711 -614 -1099 -19
-67 -44 -161 -55 -211 -26 -112 -26 -114 -33 -161 -20 -124 -26 -164 -31 -209
-3 -27 -8 -63 -10 -80 -5 -31 -14 -159 -20 -279 -2 -37 1 -64 5 -60 4 5 45 54
91 109 46 55 88 105 93 111 6 6 40 44 75 85 36 41 164 173 286 294 196 196
264 260 435 410 25 22 47 42 50 45 18 19 177 153 310 260 58 47 107 87 110 90
17 17 316 242 521 392 400 292 959 647 1641 1044 139 80 279 161 311 180 32
19 60 34 63 34 2 0 21 10 42 23 20 13 69 41 107 62 39 21 134 73 212 116 77
43 203 110 280 150 76 40 162 85 192 101 30 15 57 28 61 28 8 0 14 -37 25
-161 l6 -66 -68 -43 c-246 -155 -956 -628 -1268 -843 -317 -219 -260 -179
-717 -507 -272 -195 -698 -517 -728 -550 -3 -3 -30 -25 -60 -50 -66 -54 -364
-314 -440 -384 -100 -93 -404 -400 -482 -486 -98 -110 -142 -162 -261 -310
-135 -167 -261 -359 -382 -585 -83 -153 -94 -175 -87 -177 71 -16 350 -11 462
9 19 3 44 7 55 8 46 7 166 38 255 66 366 118 726 351 1048 679 73 74 192 210
192 219 0 3 -26 14 -58 24 -163 51 -363 179 -498 319 -67 69 -192 228 -179
228 3 0 32 -13 64 -29 124 -63 395 -182 522 -230 282 -105 408 -122 634 -85
107 18 244 78 334 147 65 50 134 131 186 218 55 91 157 238 195 281 8 9 35 41
60 70 59 71 185 183 260 232 l61 40 -33 16 c-233 112 -437 186 -562 205 -21 3
-48 7 -60 10 -36 7 -106 16 -251 30 -108 11 -161 24 -104 26 13 0 33 2 44 5
91 18 281 23 415 10 83 -7 105 -10 200 -25 106 -17 132 -22 200 -37 36 -9 72
-17 80 -19 8 -2 49 -12 91 -23 l76 -19 79 77 c76 73 169 159 228 208 63 53
194 158 217 175 13 9 65 47 115 85 49 37 128 93 175 125 46 32 131 91 189 131
58 39 182 123 275 186 94 63 172 117 175 120 3 3 24 18 48 34 l42 29 -42 19
c-165 75 -500 190 -618 213 -11 2 -28 8 -37 14 -20 11 4 13 162 14 77 0 245
-12 255 -18 3 -2 26 -6 50 -10 61 -8 216 -50 322 -86 48 -17 93 -27 99 -23 17
10 113 215 154 329 49 135 121 410 141 535 3 19 9 54 13 77 8 40 7 41 -23 47
-17 3 -40 8 -51 10 -11 2 -49 7 -85 11 -36 4 -67 8 -70 10 -3 2 -30 6 -60 9
-30 3 -65 8 -77 10 -12 3 -50 7 -84 11 -35 4 -66 8 -69 10 -3 1 -36 6 -75 10
-38 4 -72 8 -75 10 -3 1 -37 6 -75 9 -39 4 -80 8 -91 10 -11 2 -47 7 -79 10
-32 4 -72 9 -89 11 -17 3 -53 7 -81 10 -27 2 -66 6 -85 9 -19 2 -69 7 -110 11
-41 3 -86 8 -100 10 -14 2 -68 7 -120 10 -52 4 -108 9 -125 11 -42 6 -413 12
-450 7z"/>
<path d="M5580 5459 c-41 -23 -102 -57 -135 -76 -33 -20 -80 -47 -105 -61 -25
-13 -70 -39 -100 -57 -30 -18 -71 -42 -90 -53 -169 -95 -505 -296 -508 -304
-2 -5 -8 -8 -13 -8 -5 0 -28 -12 -52 -27 -59 -37 -94 -59 -237 -148 -419 -259
-1188 -779 -1395 -942 -16 -13 -35 -27 -40 -31 -155 -112 -611 -472 -720 -567
-16 -15 -55 -48 -85 -73 -313 -268 -659 -599 -920 -882 -58 -62 -112 -120
-120 -129 -16 -17 -205 -241 -275 -326 -221 -268 -506 -685 -689 -1007 -70
-124 -77 -141 -48 -116 29 26 183 96 246 112 35 9 91 14 135 12 95 -3 169 -37
241 -109 28 -28 51 -48 53 -46 1 2 11 38 21 79 78 323 264 780 436 1075 29 50
58 99 64 110 43 75 238 349 266 375 3 3 30 34 60 70 177 209 513 551 706 717
59 51 160 140 175 155 10 9 100 85 201 168 101 83 192 159 203 169 11 9 52 41
90 71 97 76 94 74 108 86 19 16 331 243 441 320 238 167 314 218 706 481 229
153 423 283 431 288 9 6 34 22 55 36 44 29 253 166 389 254 50 32 194 123 320
201 127 79 238 149 248 156 18 13 34 68 20 68 -5 -1 -42 -19 -83 -41z"/>
</g>
</svg>
