<?xml version="1.0" encoding="UTF-8" standalone="no"?><!DOCTYPE svg PUBLIC "-//W3C//DTD SVG 1.1//EN" "http://www.w3.org/Graphics/SVG/1.1/DTD/svg11.dtd"><svg width="100%" height="100%" viewBox="0 0 5092 1971" version="1.1" xmlns="http://www.w3.org/2000/svg" xmlns:xlink="http://www.w3.org/1999/xlink" xml:space="preserve" xmlns:serif="http://www.serif.com/" style="fill-rule:evenodd;clip-rule:evenodd;stroke-linejoin:round;stroke-miterlimit:2;"><g id="Calque4"></g><g id="ligne-au-milieu" serif:id="ligne au milieu"><path d="M2266.45,1484.23c19.516,-6.532 49.703,-12.331 49.703,-12.331c1.702,-2.852 3.392,-5.573 6.039,-8.873l-2274.22,-0.067l0,24.081l2218.47,-2.81Z"/><path d="M4991.61,1486.43l0,-23.471l-1969.73,0.102c-6.581,9.15 -11.156,14.137 -26.504,23.99l1996.23,-0.621Z"/></g><g id="Calque3"></g><g id="plume"><g><path id="path2768" d="M2637.98,1378.38c2.892,-4.402 6.011,-8.876 9.243,-13.32c18.161,-24.966 39.818,-49.012 43.492,-53.235c1.85,-2.123 5.81,-4.024 11.526,-5.248c10.099,-2.163 26.185,-2.772 44.043,-1.923c28.048,1.332 60.49,6.218 80.737,13.951c0.717,0.27 1.264,0.861 1.478,1.597c0.213,0.735 0.068,1.528 -0.394,2.14c-6.158,8.082 -29.602,27.468 -45.499,42.992c1.516,-1.137 3.085,-2.295 4.691,-3.466c21.436,-15.63 49.678,-33.806 54.341,-38.201c0.822,-0.775 2.374,-1.158 4.62,-0.71c5.171,1.034 15.26,6.263 27.756,13.789c42.113,25.364 112.217,76.794 112.217,76.794c0.434,0.317 0.534,0.924 0.223,1.363c0,0 -13.635,19.22 -32.205,37.027c-7.896,7.572 -16.675,14.896 -25.7,20.375c-0.465,0.281 -1.066,0.175 -1.407,-0.248c-9.965,-12.275 -21.36,-21.726 -32.063,-28.841c-11.596,-7.709 -22.37,-12.68 -29.603,-15.561c6.725,5.03 16.802,12.925 26.611,21.952c7.426,6.835 14.695,14.318 20.259,21.701c0.373,0.499 0.453,1.158 0.21,1.732c-0.242,0.574 -0.771,0.976 -1.389,1.056c-29.794,4.031 -59.886,6.699 -89.483,11.624c-19.675,3.275 -39.129,7.548 -58.125,13.909c-0.886,0.292 -1.86,0.073 -2.537,-0.569c-16.289,-15.322 -30.38,-25.657 -41.766,-32.618c-2.271,-1.389 -4.431,-2.641 -6.48,-3.767c5.07,3.634 9.895,7.319 13.208,10.324c2.787,2.528 5.739,5.69 8.661,9.065c7.133,8.239 14.086,17.777 17.86,22.008c0.865,0.976 1.056,2.377 0.485,3.549c-0.57,1.172 -1.791,1.885 -3.093,1.806c0,0 -11.731,-0.587 -31.544,7.113c-8.499,3.303 -18.445,8.118 -29.566,15.116c-11.151,7.017 -22.571,9.668 -33.818,9.269c-11.496,-0.407 -22.822,-4.039 -33.489,-9.548c-7.347,-3.794 -16.857,-12.832 -26.011,-23.02c-8.12,-9.038 -15.998,-18.956 -21.851,-26.622c1.495,6.544 3.567,12.893 6.342,19.006c4.701,10.359 11.431,20.031 20.771,28.827c0.999,0.947 1.472,2.323 1.266,3.684c-0.207,1.362 -1.066,2.536 -2.302,3.144c0,0 -44.785,22.237 -98.445,20.299c-30.657,-1.106 -64.164,-10.078 -93.988,-35.305c-2.038,-1.735 -2.284,-4.799 -0.548,-6.837c1.735,-2.039 4.799,-2.285 6.838,-0.549c27.846,23.866 59.279,32.415 88.054,33.641c40.515,1.726 75.84,-10.971 88.946,-16.409c-7.873,-8.434 -13.755,-17.525 -18.044,-27.142c-5.243,-11.754 -8.111,-24.293 -9.302,-37.384c-0.169,-1.791 0.889,-3.47 2.576,-4.092c1.688,-0.622 3.583,-0.03 4.616,1.442c0,0 14.878,21.354 30.733,39.244c8.387,9.462 16.991,17.995 23.749,21.544c9.663,5.074 19.918,8.508 30.366,8.949c9.92,0.419 20.003,-1.875 29.882,-7.999c14.595,-9.047 27.243,-14.507 37.375,-17.803c9.154,-2.977 16.308,-4.21 21.064,-4.707c-3.777,-4.82 -8.674,-11.304 -13.664,-17.147c-2.726,-3.193 -5.476,-6.19 -8.081,-8.586c-3.36,-3.09 -8.363,-6.918 -13.537,-10.655c-10.49,-7.577 -21.681,-14.764 -21.681,-14.764c-1.164,-0.742 -1.654,-2.194 -1.177,-3.489c0.476,-1.295 1.79,-2.084 3.157,-1.895c0,0 12.291,1.651 33.603,14.942c11.306,7.051 25.22,17.425 41.239,32.658c18.841,-5.99 38.092,-10.002 57.548,-13.034c28.692,-4.471 57.827,-6.816 86.715,-10.328c-5.1,-6.489 -11.393,-12.997 -17.807,-19.008c-16.585,-15.539 -33.99,-27.76 -33.99,-27.76c-0.571,-0.398 -0.772,-1.15 -0.474,-1.78c0.298,-0.629 1.007,-0.951 1.677,-0.761c0,0 18.374,5.304 39.356,19.489c10.604,7.169 21.884,16.602 31.784,28.784c8.641,-5.299 17.055,-12.258 24.625,-19.475c16.26,-15.5 28.671,-32.147 31.417,-35.923c-6.94,-5.022 -58.102,-41.905 -97.235,-66.571c-17.331,-10.924 -32.273,-19.451 -39.86,-21.672c-1.036,-0.303 -1.915,-0.481 -2.624,-0.507c-0.356,-0.012 -0.641,-0.064 -0.8,0.089c-4.646,4.465 -32.847,23.047 -54.25,38.975c-9.445,7.03 -17.551,13.524 -21.602,18.02c-0.651,0.716 -1.72,0.864 -2.541,0.354c-0.821,-0.511 -1.161,-1.535 -0.807,-2.435c1.303,-3.367 5.313,-8.383 10.799,-14.135c13.976,-14.651 37.677,-34.585 46.708,-44.661c-16.643,-5.555 -40.158,-9.253 -62.58,-10.9c-20.912,-1.536 -40.872,-1.286 -53.386,0.987c-5.255,0.954 -9.083,2.037 -10.615,3.834c-3.602,4.222 -24.839,28.274 -42.614,53.194c-9.732,13.644 -18.443,27.531 -22.477,38.489c-0.639,1.712 -2.436,2.697 -4.222,2.313c-1.787,-0.383 -3.022,-2.019 -2.902,-3.842c0.669,-10.899 3.589,-21.076 7.746,-30.842c8.388,-19.708 21.953,-37.686 31.316,-56.812c-2.431,-0.025 -5.144,-0.125 -8.113,-0.17c-12.765,-0.191 -30.772,1.021 -51.327,17.553c-18.289,14.709 -38.432,41.237 -58.852,88.66c-0.818,1.891 -2.834,2.965 -4.859,2.59c-2.025,-0.376 -3.522,-2.101 -3.608,-4.159c-0.537,-12.372 0.166,-25.047 1.979,-37.454c1.369,-9.368 3.373,-18.583 5.953,-27.396c-28.159,11.223 -55.166,27.716 -80.632,55.312c-20.517,22.233 -40.017,51.636 -58.359,91.181c-1.129,2.427 -4.017,3.48 -6.444,2.35c-2.427,-1.13 -3.48,-4.018 -2.351,-6.445c18.958,-40.568 39.125,-70.683 60.266,-93.461c29.325,-31.596 60.546,-49.154 93.176,-60.776c1.647,-0.589 3.485,-0.179 4.725,1.054c1.241,1.233 1.661,3.07 1.082,4.72c-3.862,10.937 -6.759,22.719 -8.56,34.77c-0.748,5.007 -1.307,10.06 -1.666,15.119c18.371,-37.407 36.42,-59.557 52.856,-72.673c22.771,-18.172 42.665,-19.434 56.762,-19.162c5.738,0.11 10.408,0.561 13.768,-0.049c1.483,-0.273 2.996,0.295 3.933,1.477c0.937,1.181 1.146,2.783 0.543,4.165c-9.414,21.365 -25.129,40.923 -34.574,62.626l-0.049,0.114Z"/><path d="M2410.41,1517.69c79.779,67.928 187.43,14.924 187.43,14.924c-19.906,-18.867 -28.353,-41.555 -30.684,-66.283c0,0 36.06,51.376 56.027,61.775c19.967,10.398 42.359,13.991 63.777,0.614c38.454,-24.017 63.136,-22.517 63.136,-22.517c-5.261,-5.939 -16.7,-22.264 -26.19,-30.933c-10.318,-9.425 -35.721,-25.617 -35.721,-25.617c0,0 28.671,3.96 74.585,47.563c47.793,-15.737 98.392,-18.398 148.174,-24.866c-17.99,-24.095 -54.235,-49.305 -54.235,-49.305c0,0 41.91,11.896 71.282,48.323c30.149,-18.2 57.663,-57.041 57.663,-57.041c0,0 -134.177,-97.907 -142.953,-89.553c-6.742,6.417 -62.942,42.109 -76.275,56.76c4.959,-12.629 50.811,-48.818 59.743,-60.662c-38.95,-14.642 -123.275,-18.363 -133.067,-6.999c-5.664,6.573 -54.498,61.207 -66.156,92.45c2.288,-34.756 28.567,-61.711 41.921,-92.321c-18.192,3.344 -72.774,-20.983 -128.879,108.715c-1.02,-24.411 2.899,-50.018 10.703,-72.234c-55.169,19.738 -106.226,56.759 -150.572,152.013" style="fill:#262626;"/><path id="path2757" d="M2402.32,1492.17l5.762,28.389l-56.902,47.604c0,0 -13.667,-12.98 -37.538,-9.531c-9.657,1.396 -29.315,10.976 -29.315,10.976c0,0 30.511,-29.988 47.142,-40.903c19.666,-12.906 70.851,-36.535 70.851,-36.535Z"/><path id="path1873" d="M2874.54,1406.62c-220.576,0.253 -400.332,25.39 -561.618,142.525c0,0 10.932,-0.284 19.982,-0.671c9.05,-0.387 20.783,11.811 20.783,11.811c0,0 72.346,-58.223 111.414,-75.723c43.777,-19.61 100.33,-32.962 151.251,-41.937c67.711,-11.935 255.015,-29.672 255.015,-29.672l3.173,-6.333Z" style="fill:#595959;"/><path d="M2875.6,1407.01c0.185,-0.271 0.165,-0.594 -0.051,-0.852c-0.217,-0.258 -0.599,-0.415 -1.01,-0.415c-129.576,-0.379 -245.152,7.766 -351.199,38.334c-74.898,21.59 -145.002,54.402 -211.994,102.897c-0.95,0.69 -1.34,1.918 -0.963,3.03c0.377,1.113 1.434,1.85 2.608,1.819l20.029,-0.655c2.512,-0.105 5.24,1.02 7.81,2.465c5.887,3.311 10.899,8.533 10.899,8.533c0.976,1.015 2.565,1.116 3.662,0.233c0,0 31.986,-25.727 64.862,-48.08c16.403,-11.153 33.021,-21.473 45.962,-27.271c17.89,-8.031 37.935,-14.993 58.845,-21.068c30.025,-8.724 61.839,-15.602 91.718,-20.941c23.629,-4.269 61.863,-9.29 101.592,-14.056c73.965,-8.874 153.112,-16.814 153.112,-16.814c0.42,-0.039 0.79,-0.293 0.979,-0.67c0,0 3.139,-6.35 3.139,-6.35l0,-0.139Zm-2.841,0.494c-128.491,0.749 -243.03,10.086 -348.124,41.02c-71.558,21.063 -138.769,52.108 -202.966,97.635l11.12,-0.384c3.418,-0.149 7.193,1.175 10.692,3.136c4.315,2.418 8.212,5.755 10.375,7.76c7.321,-5.823 34.99,-27.598 63.326,-46.868c16.696,-11.354 33.63,-21.831 46.804,-27.731c18.12,-8.099 38.406,-15.152 59.589,-21.234c30.228,-8.679 62.273,-15.403 92.351,-20.631c23.729,-4.079 62.103,-8.825 101.983,-13.23c70.106,-7.744 144.86,-14.485 152.673,-15.185l2.177,-4.288Z"/></g></g><g id="Calque5"></g><g id="plume1" serif:id="plume"></g><g id="plume2" serif:id="plume"></g><g><path d="M269.99,56.697c5.534,0.37 8.301,4.43 8.301,12.183c0,6.276 -1.383,13.475 -4.15,21.597c-2.768,8.122 -5.535,14.583 -8.302,19.382c-5.282,9.599 -11.32,16.059 -18.112,19.382c-6.791,3.322 -14.59,4.984 -23.394,4.984c-3.019,0 -7.798,-0.37 -14.339,-1.108c-8.049,-0.738 -14.086,-0.923 -18.111,-0.554l-6.981,0c-2.641,0 -4.402,0.739 -5.283,2.215c-0.88,1.477 -1.949,4.8 -3.207,9.968c-0.754,3.692 -1.195,8.491 -1.32,14.398c-0.126,5.907 -0.189,10.153 -0.189,12.737l-2.641,61.468c-0.755,21.412 -1.258,40.148 -1.51,56.207c-0.251,16.059 -0.503,29.442 -0.754,40.148c0,14.398 -0.126,25.104 -0.378,32.119c2.013,-0.739 3.396,-1.108 4.151,-1.108c5.534,0 8.301,6.276 8.301,18.828c0,8.86 -0.943,18.274 -2.83,28.242c-1.887,9.968 -4.213,21.043 -6.98,33.226c-1.51,6.276 -4.717,14.675 -9.622,25.196c-4.906,10.522 -10.377,19.659 -16.414,27.412c-6.037,7.753 -11.32,11.629 -15.848,11.629c-5.786,0 -9.685,-6.645 -11.697,-19.936c-2.013,-12.921 -3.019,-28.426 -3.019,-46.516c0,-20.305 1.384,-45.963 4.151,-76.973l2.641,-39.872c3.773,-71.989 8.427,-130.688 13.961,-176.097c-1.509,0.738 -5.597,2.676 -12.263,5.814c-6.666,3.138 -12.766,6.738 -18.3,10.799c-5.535,4.061 -9.811,8.306 -12.83,12.736c-3.27,5.169 -6.163,11.814 -8.678,19.936c-3.27,8.122 -6.1,14.398 -8.49,18.828c-2.39,4.43 -5.849,7.937 -10.377,10.522c-2.767,1.845 -5.534,2.768 -8.301,2.768c-5.283,0 -7.924,-4.799 -7.924,-14.398c0,-6.276 1.006,-13.659 3.019,-22.15c2.012,-8.491 4.15,-15.321 6.414,-20.49c16.854,-40.609 42.764,-69.866 77.73,-87.772c34.966,-17.905 71.944,-26.857 110.935,-26.857c5.534,0 13.081,0.369 22.64,1.107Z" style="fill-rule:nonzero;"/><path d="M314.892,318.629l-3.019,11.075l26.414,32.672l-2.642,-16.059c-1.761,-10.337 -5.282,-32.303 -10.565,-65.898l-10.188,38.21Zm43.016,-161.7c3.521,32.118 7.986,64.698 13.395,97.74c5.408,33.041 12.012,70.974 19.81,113.799c7.295,40.609 12.074,67.559 14.338,80.85c0.252,1.107 0.378,2.768 0.378,4.984c0,8.86 -3.396,16.52 -10.188,22.981c-6.792,6.46 -13.836,9.691 -21.131,9.691c-6.037,0 -10.691,-2.4 -13.961,-7.199c-7.295,-11.445 -14.967,-22.335 -23.017,-32.672c-8.05,-10.337 -18.615,-23.074 -31.696,-38.21l-12.452,-14.952c-10.565,33.226 -18.74,57.776 -24.526,73.651c-1.761,5.538 -6.352,10.614 -13.773,15.228c-7.42,4.615 -14.275,6.923 -20.564,6.923c-7.044,0 -10.565,-3.323 -10.565,-9.968c0,-1.846 0.377,-4.061 1.132,-6.645c7.546,-27.32 16.476,-58.7 26.79,-94.141l7.924,-28.242c-6.289,-9.229 -9.433,-13.844 -9.433,-13.844c-1.761,-2.584 -2.642,-5.538 -2.642,-8.86c0,-6.276 2.768,-12.275 8.302,-17.998c5.534,-5.722 11.697,-9.506 18.489,-11.352c12.074,-42.455 23.394,-85.649 33.96,-129.581c1.006,-5.169 4.213,-9.691 9.621,-13.567c5.409,-3.877 11.132,-6.369 17.169,-7.476c4.276,-1.846 7.924,-2.769 10.942,-2.769c7.044,0 10.943,3.876 11.698,11.629Z" style="fill-rule:nonzero;"/><path d="M461.673,47.837c0.503,-7.014 4.528,-13.383 12.075,-19.105c7.546,-5.722 14.716,-8.583 21.508,-8.583c8.049,0 11.948,4.43 11.697,13.29c-4.025,66.083 -10.691,157.27 -19.999,273.561c-6.037,79.373 -9.936,130.873 -11.697,154.5c-0.503,7.753 -4.465,14.675 -11.886,20.767c-7.421,6.091 -14.653,9.137 -21.696,9.137c-9.811,0 -14.339,-5.353 -13.584,-16.059c8.804,-126.997 19.998,-269.5 33.582,-427.508Z" style="fill-rule:nonzero;"/><path d="M671.469,428.275c3.773,1.845 5.659,5.168 5.659,9.967c0,5.907 -2.389,12.368 -7.169,19.382c-5.282,7.753 -12.074,11.629 -20.376,11.629c-4.024,0 -7.42,-0.738 -10.187,-2.215c-13.333,-6.276 -25.407,-9.414 -36.224,-9.414c-18.867,0 -38.11,8.86 -57.732,26.581c-3.27,3.322 -7.232,5.999 -11.885,8.03c-4.654,2.03 -8.993,3.045 -13.018,3.045c-3.774,0 -6.792,-1.015 -9.056,-3.045c-2.264,-2.031 -3.396,-5.261 -3.396,-9.691c0,-2.585 0.251,-4.8 0.754,-6.646c7.296,-29.903 13.144,-56.853 17.546,-80.849c4.402,-23.997 7.358,-48.363 8.868,-73.098c2.264,-33.226 3.396,-57.591 3.396,-73.097c0,-40.978 -5.409,-72.359 -16.226,-94.14c-1.257,-2.215 -1.886,-5.168 -1.886,-8.86c0,-7.384 3.521,-14.306 10.565,-20.767c7.043,-6.46 13.961,-9.69 20.753,-9.69c4.528,0 7.798,1.476 9.811,4.43c3.27,1.846 5.408,4.799 6.414,8.86c6.289,24.366 14.968,44.947 26.036,61.745c11.068,16.797 24.149,25.196 39.242,25.196c2.767,0 6.918,-0.738 12.452,-2.215c3.522,-0.738 5.786,-1.107 6.792,-1.107c4.276,0 7.484,1.384 9.622,4.153c2.138,2.769 3.207,6.553 3.207,11.352c0,5.169 -1.446,10.337 -4.339,15.506c-2.893,5.168 -6.729,8.86 -11.509,11.075c-10.313,5.168 -20.627,7.753 -30.941,7.753c-12.326,0 -24.149,-3.692 -35.469,-11.076c-0.503,20.674 -1.132,36.18 -1.886,46.517l-2.642,34.887c9.811,-2.584 19.622,-4.799 29.432,-6.645l5.283,-0.554c10.062,0 15.093,4.984 15.093,14.952c0,6.645 -2.516,12.552 -7.547,17.72c-5.031,5.169 -10.188,8.491 -15.47,9.968c-7.798,2.215 -18.489,4.615 -32.073,7.199c-2.767,18.09 -5.786,35.072 -9.056,50.946c16.602,-8.86 33.456,-13.29 50.562,-13.29c18.867,0 37.733,5.169 56.6,15.506Z" style="fill-rule:nonzero;"/><path d="M809.194,244.978c-4.78,-5.907 -13.018,-13.752 -24.715,-23.535c-11.697,-9.783 -20.691,-14.675 -26.979,-14.675c-5.031,0 -7.547,3.692 -7.547,11.075c0,2.585 0.629,7.015 1.887,13.291c1.761,8.491 5.66,16.52 11.697,24.089c6.037,7.568 13.961,16.336 23.772,26.303c8.049,8.122 13.206,13.66 15.47,16.613c11.069,14.029 19.873,25.751 26.413,35.165c6.541,9.414 12.515,20.489 17.923,33.226c5.409,12.736 8.113,25.75 8.113,39.04c0,8.86 -1.509,18.09 -4.528,27.688c-5.786,17.352 -15.282,30.642 -28.488,39.872c-13.207,9.229 -27.231,13.844 -42.073,13.844c-5.031,0 -10.062,-0.554 -15.093,-1.662c-34.211,-8.491 -65.781,-41.901 -94.709,-100.231c-1.51,-3.323 -2.264,-6.645 -2.264,-9.968c0,-8.122 3.71,-15.598 11.131,-22.428c7.421,-6.829 14.779,-10.244 22.074,-10.244c5.534,0 9.559,2.399 12.074,7.199c15.596,31.011 30.941,53.715 46.034,68.113c13.836,13.29 25.533,19.936 35.092,19.936c7.798,0 11.697,-4.984 11.697,-14.952c0,-7.015 -1.886,-15.69 -5.66,-26.027c-3.773,-9.968 -8.678,-19.382 -14.716,-28.242c-6.037,-8.861 -13.709,-19.013 -23.017,-30.457l-10.188,-12.737c-1.006,-1.477 -5.66,-6.83 -13.961,-16.059c-6.792,-7.384 -12.577,-14.214 -17.357,-20.49c-4.779,-6.276 -8.804,-13.105 -12.075,-20.489c-4.276,-9.968 -6.414,-20.305 -6.414,-31.011c0,-16.613 4.842,-31.841 14.527,-45.686c9.685,-13.844 20.816,-23.35 33.394,-28.519c8.049,-3.322 15.722,-4.983 23.017,-4.983c13.584,0 26.727,4.614 39.431,13.844c12.703,9.229 25.595,21.966 38.676,38.21c2.264,2.584 3.396,5.722 3.396,9.414c0,7.014 -3.899,13.844 -11.697,20.489c-7.798,6.645 -15.471,9.968 -23.017,9.968c-5.031,0 -8.805,-1.662 -11.32,-4.984Z" style="fill-rule:nonzero;"/><path d="M1118.98,182.402c2.516,-3.691 6.667,-6.922 12.452,-9.691c5.786,-2.768 11.069,-4.153 15.848,-4.153c7.547,0 11.32,3.323 11.32,9.968c0,3.692 -1.132,7.753 -3.396,12.183c-7.798,15.505 -17.672,27.411 -29.62,35.718c-11.949,8.306 -24.841,12.459 -38.677,12.459c-14.087,0 -28.928,-5.537 -44.525,-16.613c2.264,28.796 3.396,57.592 3.396,86.388l11.698,0.554c11.571,0.738 27.042,2.03 46.411,3.876l13.961,1.661c9.056,1.108 13.584,5.354 13.584,12.737c0,6.276 -2.83,12.737 -8.49,19.382c-5.66,6.645 -11.382,9.968 -17.168,9.968c-10.314,0 -22.766,-0.739 -37.356,-2.215l-23.772,-1.662c-2.012,37.656 -5.659,73.282 -10.942,106.877c-1.006,7.753 -5.22,14.398 -12.641,19.936c-7.42,5.537 -14.653,8.306 -21.696,8.306c-4.277,0 -7.547,-1.2 -9.811,-3.599c-2.264,-2.4 -3.018,-6.184 -2.264,-11.352c6.289,-40.61 10.188,-81.958 11.698,-124.044l-6.415,0c-5.786,0 -8.679,-2.584 -8.679,-7.753c0,-3.692 1.195,-7.753 3.585,-12.183c2.39,-4.43 4.968,-7.752 7.735,-9.967l4.151,-3.323c0,-44.671 -2.767,-88.603 -8.301,-131.796l0,-3.877c-1.258,-2.584 -1.887,-4.799 -1.887,-6.645c0,-6.645 3.71,-13.29 11.131,-19.936c7.421,-6.645 14.402,-9.967 20.942,-9.967c2.012,0 4.276,0.738 6.792,2.215l14.716,12.736c12.326,11.076 22.828,19.751 31.507,26.027c8.678,6.276 17.043,9.414 25.092,9.414c7.798,0 14.339,-3.876 19.621,-11.629Z" style="fill-rule:nonzero;"/><path d="M1226.52,289.833c9.811,-11.445 17.798,-21.597 23.961,-30.457c6.163,-8.86 10.879,-17.721 14.15,-26.581c-13.584,-5.168 -33.709,-13.66 -60.373,-25.473l-1.887,112.414c7.547,-9.229 11.949,-14.767 13.207,-16.613l10.942,-13.29Zm60.75,77.527c2.013,-5.907 6.289,-10.983 12.83,-15.228c6.54,-4.246 12.829,-6.369 18.866,-6.369c8.301,0 12.452,3.877 12.452,11.629c0,2.215 -0.377,4.8 -1.132,7.753c-10.314,35.441 -18.112,69.775 -23.395,103.001c-1.257,7.383 -4.905,14.213 -10.942,20.489c-2.516,4.799 -6.352,8.86 -11.509,12.183c-5.156,3.322 -10.25,4.984 -15.281,4.984c-4.277,0 -7.736,-1.292 -10.377,-3.877c-2.641,-2.584 -4.088,-6.645 -4.339,-12.182c-1.007,-23.997 -6.352,-45.963 -16.037,-65.899c-9.685,-19.935 -22.074,-32.856 -37.167,-38.763l-1.886,80.296c-0.252,7.014 -4.214,13.475 -11.886,19.382c-7.673,5.907 -15.031,8.86 -22.074,8.86c-3.773,0 -6.792,-1.015 -9.056,-3.046c-2.264,-2.03 -3.396,-5.261 -3.396,-9.691l1.132,-76.419c-3.27,-3.323 -4.905,-7.199 -4.905,-11.63c0,-5.168 1.886,-10.152 5.66,-14.951c1.257,-67.191 2.767,-134.196 4.528,-201.017c0.251,-7.753 3.836,-14.491 10.754,-20.213c6.917,-5.722 13.898,-8.583 20.941,-8.583c5.283,0 9.056,1.846 11.32,5.537c27.419,11.076 55.845,23.259 85.277,36.549c4.528,-1.477 7.672,-2.215 9.433,-2.215c4.276,0 7.609,1.384 9.999,4.153c2.39,2.769 3.585,6.922 3.585,12.46c0,15.136 -3.396,29.073 -10.188,41.809c-6.792,12.737 -16.225,26.858 -28.3,42.363l-7.546,9.968c-12.075,17.352 -23.772,32.672 -35.092,45.963c20.627,8.491 37.23,25.288 49.807,50.393c1.007,-3.692 3.648,-12.922 7.924,-27.689Z" style="fill-rule:nonzero;"/><path d="M1445.37,368.468c5.786,-19.936 8.679,-40.425 8.679,-61.468c0,-16.613 -1.95,-31.842 -5.849,-45.686c-3.899,-13.844 -9.999,-25.196 -18.3,-34.057c-5.534,-5.906 -10.817,-8.86 -15.848,-8.86c-2.012,0 -4.528,0.738 -7.547,2.215c2.264,1.477 3.396,4.061 3.396,7.753c0,2.215 -0.503,4.799 -1.509,7.753c-5.786,16.243 -10.314,33.872 -13.584,52.884c-3.27,19.013 -4.905,38.118 -4.905,57.315c0,22.151 2.264,43.194 6.792,63.129c3.019,11.076 6.163,19.751 9.433,26.027c1.509,2.585 3.019,4.431 4.528,5.538c7.295,-7.383 13.898,-17.72 19.81,-31.011c5.911,-13.29 10.88,-27.134 14.904,-41.532Zm-5.282,-194.372c12.326,3.692 22.891,11.629 31.695,23.812c8.805,12.183 15.471,26.857 19.999,44.024c4.528,17.167 6.792,34.98 6.792,53.439c0,21.781 -2.893,44.116 -8.679,67.005c-5.785,22.889 -13.709,43.932 -23.771,63.13c-10.063,19.197 -21.257,34.333 -33.583,45.409c-11.571,10.336 -22.891,15.505 -33.959,15.505c-11.069,0 -20.754,-4.984 -29.055,-14.952c-8.301,-9.968 -14.338,-24.365 -18.112,-43.193c-4.276,-19.198 -6.414,-40.795 -6.414,-64.791c0,-14.398 0.754,-28.427 2.264,-42.086c-1.761,0.738 -4.402,1.107 -7.924,1.107c-8.553,0 -12.829,-4.245 -12.829,-12.736c0,-2.954 0.251,-5.354 0.754,-7.199c8.553,-35.072 21.445,-65.622 38.677,-91.649c17.231,-26.027 37.041,-39.04 59.429,-39.04c3.27,0 8.175,0.738 14.716,2.215Z" style="fill-rule:nonzero;"/><path d="M1685.35,165.789c0.503,1.108 1.006,3.138 1.509,6.092c3.019,45.409 8.427,117.214 16.225,215.415l4.906,63.129c0.754,8.122 -2.327,15.321 -9.245,21.597c-6.918,6.276 -14.15,9.414 -21.696,9.414c-4.528,0 -8.364,-1.384 -11.509,-4.153c-3.144,-2.769 -4.842,-7.107 -5.094,-13.014c-3.27,-51.315 -7.043,-104.292 -11.32,-158.931c-6.792,21.413 -13.583,41.164 -20.375,59.253c-1.007,2.954 -2.893,5.907 -5.66,8.861c-3.271,4.43 -7.358,8.029 -12.264,10.798c-4.905,2.769 -9.621,4.153 -14.149,4.153c-7.799,0 -12.955,-3.876 -15.471,-11.629c-4.528,-14.767 -9.056,-30.641 -13.584,-47.624l-1.886,16.613c-3.271,30.642 -7.673,70.144 -13.207,118.506c-0.755,7.753 -4.968,14.491 -12.641,20.213c-7.672,5.722 -15.156,8.583 -22.451,8.583c-4.024,0 -7.169,-1.107 -9.433,-3.322c-2.264,-2.216 -3.144,-5.723 -2.641,-10.522c13.332,-129.212 23.772,-224.46 31.318,-285.743c1.006,-7.753 5.283,-14.583 12.829,-20.49c7.547,-5.907 14.716,-8.675 21.508,-8.306c4.025,-0.739 7.484,-0.277 10.377,1.384c2.893,1.661 4.591,4.523 5.094,8.584c6.288,41.717 14.087,79.927 23.394,114.629c10.817,-35.81 21.131,-72.728 30.941,-110.753c1.509,-6.276 5.471,-11.629 11.886,-16.059c6.415,-4.43 12.766,-6.645 19.055,-6.645c7.547,0 12.075,3.322 13.584,9.967Z" style="fill-rule:nonzero;"/><path d="M1917.41,318.629l-3.019,11.075l26.413,32.672l-2.641,-16.059c-1.761,-10.337 -5.283,-32.303 -10.565,-65.898l-10.188,38.21Zm43.015,-161.7c3.522,32.118 7.987,64.698 13.395,97.74c5.409,33.041 12.012,70.974 19.81,113.799c7.295,40.609 12.075,67.559 14.339,80.85c0.251,1.107 0.377,2.768 0.377,4.984c0,8.86 -3.396,16.52 -10.188,22.981c-6.792,6.46 -13.835,9.691 -21.13,9.691c-6.038,0 -10.691,-2.4 -13.961,-7.199c-7.295,-11.445 -14.968,-22.335 -23.018,-32.672c-8.049,-10.337 -18.614,-23.074 -31.695,-38.21l-12.452,-14.952c-10.565,33.226 -18.741,57.776 -24.527,73.651c-1.76,5.538 -6.351,10.614 -13.772,15.228c-7.421,4.615 -14.276,6.923 -20.565,6.923c-7.043,0 -10.565,-3.323 -10.565,-9.968c0,-1.846 0.378,-4.061 1.132,-6.645c7.547,-27.32 16.477,-58.7 26.791,-94.141l7.924,-28.242c-6.289,-9.229 -9.434,-13.844 -9.434,-13.844c-1.761,-2.584 -2.641,-5.538 -2.641,-8.86c0,-6.276 2.767,-12.275 8.301,-17.998c5.534,-5.722 11.697,-9.506 18.489,-11.352c12.075,-42.455 23.395,-85.649 33.96,-129.581c1.006,-5.169 4.214,-9.691 9.622,-13.567c5.408,-3.877 11.131,-6.369 17.168,-7.476c4.277,-1.846 7.924,-2.769 10.943,-2.769c7.044,0 10.943,3.876 11.697,11.629Z" style="fill-rule:nonzero;"/><path d="M2273.99,263.252c1.006,-7.383 4.842,-13.659 11.509,-18.828c6.666,-5.168 13.269,-7.753 19.809,-7.753c8.553,0 12.327,4.8 11.32,14.398l-1.509,12.737c-3.773,31.38 -7.609,57.869 -11.509,79.465c-3.899,21.597 -9.81,42.548 -17.734,62.853c-7.924,20.305 -18.301,36.364 -31.13,48.178c-16.602,15.505 -33.582,23.258 -50.939,23.258c-10.314,0 -19.936,-3.138 -28.866,-9.414c-8.93,-6.276 -16.414,-16.06 -22.451,-29.35c-10.565,-22.889 -15.848,-49.101 -15.848,-78.635c0,-39.871 9.685,-86.018 29.055,-138.441c6.54,-18.09 13.395,-32.488 20.564,-43.194c7.169,-10.706 16.162,-17.167 26.979,-19.382c1.006,-0.369 2.39,-0.554 4.151,-0.554c4.025,0 17.479,3.155 20.035,5.871c15.883,16.88 17.949,49.506 7.132,83.839c-1.76,5.907 -5.848,10.891 -12.263,14.952c-6.414,4.061 -12.64,6.092 -18.678,6.092c-4.024,0 -7.295,-0.923 -9.81,-2.769c-2.516,-1.846 -3.774,-4.8 -3.774,-8.86c0,-2.585 0.504,-5.354 1.51,-8.307l5.66,-18.828c-1.258,-0.369 -2.39,-1.292 -3.396,-2.769l-7.547,26.027c-7.043,22.52 -11.697,45.04 -13.961,67.56c-0.755,7.014 -1.132,14.213 -1.132,21.597c0,15.874 1.635,30.826 4.905,44.855c3.27,14.028 8.427,25.288 15.471,33.779c5.786,7.384 11.445,11.076 16.98,11.076c22.136,0 40.625,-56.485 55.467,-169.453Z" style="fill-rule:nonzero;"/><path d="M2433.22,368.468c5.786,-19.936 8.679,-40.425 8.679,-61.468c0,-16.613 -1.95,-31.842 -5.849,-45.686c-3.899,-13.844 -9.999,-25.196 -18.3,-34.057c-5.535,-5.906 -10.817,-8.86 -15.848,-8.86c-2.013,0 -4.528,0.738 -7.547,2.215c2.264,1.477 3.396,4.061 3.396,7.753c0,2.215 -0.503,4.799 -1.509,7.753c-5.786,16.243 -10.314,33.872 -13.584,52.884c-3.27,19.013 -4.905,38.118 -4.905,57.315c0,22.151 2.264,43.194 6.792,63.129c3.018,11.076 6.163,19.751 9.433,26.027c1.509,2.585 3.019,4.431 4.528,5.538c7.295,-7.383 13.898,-17.72 19.81,-31.011c5.911,-13.29 10.879,-27.134 14.904,-41.532Zm-5.282,-194.372c12.326,3.692 22.891,11.629 31.695,23.812c8.805,12.183 15.471,26.857 19.999,44.024c4.528,17.167 6.792,34.98 6.792,53.439c0,21.781 -2.893,44.116 -8.679,67.005c-5.786,22.889 -13.71,43.932 -23.772,63.13c-10.062,19.197 -21.256,34.333 -33.582,45.409c-11.571,10.336 -22.891,15.505 -33.96,15.505c-11.068,0 -20.753,-4.984 -29.054,-14.952c-8.301,-9.968 -14.339,-24.365 -18.112,-43.193c-4.276,-19.198 -6.415,-40.795 -6.415,-64.791c0,-14.398 0.755,-28.427 2.264,-42.086c-1.76,0.738 -4.402,1.107 -7.923,1.107c-8.553,0 -12.83,-4.245 -12.83,-12.736c0,-2.954 0.252,-5.354 0.755,-7.199c8.553,-35.072 21.445,-65.622 38.676,-91.649c17.232,-26.027 37.041,-39.04 59.43,-39.04c3.27,0 8.175,0.738 14.716,2.215Z" style="fill-rule:nonzero;"/><path d="M2673.2,165.789c0.503,1.108 1.006,3.138 1.509,6.092c3.019,45.409 8.427,117.214 16.225,215.415l4.906,63.129c0.754,8.122 -2.327,15.321 -9.245,21.597c-6.918,6.276 -14.15,9.414 -21.697,9.414c-4.527,0 -8.364,-1.384 -11.508,-4.153c-3.144,-2.769 -4.842,-7.107 -5.094,-13.014c-3.27,-51.315 -7.043,-104.292 -11.32,-158.931c-6.792,21.413 -13.584,41.164 -20.376,59.253c-1.006,2.954 -2.893,5.907 -5.66,8.861c-3.27,4.43 -7.358,8.029 -12.263,10.798c-4.905,2.769 -9.622,4.153 -14.15,4.153c-7.798,0 -12.955,-3.876 -15.47,-11.629c-4.528,-14.767 -9.056,-30.641 -13.584,-47.624l-1.887,16.613c-3.27,30.642 -7.672,70.144 -13.206,118.506c-0.755,7.753 -4.968,14.491 -12.641,20.213c-7.672,5.722 -15.156,8.583 -22.451,8.583c-4.025,0 -7.169,-1.107 -9.433,-3.322c-2.264,-2.216 -3.145,-5.723 -2.641,-10.522c13.332,-129.212 23.771,-224.46 31.318,-285.743c1.006,-7.753 5.283,-14.583 12.829,-20.49c7.547,-5.907 14.716,-8.675 21.508,-8.306c4.025,-0.739 7.484,-0.277 10.376,1.384c2.893,1.661 4.591,4.523 5.094,8.584c6.289,41.717 14.087,79.927 23.395,114.629c10.817,-35.81 21.13,-72.728 30.941,-110.753c1.509,-6.276 5.471,-11.629 11.886,-16.059c6.414,-4.43 12.766,-6.645 19.055,-6.645c7.546,0 12.074,3.322 13.584,9.967Z" style="fill-rule:nonzero;"/><path d="M2821.87,327.489c3.773,-14.029 5.66,-27.504 5.66,-40.425c0,-16.982 -3.271,-30.826 -9.811,-41.532c-9.811,-16.983 -26.287,-25.104 -49.43,-24.366c-4.528,58.33 -8.05,128.658 -10.565,210.985c14.338,-11.075 27.167,-25.75 38.487,-44.025c11.32,-18.274 19.873,-38.486 25.659,-60.637Zm-49.808,-149.517c2.767,-0.369 7.044,-0.554 12.829,-0.554c30.69,0 53.581,11.076 68.674,33.226c11.32,16.244 16.98,37.103 16.98,62.576c0,13.29 -2.012,29.165 -6.037,47.624c-8.301,34.703 -22.137,65.806 -41.506,93.309c-19.37,27.504 -41.507,48.455 -66.41,62.853c-1.007,37.656 -3.219,102.372 -4.477,147.781c-0.251,7.753 -4.025,14.582 -11.32,20.489c-7.295,5.907 -14.716,8.861 -22.262,8.861c-8.804,0 -13.207,-4.8 -13.207,-14.398c0,0 2.213,-97.389 3.722,-145.013c-6.792,1.108 -13.458,1.662 -19.998,1.662c-4.78,0 -8.365,-1.108 -10.754,-3.323c-2.39,-2.215 -3.585,-5.168 -3.585,-8.86c0,-6.645 3.082,-13.66 9.245,-21.043c6.163,-7.384 12.389,-11.076 18.677,-11.076c3.522,0 6.038,-0.184 7.547,-0.553c2.767,-79.373 7.044,-155.609 12.829,-228.706c-1.761,-1.476 -2.641,-3.876 -2.641,-7.199c0,-4.43 1.635,-9.598 4.905,-15.505c0,-2.215 0.252,-5.907 0.755,-11.076c0.755,-7.752 4.779,-14.49 12.074,-20.212c7.295,-5.722 14.339,-8.583 21.131,-8.583c4.276,0 7.609,1.292 9.999,3.876c2.39,2.584 3.333,6.461 2.83,11.629l0,2.215Z" style="fill-rule:nonzero;"/><path d="M2998.08,189.047c0.252,-7.383 3.837,-13.936 10.754,-19.658c6.918,-5.722 13.899,-8.584 20.942,-8.584c4.025,0 7.295,1.2 9.811,3.6c2.515,2.4 3.647,6.184 3.396,11.352c-0.503,14.029 -0.755,25.289 -0.755,33.78c-1.258,47.993 -3.459,88.787 -6.603,122.382c-3.145,33.595 -10.125,65.16 -20.942,94.694c-10.817,29.534 -26.916,48.916 -48.298,58.146c-7.295,2.953 -14.213,4.43 -20.753,4.43c-16.1,0 -30.25,-7.015 -42.45,-21.043c-12.2,-14.029 -19.181,-33.042 -20.942,-57.038c-0.503,-9.599 -0.754,-16.798 -0.754,-21.597c0,-25.473 2.641,-51.5 7.924,-78.081c5.282,-26.581 12.955,-58.699 23.017,-96.355c3.018,-9.968 6.414,-22.705 10.188,-38.21c1.509,-6.276 5.345,-11.537 11.508,-15.783c6.163,-4.245 12.263,-6.368 18.301,-6.368c4.024,0 7.295,1.2 9.81,3.599c2.516,2.4 3.773,5.815 3.773,10.245c0,1.477 -0.251,3.692 -0.754,6.645c-5.031,21.413 -8.93,37.472 -11.697,48.178c-7.295,29.903 -12.955,54.915 -16.98,75.035c-4.025,20.121 -6.792,40.702 -8.301,61.745c-0.504,8.861 -0.755,15.875 -0.755,21.043c0,21.782 3.647,37.472 10.942,47.071c2.264,3.322 5.283,6.368 9.056,9.137c3.774,2.768 7.295,4.337 10.566,4.707l3.018,1.107c0.252,0 0.755,-0.554 1.509,-1.661c6.289,-5.907 11.383,-15.967 15.282,-30.18c3.899,-14.214 6.478,-26.858 7.736,-37.933c1.257,-11.076 3.018,-28.612 5.282,-52.608c1.761,-19.567 3.208,-40.979 4.34,-64.237c1.131,-23.258 2.075,-45.778 2.829,-67.56Z" style="fill-rule:nonzero;"/><path d="M3174.3,156.929c5.283,-0.738 9.371,0.185 12.264,2.769c2.892,2.584 5.974,7.568 9.244,14.952c2.013,4.799 3.019,8.86 3.019,12.182c0,8.122 -3.522,12.922 -10.565,14.398l-13.207,2.215c-12.326,2.585 -18.866,3.877 -19.621,3.877c-4.277,59.068 -7.672,110.384 -10.188,153.947c-2.516,43.563 -4.151,86.572 -4.905,129.027c-0.252,5.169 -1.698,9.045 -4.34,11.629c-2.641,2.585 -6.1,3.877 -10.376,3.877c-7.547,0 -15.03,-3.046 -22.451,-9.137c-7.421,-6.092 -11.006,-13.014 -10.754,-20.767c0.755,-39.132 2.264,-79.096 4.528,-119.89c2.264,-40.794 5.282,-88.141 9.056,-142.041l-23.772,4.43c-3.522,0.369 -6.226,0.092 -8.113,-0.831c-1.886,-0.922 -3.71,-3.045 -5.471,-6.368c-1.761,-3.322 -3.522,-7.014 -5.283,-11.075c-2.012,-4.061 -3.018,-8.122 -3.018,-12.183c0,-3.323 0.88,-6.276 2.641,-8.86c1.761,-2.585 4.402,-4.246 7.924,-4.984l38.488,-7.753l6.792,-95.801c0.754,-10.337 5.911,-15.506 15.47,-15.506c7.547,0 14.905,3.046 22.074,9.137c7.169,6.092 10.502,13.014 9.999,20.766l-4.905,74.205c7.043,-0.738 12.2,-1.477 15.47,-2.215Z" style="fill-rule:nonzero;"/><path d="M3354.66,428.275c3.773,1.845 5.66,5.168 5.66,9.967c0,5.907 -2.39,12.368 -7.169,19.382c-5.283,7.753 -12.075,11.629 -20.376,11.629c-4.025,0 -7.421,-0.738 -10.188,-2.215c-13.332,-6.276 -25.407,-9.414 -36.224,-9.414c-18.866,0 -38.11,8.86 -57.731,26.581c-3.27,3.322 -7.232,5.999 -11.886,8.03c-4.654,2.03 -8.993,3.045 -13.018,3.045c-3.773,0 -6.792,-1.015 -9.056,-3.045c-2.264,-2.031 -3.396,-5.261 -3.396,-9.691c0,-2.585 0.252,-4.8 0.755,-6.646c7.295,-29.903 13.144,-56.853 17.546,-80.849c4.402,-23.997 7.358,-48.363 8.867,-73.098c2.264,-33.226 3.396,-57.591 3.396,-73.097c0,-40.978 -5.408,-72.359 -16.225,-94.14c-1.258,-2.215 -1.887,-5.168 -1.887,-8.86c0,-7.384 3.522,-14.306 10.565,-20.767c7.044,-6.46 13.961,-9.69 20.753,-9.69c4.528,0 7.799,1.476 9.811,4.43c3.27,1.846 5.408,4.799 6.415,8.86c6.288,24.366 14.967,44.947 26.035,61.745c11.069,16.797 24.149,25.196 39.243,25.196c2.767,0 6.917,-0.738 12.451,-2.215c3.522,-0.738 5.786,-1.107 6.792,-1.107c4.277,0 7.484,1.384 9.622,4.153c2.139,2.769 3.208,6.553 3.208,11.352c0,5.169 -1.447,10.337 -4.34,15.506c-2.893,5.168 -6.729,8.86 -11.508,11.075c-10.314,5.168 -20.628,7.753 -30.941,7.753c-12.326,0 -24.149,-3.692 -35.469,-11.076c-0.503,20.674 -1.132,36.18 -1.887,46.517l-2.641,34.887c9.81,-2.584 19.621,-4.799 29.432,-6.645l5.282,-0.554c10.062,0 15.093,4.984 15.093,14.952c0,6.645 -2.515,12.552 -7.546,17.72c-5.031,5.169 -10.188,8.491 -15.471,9.968c-7.798,2.215 -18.489,4.615 -32.073,7.199c-2.767,18.09 -5.786,35.072 -9.056,50.946c16.603,-8.86 33.457,-13.29 50.562,-13.29c18.867,0 37.733,5.169 56.6,15.506Z" style="fill-rule:nonzero;"/><path d="M3446.73,289.833c9.811,-11.445 17.798,-21.597 23.961,-30.457c6.163,-8.86 10.879,-17.721 14.15,-26.581c-13.584,-5.168 -33.709,-13.66 -60.373,-25.473l-1.887,112.414c7.547,-9.229 11.949,-14.767 13.207,-16.613l10.942,-13.29Zm60.75,77.527c2.013,-5.907 6.289,-10.983 12.83,-15.228c6.54,-4.246 12.829,-6.369 18.866,-6.369c8.301,0 12.452,3.877 12.452,11.629c0,2.215 -0.377,4.8 -1.132,7.753c-10.314,35.441 -18.112,69.775 -23.395,103.001c-1.257,7.383 -4.905,14.213 -10.942,20.489c-2.516,4.799 -6.352,8.86 -11.509,12.183c-5.156,3.322 -10.25,4.984 -15.281,4.984c-4.277,0 -7.736,-1.292 -10.377,-3.877c-2.641,-2.584 -4.088,-6.645 -4.339,-12.182c-1.007,-23.997 -6.352,-45.963 -16.037,-65.899c-9.685,-19.935 -22.074,-32.856 -37.167,-38.763l-1.886,80.296c-0.252,7.014 -4.214,13.475 -11.886,19.382c-7.673,5.907 -15.031,8.86 -22.074,8.86c-3.773,0 -6.792,-1.015 -9.056,-3.046c-2.264,-2.03 -3.396,-5.261 -3.396,-9.691l1.132,-76.419c-3.27,-3.323 -4.905,-7.199 -4.905,-11.63c0,-5.168 1.886,-10.152 5.66,-14.951c1.257,-67.191 2.767,-134.196 4.528,-201.017c0.251,-7.753 3.836,-14.491 10.754,-20.213c6.917,-5.722 13.898,-8.583 20.941,-8.583c5.283,0 9.056,1.846 11.32,5.537c27.419,11.076 55.845,23.259 85.277,36.549c4.528,-1.477 7.672,-2.215 9.433,-2.215c4.276,0 7.609,1.384 9.999,4.153c2.39,2.769 3.585,6.922 3.585,12.46c0,15.136 -3.396,29.073 -10.188,41.809c-6.792,12.737 -16.225,26.858 -28.3,42.363l-7.546,9.968c-12.075,17.352 -23.772,32.672 -35.092,45.963c20.627,8.491 37.23,25.288 49.807,50.393c1.007,-3.692 3.648,-12.922 7.924,-27.689Z" style="fill-rule:nonzero;"/><path d="M3822.17,244.978c-4.779,-5.907 -13.018,-13.752 -24.715,-23.535c-11.697,-9.783 -20.69,-14.675 -26.979,-14.675c-5.031,0 -7.547,3.692 -7.547,11.075c0,2.585 0.629,7.015 1.887,13.291c1.761,8.491 5.66,16.52 11.697,24.089c6.038,7.568 13.962,16.336 23.772,26.303c8.05,8.122 13.207,13.66 15.471,16.613c11.068,14.029 19.872,25.751 26.413,35.165c6.54,9.414 12.514,20.489 17.923,33.226c5.408,12.736 8.112,25.75 8.112,39.04c0,8.86 -1.509,18.09 -4.528,27.688c-5.785,17.352 -15.281,30.642 -28.488,39.872c-13.206,9.229 -27.231,13.844 -42.072,13.844c-5.031,0 -10.062,-0.554 -15.093,-1.662c-34.212,-8.491 -65.781,-41.901 -94.71,-100.231c-1.509,-3.323 -2.264,-6.645 -2.264,-9.968c0,-8.122 3.71,-15.598 11.131,-22.428c7.421,-6.829 14.779,-10.244 22.074,-10.244c5.534,0 9.559,2.399 12.074,7.199c15.597,31.011 30.942,53.715 46.035,68.113c13.835,13.29 25.532,19.936 35.091,19.936c7.798,0 11.698,-4.984 11.698,-14.952c0,-7.015 -1.887,-15.69 -5.66,-26.027c-3.774,-9.968 -8.679,-19.382 -14.716,-28.242c-6.038,-8.861 -13.71,-19.013 -23.017,-30.457l-10.188,-12.737c-1.006,-1.477 -5.66,-6.83 -13.961,-16.059c-6.792,-7.384 -12.578,-14.214 -17.358,-20.49c-4.779,-6.276 -8.804,-13.105 -12.074,-20.489c-4.277,-9.968 -6.415,-20.305 -6.415,-31.011c0,-16.613 4.843,-31.841 14.527,-45.686c9.685,-13.844 20.816,-23.35 33.394,-28.519c8.05,-3.322 15.722,-4.983 23.017,-4.983c13.584,0 26.728,4.614 39.431,13.844c12.704,9.229 25.596,21.966 38.676,38.21c2.264,2.584 3.396,5.722 3.396,9.414c0,7.014 -3.899,13.844 -11.697,20.489c-7.798,6.645 -15.47,9.968 -23.017,9.968c-5.031,0 -8.804,-1.662 -11.32,-4.984Z" style="fill-rule:nonzero;"/><path d="M4008.19,263.252c1.006,-7.383 4.842,-13.659 11.508,-18.828c6.666,-5.168 13.27,-7.753 19.81,-7.753c8.553,0 12.326,4.8 11.32,14.398l-1.509,12.737c-3.774,31.38 -7.61,57.869 -11.509,79.465c-3.899,21.597 -9.811,42.548 -17.734,62.853c-7.924,20.305 -18.301,36.364 -31.13,48.178c-16.603,15.505 -33.582,23.258 -50.94,23.258c-10.313,0 -19.935,-3.138 -28.865,-9.414c-8.93,-6.276 -16.414,-16.06 -22.451,-29.35c-10.566,-22.889 -15.848,-49.101 -15.848,-78.635c0,-39.871 9.684,-86.018 29.054,-138.441c6.54,-18.09 13.395,-32.488 20.565,-43.194c7.169,-10.706 16.162,-17.167 26.979,-19.382c1.006,-0.369 2.389,-0.554 4.15,-0.554c4.025,0 14.352,2.639 17.122,5.146c21.301,19.278 20.863,50.231 10.046,84.564c-1.761,5.907 -5.849,10.891 -12.263,14.952c-6.415,4.061 -12.641,6.092 -18.678,6.092c-4.025,0 -7.295,-0.923 -9.811,-2.769c-2.515,-1.846 -3.773,-4.8 -3.773,-8.86c0,-2.585 0.503,-5.354 1.509,-8.307l5.66,-18.828c-1.257,-0.369 -2.389,-1.292 -3.396,-2.769l-7.546,26.027c-7.044,22.52 -11.697,45.04 -13.961,67.56c-0.755,7.014 -1.132,14.213 -1.132,21.597c0,15.874 1.635,30.826 4.905,44.855c3.27,14.028 8.427,25.288 15.47,33.779c5.786,7.384 11.446,11.076 16.98,11.076c22.137,0 40.626,-56.485 55.468,-169.453Z" style="fill-rule:nonzero;"/><path d="M4069.7,189.047c0.252,-7.383 3.899,-13.936 10.943,-19.658c7.043,-5.722 14.087,-8.584 21.13,-8.584c4.025,0 7.295,1.2 9.811,3.6c2.515,2.4 3.647,6.184 3.396,11.352l-10.943,300.695c-0.251,7.753 -3.899,14.49 -10.942,20.213c-7.044,5.722 -14.087,8.583 -21.131,8.583c-9.307,0 -13.835,-5.353 -13.584,-16.059l11.32,-300.142Zm-0.754,-73.097c-0.503,5.169 0.44,9.045 2.83,11.629c2.389,2.585 5.597,3.877 9.622,3.877c6.792,0 13.709,-2.769 20.753,-8.307c7.043,-5.537 10.942,-12.183 11.697,-19.935c2.012,-18.459 3.396,-32.303 4.151,-41.533c1.006,-9.229 -2.893,-13.844 -11.698,-13.844c-6.792,0 -13.835,2.769 -21.13,8.307c-7.295,5.537 -11.194,11.813 -11.697,18.828l-4.528,40.978Z" style="fill-rule:nonzero;"/><path d="M4289.68,428.275c3.774,1.845 5.66,5.168 5.66,9.967c0,5.907 -2.389,12.368 -7.169,19.382c-5.282,7.753 -12.074,11.629 -20.376,11.629c-4.024,0 -7.42,-0.738 -10.188,-2.215c-13.332,-6.276 -25.406,-9.414 -36.223,-9.414c-18.867,0 -38.11,8.86 -57.732,26.581c-3.27,3.322 -7.232,5.999 -11.885,8.03c-4.654,2.03 -8.993,3.045 -13.018,3.045c-3.774,0 -6.792,-1.015 -9.056,-3.045c-2.264,-2.031 -3.396,-5.261 -3.396,-9.691c0,-2.585 0.251,-4.8 0.754,-6.646c7.295,-29.903 13.144,-56.853 17.546,-80.849c4.402,-23.997 7.358,-48.363 8.868,-73.098c2.264,-33.226 3.395,-57.591 3.395,-73.097c0,-40.978 -5.408,-72.359 -16.225,-94.14c-1.257,-2.215 -1.886,-5.168 -1.886,-8.86c0,-7.384 3.521,-14.306 10.565,-20.767c7.043,-6.46 13.961,-9.69 20.753,-9.69c4.528,0 7.798,1.476 9.811,4.43c3.27,1.846 5.408,4.799 6.414,8.86c6.289,24.366 14.968,44.947 26.036,61.745c11.068,16.797 24.149,25.196 39.242,25.196c2.767,0 6.918,-0.738 12.452,-2.215c3.522,-0.738 5.786,-1.107 6.792,-1.107c4.276,0 7.484,1.384 9.622,4.153c2.138,2.769 3.207,6.553 3.207,11.352c0,5.169 -1.446,10.337 -4.339,15.506c-2.893,5.168 -6.729,8.86 -11.509,11.075c-10.313,5.168 -20.627,7.753 -30.941,7.753c-12.326,0 -24.149,-3.692 -35.469,-11.076c-0.503,20.674 -1.132,36.18 -1.886,46.517l-2.642,34.887c9.811,-2.584 19.622,-4.799 29.432,-6.645l5.283,-0.554c10.062,0 15.093,4.984 15.093,14.952c0,6.645 -2.516,12.552 -7.547,17.72c-5.031,5.169 -10.188,8.491 -15.47,9.968c-7.798,2.215 -18.489,4.615 -32.073,7.199c-2.767,18.09 -5.786,35.072 -9.056,50.946c16.602,-8.86 33.456,-13.29 50.562,-13.29c18.867,0 37.733,5.169 56.599,15.506Z" style="fill-rule:nonzero;"/><path d="M4453.07,170.773c-6.037,67.191 -9.056,130.504 -9.056,189.942c0,28.796 0.755,57.961 2.264,87.495c0.503,2.215 0.755,4.061 0.755,5.538c0,1.107 -0.252,2.769 -0.755,4.984c0,0.369 -0.063,0.553 -0.188,0.553l-0.189,0l0,1.108c-1.509,6.276 -5.031,11.721 -10.565,16.336c-5.534,4.615 -11.446,7.291 -17.735,8.03c-10.062,1.476 -16.099,-2.4 -18.112,-11.629c-8.804,-34.703 -22.765,-82.696 -41.883,-143.98l-4.528,-15.505c-2.013,46.147 -3.27,95.432 -3.773,147.855c0,7.753 -3.522,14.675 -10.566,20.767c-7.043,6.091 -14.212,9.137 -21.507,9.137c-4.528,0 -8.176,-1.292 -10.943,-3.877c-2.767,-2.584 -4.025,-6.829 -3.773,-12.736c1.509,-100.416 6.414,-195.48 14.716,-285.19l0.377,-2.215c-0.503,-8.122 2.893,-15.505 10.188,-22.15c7.295,-6.646 14.59,-9.968 21.885,-9.968c7.546,0 12.2,3.692 13.961,11.075c8.05,32.119 19.999,73.466 35.846,124.044c1.51,-34.703 4.151,-69.959 7.924,-105.77c0.755,-7.383 4.78,-13.936 12.075,-19.658c7.295,-5.723 14.464,-8.584 21.508,-8.584c9.056,0 13.08,4.8 12.074,14.398Z" style="fill-rule:nonzero;"/><path d="M4581.36,156.929c5.283,-0.738 9.371,0.185 12.263,2.769c2.893,2.584 5.975,7.568 9.245,14.952c2.012,4.799 3.019,8.86 3.019,12.182c0,8.122 -3.522,12.922 -10.566,14.398l-13.206,2.215c-12.326,2.585 -18.867,3.877 -19.621,3.877c-4.277,59.068 -7.673,110.384 -10.188,153.947c-2.516,43.563 -4.151,86.572 -4.905,129.027c-0.252,5.169 -1.698,9.045 -4.34,11.629c-2.641,2.585 -6.1,3.877 -10.376,3.877c-7.547,0 -15.031,-3.046 -22.451,-9.137c-7.421,-6.092 -11.006,-13.014 -10.754,-20.767c0.754,-39.132 2.264,-79.096 4.528,-119.89c2.264,-40.794 5.282,-88.141 9.056,-142.041l-23.772,4.43c-3.522,0.369 -6.226,0.092 -8.113,-0.831c-1.886,-0.922 -3.71,-3.045 -5.471,-6.368c-1.761,-3.322 -3.522,-7.014 -5.283,-11.075c-2.012,-4.061 -3.018,-8.122 -3.018,-12.183c0,-3.323 0.88,-6.276 2.641,-8.86c1.761,-2.585 4.402,-4.246 7.924,-4.984l38.488,-7.753l6.791,-95.801c0.755,-10.337 5.912,-15.506 15.471,-15.506c7.547,0 14.905,3.046 22.074,9.137c7.169,6.092 10.502,13.014 9.999,20.766l-4.905,74.205c7.043,-0.738 12.2,-1.477 15.47,-2.215Z" style="fill-rule:nonzero;"/><path d="M4617.58,189.047c0.251,-7.383 3.899,-13.936 10.942,-19.658c7.044,-5.722 14.087,-8.584 21.131,-8.584c4.025,0 7.295,1.2 9.81,3.6c2.516,2.4 3.648,6.184 3.396,11.352l-10.942,300.695c-0.252,7.753 -3.899,14.49 -10.943,20.213c-7.043,5.722 -14.087,8.583 -21.13,8.583c-9.308,0 -13.836,-5.353 -13.584,-16.059l11.32,-300.142Zm-0.755,-73.097c-0.503,5.169 0.44,9.045 2.83,11.629c2.39,2.585 5.597,3.877 9.622,3.877c6.792,0 13.71,-2.769 20.753,-8.307c7.044,-5.537 10.943,-12.183 11.697,-19.935c2.013,-18.459 3.396,-32.303 4.151,-41.533c1.006,-9.229 -2.893,-13.844 -11.697,-13.844c-6.792,0 -13.836,2.769 -21.131,8.307c-7.295,5.537 -11.194,11.813 -11.697,18.828l-4.528,40.978Z" style="fill-rule:nonzero;"/><path d="M4809.26,244.978c-4.779,-5.907 -13.018,-13.752 -24.715,-23.535c-11.697,-9.783 -20.69,-14.675 -26.979,-14.675c-5.031,0 -7.546,3.692 -7.546,11.075c0,2.585 0.628,7.015 1.886,13.291c1.761,8.491 5.66,16.52 11.697,24.089c6.038,7.568 13.962,16.336 23.772,26.303c8.05,8.122 13.207,13.66 15.471,16.613c11.068,14.029 19.872,25.751 26.413,35.165c6.54,9.414 12.514,20.489 17.923,33.226c5.408,12.736 8.112,25.75 8.112,39.04c0,8.86 -1.509,18.09 -4.527,27.688c-5.786,17.352 -15.282,30.642 -28.489,39.872c-13.206,9.229 -27.23,13.844 -42.072,13.844c-5.031,0 -10.062,-0.554 -15.093,-1.662c-34.211,-8.491 -65.781,-41.901 -94.71,-100.231c-1.509,-3.323 -2.264,-6.645 -2.264,-9.968c0,-8.122 3.71,-15.598 11.131,-22.428c7.421,-6.829 14.779,-10.244 22.074,-10.244c5.534,0 9.559,2.399 12.075,7.199c15.596,31.011 30.941,53.715 46.034,68.113c13.835,13.29 25.532,19.936 35.091,19.936c7.799,0 11.698,-4.984 11.698,-14.952c0,-7.015 -1.887,-15.69 -5.66,-26.027c-3.774,-9.968 -8.679,-19.382 -14.716,-28.242c-6.037,-8.861 -13.71,-19.013 -23.017,-30.457l-10.188,-12.737c-1.006,-1.477 -5.66,-6.83 -13.961,-16.059c-6.792,-7.384 -12.578,-14.214 -17.358,-20.49c-4.779,-6.276 -8.804,-13.105 -12.074,-20.489c-4.276,-9.968 -6.415,-20.305 -6.415,-31.011c0,-16.613 4.843,-31.841 14.528,-45.686c9.684,-13.844 20.816,-23.35 33.393,-28.519c8.05,-3.322 15.722,-4.983 23.017,-4.983c13.584,0 26.728,4.614 39.431,13.844c12.704,9.229 25.596,21.966 38.677,38.21c2.263,2.584 3.395,5.722 3.395,9.414c0,7.014 -3.899,13.844 -11.697,20.489c-7.798,6.645 -15.47,9.968 -23.017,9.968c-5.031,0 -8.804,-1.662 -11.32,-4.984Z" style="fill-rule:nonzero;"/><path d="M4968.12,156.929c5.283,-0.738 9.37,0.185 12.263,2.769c2.893,2.584 5.975,7.568 9.245,14.952c2.012,4.799 3.018,8.86 3.018,12.182c0,8.122 -3.521,12.922 -10.565,14.398l-13.206,2.215c-12.326,2.585 -18.867,3.877 -19.621,3.877c-4.277,59.068 -7.673,110.384 -10.188,153.947c-2.516,43.563 -4.151,86.572 -4.906,129.027c-0.251,5.169 -1.698,9.045 -4.339,11.629c-2.641,2.585 -6.1,3.877 -10.377,3.877c-7.546,0 -15.03,-3.046 -22.451,-9.137c-7.42,-6.092 -11.005,-13.014 -10.754,-20.767c0.755,-39.132 2.264,-79.096 4.528,-119.89c2.264,-40.794 5.283,-88.141 9.056,-142.041l-23.771,4.43c-3.522,0.369 -6.226,0.092 -8.113,-0.831c-1.887,-0.922 -3.71,-3.045 -5.471,-6.368c-1.761,-3.322 -3.522,-7.014 -5.283,-11.075c-2.012,-4.061 -3.019,-8.122 -3.019,-12.183c0,-3.323 0.881,-6.276 2.642,-8.86c1.761,-2.585 4.402,-4.246 7.924,-4.984l38.487,-7.753l6.792,-95.801c0.755,-10.337 5.912,-15.506 15.471,-15.506c7.546,0 14.904,3.046 22.074,9.137c7.169,6.092 10.502,13.014 9.999,20.766l-4.906,74.205c7.044,-0.738 12.201,-1.477 15.471,-2.215Z" style="fill-rule:nonzero;"/><path d="M1432.92,874.568c0.251,-7.384 3.899,-13.937 10.942,-19.659c7.044,-5.722 14.087,-8.583 21.131,-8.583c4.024,0 7.295,1.2 9.81,3.599c2.516,2.4 3.648,6.184 3.396,11.352l-10.942,300.695c-0.252,7.753 -3.9,14.491 -10.943,20.213c-7.044,5.722 -14.087,8.583 -21.13,8.583c-9.308,0 -13.836,-5.353 -13.584,-16.059l11.32,-300.141Zm-0.755,-73.097c-0.503,5.168 0.44,9.045 2.83,11.629c2.39,2.584 5.597,3.876 9.622,3.876c6.792,0 13.709,-2.769 20.753,-8.306c7.043,-5.538 10.942,-12.183 11.697,-19.936c2.013,-18.459 3.396,-32.303 4.151,-41.532c1.006,-9.23 -2.893,-13.845 -11.697,-13.845c-6.792,0 -13.836,2.769 -21.131,8.307c-7.295,5.538 -11.194,11.814 -11.697,18.828l-4.528,40.979Z" style="fill-rule:nonzero;"/><path d="M1635.17,856.294c-6.037,67.19 -9.056,130.504 -9.056,189.941c0,28.796 0.755,57.961 2.264,87.495c0.503,2.215 0.755,4.061 0.755,5.538c0,1.108 -0.252,2.769 -0.755,4.984c0,0.369 -0.063,0.554 -0.188,0.554l-0.189,0l0,1.107c-1.509,6.276 -5.031,11.722 -10.565,16.336c-5.534,4.615 -11.446,7.292 -17.735,8.03c-10.062,1.477 -16.099,-2.4 -18.112,-11.629c-8.804,-34.703 -22.765,-82.696 -41.883,-143.979l-4.528,-15.506c-2.013,46.147 -3.27,95.433 -3.773,147.856c0,7.753 -3.522,14.675 -10.566,20.766c-7.043,6.091 -14.212,9.137 -21.507,9.137c-4.528,0 -8.176,-1.292 -10.943,-3.876c-2.767,-2.584 -4.025,-6.83 -3.773,-12.737c1.509,-100.416 6.414,-195.479 14.716,-285.189l0.377,-2.215c-0.503,-8.122 2.893,-15.506 10.188,-22.151c7.295,-6.645 14.59,-9.968 21.885,-9.968c7.546,0 12.2,3.692 13.961,11.075c8.05,32.119 19.999,73.467 35.846,124.044c1.51,-34.703 4.151,-69.959 7.924,-105.769c0.755,-7.384 4.78,-13.937 12.075,-19.659c7.295,-5.722 14.464,-8.583 21.508,-8.583c9.056,0 13.08,4.799 12.074,14.398Z" style="fill-rule:nonzero;"/><path d="M1886.85,842.449c5.283,-0.738 9.37,0.185 12.263,2.769c2.893,2.584 5.975,7.568 9.245,14.952c2.012,4.799 3.018,8.86 3.018,12.183c0,8.122 -3.521,12.921 -10.565,14.398l-13.206,2.215c-12.326,2.584 -18.867,3.876 -19.621,3.876c-4.277,59.069 -7.673,110.384 -10.188,153.947c-2.516,43.563 -4.151,86.572 -4.906,129.028c-0.251,5.168 -1.698,9.045 -4.339,11.629c-2.641,2.584 -6.1,3.876 -10.377,3.876c-7.546,0 -15.03,-3.046 -22.451,-9.137c-7.42,-6.091 -11.005,-13.014 -10.754,-20.766c0.755,-39.133 2.264,-79.097 4.528,-119.891c2.264,-40.794 5.283,-88.141 9.056,-142.041l-23.771,4.43c-3.522,0.37 -6.226,0.093 -8.113,-0.83c-1.887,-0.923 -3.71,-3.046 -5.471,-6.369c-1.761,-3.322 -3.522,-7.014 -5.283,-11.075c-2.012,-4.061 -3.019,-8.122 -3.019,-12.183c0,-3.322 0.881,-6.276 2.642,-8.86c1.761,-2.584 4.402,-4.246 7.924,-4.984l38.487,-7.753l6.792,-95.801c0.755,-10.337 5.912,-15.506 15.471,-15.506c7.546,0 14.904,3.046 22.074,9.138c7.169,6.091 10.502,13.013 9.999,20.766l-4.906,74.204c7.044,-0.738 12.201,-1.476 15.471,-2.215Z" style="fill-rule:nonzero;"/><path d="M1994.01,874.014c0,-7.753 3.27,-14.398 9.81,-19.936c6.541,-5.537 13.332,-8.306 20.376,-8.306c4.276,0 7.672,1.2 10.188,3.599c2.515,2.4 3.647,6.184 3.396,11.353c-0.503,31.749 -1.006,79.742 -1.51,143.979l-1.886,144.533c-0.252,8.122 -3.711,15.136 -10.377,21.043c-6.666,5.907 -13.521,8.86 -20.564,8.86c-4.528,0 -8.113,-1.384 -10.754,-4.153c-2.641,-2.769 -3.962,-6.922 -3.962,-12.46l1.509,-90.817c-1.006,0.369 -2.515,0.553 -4.528,0.553l-7.546,-0.553c-1.761,-0.37 -4.402,-0.554 -7.924,-0.554c-1.761,0 -3.899,0.369 -6.415,1.107c-1.258,36.918 -3.018,68.298 -5.282,94.141c-0.504,7.752 -4.34,14.582 -11.509,20.489c-7.169,5.907 -14.276,8.86 -21.319,8.86c-4.276,0 -7.61,-1.292 -9.999,-3.876c-2.39,-2.584 -3.459,-6.461 -3.208,-11.629c3.774,-50.947 6.163,-97.463 7.17,-139.549l0.377,-16.613c0.755,-32.119 1.132,-53.346 1.132,-63.683c0,-33.226 -1.384,-53.716 -4.151,-61.468c-4.025,0.369 -7.106,-0.647 -9.244,-3.046c-2.138,-2.4 -3.208,-5.446 -3.208,-9.137c0,-3.692 1.007,-7.568 3.019,-11.629c2.013,-4.061 4.528,-7.384 7.547,-9.968c9.559,-7.753 17.734,-11.629 24.526,-11.629c5.534,0 10.44,2.584 14.716,7.752c6.54,8.122 9.811,25.105 9.811,50.947l-0.378,27.688c0.755,18.828 1.132,37.841 1.132,57.038l-0.377,32.672c1.509,-0.738 3.899,-0.738 7.169,0c3.27,0.739 5.786,1.108 7.547,1.108c1.761,0 3.773,-0.277 6.037,-0.831c2.264,-0.554 4.276,-1.015 6.037,-1.384l2.642,-154.501Z" style="fill-rule:nonzero;"/><path d="M2207.2,1113.8c3.773,1.846 5.66,5.168 5.66,9.968c0,5.906 -2.39,12.367 -7.17,19.381c-5.282,7.753 -12.074,11.63 -20.375,11.63c-4.025,0 -7.421,-0.739 -10.188,-2.216c-13.333,-6.276 -25.407,-9.414 -36.224,-9.414c-18.866,0 -38.11,8.861 -57.731,26.581c-3.27,3.323 -7.232,5.999 -11.886,8.03c-4.654,2.03 -8.993,3.046 -13.018,3.046c-3.773,0 -6.792,-1.016 -9.056,-3.046c-2.264,-2.031 -3.396,-5.261 -3.396,-9.691c0,-2.584 0.252,-4.799 0.755,-6.645c7.295,-29.904 13.143,-56.854 17.546,-80.85c4.402,-23.997 7.357,-48.362 8.867,-73.097c2.264,-33.226 3.396,-57.592 3.396,-73.097c0,-40.979 -5.409,-72.359 -16.225,-94.141c-1.258,-2.215 -1.887,-5.168 -1.887,-8.86c0,-7.383 3.522,-14.306 10.565,-20.766c7.044,-6.461 13.961,-9.691 20.753,-9.691c4.528,0 7.798,1.477 9.811,4.43c3.27,1.846 5.408,4.799 6.414,8.86c6.289,24.366 14.968,44.948 26.036,61.745c11.069,16.798 24.149,25.197 39.242,25.197c2.768,0 6.918,-0.739 12.452,-2.215c3.522,-0.739 5.786,-1.108 6.792,-1.108c4.277,0 7.484,1.384 9.622,4.153c2.138,2.769 3.207,6.553 3.207,11.352c0,5.169 -1.446,10.337 -4.339,15.506c-2.893,5.168 -6.729,8.86 -11.508,11.075c-10.314,5.169 -20.628,7.753 -30.941,7.753c-12.326,0 -24.149,-3.692 -35.469,-11.075c-0.503,20.674 -1.132,36.179 -1.887,46.516l-2.641,34.887c9.81,-2.584 19.621,-4.799 29.431,-6.645l5.283,-0.554c10.062,0 15.093,4.984 15.093,14.952c0,6.645 -2.515,12.552 -7.546,17.721c-5.031,5.168 -10.188,8.491 -15.471,9.967c-7.798,2.215 -18.489,4.615 -32.073,7.199c-2.767,18.09 -5.786,35.072 -9.056,50.947c16.603,-8.86 33.457,-13.291 50.562,-13.291c18.867,0 37.733,5.169 56.6,15.506Z" style="fill-rule:nonzero;"/><path d="M2481.9,985.875c4.025,2.215 8.552,5.353 13.584,9.414c-7.547,-39.871 -13.333,-73.836 -17.358,-101.893c-9.81,28.796 -22.765,63.868 -38.865,105.215c-1.257,4.061 -3.396,9.784 -6.414,17.167c10.062,-22.889 21.508,-34.333 34.337,-34.333c5.031,0 9.936,1.476 14.716,4.43Zm60.372,-78.635c10.314,51.316 22.514,99.124 36.601,143.425l4.151,12.183c3.522,8.861 6.163,16.336 7.924,22.428c1.761,6.091 2.641,12.275 2.641,18.551c0,9.599 -2.767,19.474 -8.301,29.627c-5.534,10.152 -11.571,17.628 -18.112,22.427c-4.025,3.323 -8.301,4.984 -12.829,4.984c-7.547,0 -15.03,-3.415 -22.451,-10.245c-7.421,-6.829 -16.288,-16.705 -26.602,-29.626c-7.295,-8.86 -12.829,-15.136 -16.602,-18.828c-2.516,-2.584 -7.799,-6.645 -15.848,-12.183c-14.087,-10.337 -24.967,-19.567 -32.639,-27.688c-7.673,-8.122 -11.509,-17.721 -11.509,-28.796c0,-2.954 0.881,-7.384 2.642,-13.291c-4.78,12.552 -11.446,31.75 -19.999,57.592c-10.565,31.38 -16.602,48.916 -18.112,52.608c-3.018,8.122 -7.924,17.074 -14.716,26.857c-6.792,9.784 -13.08,14.675 -18.866,14.675c-3.019,0 -5.66,-1.661 -7.924,-4.984c-1.761,-2.584 -2.641,-6.645 -2.641,-12.182c0,-15.506 8.049,-43.01 24.149,-82.512c1.006,-2.953 2.641,-7.199 4.905,-12.736l8.301,-23.258c17.106,-47.255 29.558,-82.881 37.356,-106.877c4.528,-14.029 11.068,-35.072 19.621,-63.13l13.584,-44.855c5.534,-17.351 11.068,-31.841 16.602,-43.47c5.535,-11.629 12.452,-20.582 20.754,-26.858c4.276,-3.323 8.301,-4.984 12.074,-4.984c5.031,0 8.679,3.415 10.943,10.245c2.264,6.83 4.276,16.89 6.037,30.18c4.528,38.025 10.817,78.266 18.866,120.721Z" style="fill-rule:nonzero;"/><path d="M2654.34,1127.09c2.264,2.215 4.025,5.169 5.283,8.86c1.258,3.692 1.887,7.569 1.887,11.63c0,3.322 -0.378,6.645 -1.132,9.967c-2.264,8.491 -7.924,16.429 -16.98,23.812c-8.805,7.015 -17.735,10.522 -26.791,10.522c-7.043,0 -12.577,-2.215 -16.602,-6.645c-3.27,-3.323 -4.905,-8.861 -4.905,-16.613c0,-5.169 1.006,-9.784 3.018,-13.844c4.528,-10.707 12.2,-18.459 23.017,-23.259l2.642,-1.661c6.288,-4.061 11.948,-6.276 16.979,-6.645l3.019,0c4.528,0 8.05,1.292 10.565,3.876Z" style="fill-rule:nonzero;"/><path d="M2707.84,790.949c-4.276,-4.43 -6.415,-11.444 -6.415,-21.043c0,-1.846 0.252,-4.984 0.755,-9.414c1.761,-11.075 5.22,-21.505 10.377,-31.288c5.156,-9.783 11.131,-17.628 17.923,-23.535c5.282,-4.43 10.565,-6.645 15.848,-6.645c5.534,0 9.81,2.769 12.829,8.306c2.264,4.431 3.396,9.784 3.396,16.06c0,5.537 -1.132,12.552 -3.396,21.043c-2.516,10.337 -6.352,19.751 -11.509,28.242c-5.157,8.491 -11.005,14.952 -17.546,19.382c-5.282,3.691 -9.936,4.984 -13.961,3.876c-3.773,-0.738 -6.54,-2.4 -8.301,-4.984Zm32.073,319.523c0,2.584 -0.315,5.538 -0.943,8.86c-0.629,3.323 -1.07,5.723 -1.321,7.199l-0.755,3.323c-2.515,13.66 -7.043,26.581 -13.584,38.764c-6.54,12.183 -14.715,18.274 -24.526,18.274c-1.006,0 -1.761,-0.185 -2.264,-0.554c-4.025,-0.738 -7.295,-2.953 -9.811,-6.645c-3.773,-6.645 -5.659,-16.982 -5.659,-31.011c0,-5.168 0.251,-11.075 0.754,-17.72c-0.251,-1.108 -0.314,-2.308 -0.188,-3.6c0.125,-1.292 0.188,-2.123 0.188,-2.492c0.755,-26.211 3.396,-61.837 7.924,-106.877l1.509,-17.166c2.516,-25.105 4.151,-43.933 4.906,-56.485l1.509,-24.919c0,-2.584 0.126,-4.615 0.377,-6.092c0.503,-5.168 0.629,-8.491 0.378,-9.967c-0.252,-0.37 -0.378,-0.831 -0.378,-1.385c0,-0.554 -0.125,-1.015 -0.377,-1.384c-1.509,-2.954 -2.264,-6.83 -2.264,-11.629c0,-5.907 0.377,-11.814 1.132,-17.721c0.252,-1.107 0.377,-2.953 0.377,-5.537c1.761,-16.983 6.667,-31.565 14.716,-43.748c8.301,-12.183 16.1,-18.274 23.395,-18.274c2.767,0 5.408,0.923 7.924,2.769c6.288,4.799 9.433,14.951 9.433,30.457c-0.503,10.337 -0.755,18.089 -0.755,23.258l-0.377,14.398l-1.132,30.457c-0.252,19.197 -1.006,38.764 -2.264,58.699c-0.252,7.384 -1.761,31.749 -4.528,73.097l-1.887,28.242l-2.264,30.458c-0.251,1.476 -0.314,2.676 -0.188,3.599c0.125,0.923 0.188,1.938 0.188,3.046c0.503,1.846 0.629,3.322 0.378,4.43l0.377,3.876Z" style="fill-rule:nonzero;"/><path d="M2802.72,1127.09c2.264,2.215 4.025,5.169 5.283,8.86c1.258,3.692 1.886,7.569 1.886,11.63c0,3.322 -0.377,6.645 -1.132,9.967c-2.264,8.491 -7.924,16.429 -16.979,23.812c-8.805,7.015 -17.735,10.522 -26.791,10.522c-7.043,0 -12.577,-2.215 -16.602,-6.645c-3.271,-3.323 -4.906,-8.861 -4.906,-16.613c0,-5.169 1.007,-9.784 3.019,-13.844c4.528,-10.707 12.2,-18.459 23.017,-23.259l2.641,-1.661c6.289,-4.061 11.949,-6.276 16.98,-6.645l3.019,0c4.528,0 8.05,1.292 10.565,3.876Z" style="fill-rule:nonzero;"/><path d="M3101.47,836.358c0.754,-7.014 4.905,-10.522 12.452,-10.522c5.031,0 10.439,1.662 16.225,4.984c5.786,3.323 10.565,7.845 14.338,13.568c3.774,5.722 5.283,11.536 4.528,17.443c-11.571,115.553 -32.324,222.614 -62.259,321.185c-2.013,6.645 -6.415,9.967 -13.207,9.967c-4.276,0 -9.307,-1.292 -15.093,-3.876c-15.345,-7.014 -25.847,-20.397 -31.507,-40.148c-5.66,-19.751 -9.119,-44.024 -10.376,-72.82l-0.755,-13.844c-9.056,28.057 -21.885,70.882 -38.488,128.473c-2.264,7.384 -6.917,11.076 -13.961,11.076c-5.031,0 -10.314,-1.846 -15.848,-5.538c-5.534,-3.692 -9.999,-8.306 -13.395,-13.844c-3.396,-5.538 -4.842,-11.26 -4.339,-17.167c3.27,-31.749 4.905,-68.852 4.905,-111.307c0,-19.566 -0.503,-48.547 -1.509,-86.941c-1.006,-38.395 -1.51,-67.006 -1.51,-85.834l0.378,-25.473c0.251,-5.169 1.698,-9.045 4.339,-11.629c2.641,-2.585 6.1,-3.877 10.377,-3.877c7.546,0 15.093,3.046 22.639,9.137c7.547,6.092 11.195,13.014 10.943,20.767l-0.377,29.349c0,21.782 0.503,54.454 1.509,98.017c10.817,-32.488 22.64,-64.422 35.469,-95.802c2.767,-6.645 7.924,-9.967 15.47,-9.967c7.296,0 14.402,2.953 21.32,8.86c6.917,5.907 10.502,12.921 10.753,21.043c0.252,5.538 0.378,14.029 0.378,25.473c0,9.968 -0.252,24.92 -0.755,44.855c-0.503,24.735 -0.629,43.194 -0.377,55.377l0,18.274c17.609,-75.312 30.186,-151.732 37.733,-229.259Z" style="fill-rule:nonzero;"/><path d="M3265.23,1053.99c5.786,-19.936 8.678,-40.425 8.678,-61.468c0,-16.613 -1.949,-31.842 -5.848,-45.686c-3.899,-13.844 -9.999,-25.196 -18.301,-34.056c-5.534,-5.907 -10.817,-8.861 -15.848,-8.861c-2.012,0 -4.528,0.739 -7.546,2.215c2.264,1.477 3.396,4.061 3.396,7.753c0,2.215 -0.503,4.8 -1.51,7.753c-5.785,16.244 -10.313,33.872 -13.583,52.885c-3.271,19.012 -4.906,38.117 -4.906,57.314c0,22.151 2.264,43.194 6.792,63.13c3.019,11.075 6.163,19.751 9.434,26.027c1.509,2.584 3.018,4.43 4.527,5.537c7.296,-7.383 13.899,-17.72 19.81,-31.01c5.912,-13.291 10.88,-27.135 14.905,-41.533Zm-5.283,-194.372c12.326,3.692 22.892,11.629 31.696,23.812c8.804,12.183 15.47,26.858 19.998,44.024c4.528,17.167 6.792,34.98 6.792,53.439c0,21.781 -2.893,44.117 -8.678,67.006c-5.786,22.889 -13.71,43.932 -23.772,63.129c-10.062,19.197 -21.256,34.334 -33.582,45.409c-11.572,10.337 -22.892,15.505 -33.96,15.505c-11.068,0 -20.753,-4.984 -29.054,-14.951c-8.302,-9.968 -14.339,-24.366 -18.112,-43.194c-4.277,-19.197 -6.415,-40.794 -6.415,-64.791c0,-14.398 0.755,-28.426 2.264,-42.086c-1.761,0.738 -4.402,1.107 -7.924,1.107c-8.553,0 -12.829,-4.245 -12.829,-12.736c0,-2.954 0.252,-5.353 0.755,-7.199c8.552,-35.072 21.445,-65.621 38.676,-91.648c17.231,-26.027 37.041,-39.041 59.429,-39.041c3.271,0 8.176,0.738 14.716,2.215Z" style="fill-rule:nonzero;"/><path d="M3402.58,975.353c9.81,-11.444 17.797,-21.597 23.96,-30.457c6.163,-8.86 10.88,-17.72 14.15,-26.581c-13.584,-5.168 -33.708,-13.659 -60.373,-25.473l-1.886,112.415c7.546,-9.23 11.948,-14.767 13.206,-16.613l10.943,-13.291Zm60.75,77.528c2.012,-5.907 6.289,-10.983 12.829,-15.229c6.54,-4.246 12.829,-6.368 18.866,-6.368c8.302,0 12.452,3.876 12.452,11.629c0,2.215 -0.377,4.799 -1.132,7.752c-10.313,35.442 -18.111,69.775 -23.394,103.001c-1.258,7.384 -4.905,14.213 -10.943,20.489c-2.515,4.8 -6.351,8.861 -11.508,12.183c-5.157,3.323 -10.251,4.984 -15.282,4.984c-4.276,0 -7.735,-1.292 -10.377,-3.876c-2.641,-2.584 -4.087,-6.645 -4.339,-12.183c-1.006,-23.997 -6.352,-45.963 -16.036,-65.898c-9.685,-19.936 -22.074,-32.857 -37.167,-38.764l-1.887,80.296c-0.252,7.015 -4.213,13.475 -11.886,19.382c-7.672,5.907 -15.03,8.86 -22.074,8.86c-3.773,0 -6.792,-1.015 -9.056,-3.045c-2.264,-2.031 -3.396,-5.261 -3.396,-9.691l1.132,-76.42c-3.27,-3.323 -4.905,-7.199 -4.905,-11.629c0,-5.169 1.887,-10.153 5.66,-14.952c1.258,-67.19 2.767,-134.196 4.528,-201.017c0.252,-7.753 3.836,-14.49 10.754,-20.213c6.918,-5.722 13.898,-8.583 20.942,-8.583c5.282,0 9.056,1.846 11.32,5.538c27.419,11.075 55.844,23.258 85.276,36.548c4.528,-1.476 7.672,-2.215 9.433,-2.215c4.277,0 7.61,1.385 10,4.154c2.389,2.768 3.584,6.922 3.584,12.459c0,15.137 -3.396,29.073 -10.188,41.81c-6.792,12.736 -16.225,26.857 -28.299,42.363l-7.547,9.968c-12.075,17.351 -23.772,32.672 -35.092,45.962c20.628,8.491 37.23,25.289 49.808,50.393c1.006,-3.692 3.647,-12.921 7.924,-27.688Z" style="fill-rule:nonzero;"/><path d="M3552,733.357c0.503,-7.014 4.528,-13.382 12.075,-19.105c7.546,-5.722 14.716,-8.583 21.508,-8.583c8.049,0 11.948,4.43 11.697,13.291c-4.025,66.082 -10.691,157.269 -19.999,273.56c-6.037,79.373 -9.936,130.873 -11.697,154.501c-0.503,7.753 -4.465,14.675 -11.886,20.766c-7.421,6.091 -14.653,9.137 -21.696,9.137c-9.811,0 -14.339,-5.353 -13.584,-16.059c8.804,-126.997 19.998,-269.5 33.582,-427.508Z" style="fill-rule:nonzero;"/><path d="M3645.96,1076.69c26.413,-29.903 47.166,-61.652 62.26,-95.247c-20.125,-8.861 -40.375,-26.766 -60.75,-53.716c-0.503,33.596 -1.007,83.25 -1.51,148.963Zm109.049,-125.704c1.76,1.845 2.641,4.245 2.641,7.199c0,2.584 -0.503,5.168 -1.509,7.752c-13.333,37.656 -30.942,71.067 -52.827,100.232c-21.885,29.165 -48.424,58.33 -79.616,87.495c-3.019,2.584 -6.415,4.892 -10.188,6.922c-3.773,2.031 -7.421,3.046 -10.943,3.046c-3.773,0 -7.043,-1.477 -9.81,-4.43c-3.019,-3.323 -4.528,-7.384 -4.528,-12.183c0,-6.276 2.39,-11.814 7.169,-16.613c0.503,-0.369 1.006,-0.923 1.509,-1.661c0.504,-0.739 1.258,-1.477 2.264,-2.216l1.51,-137.334c0.503,-29.903 1.006,-75.496 1.509,-136.78c-0.251,-0.738 -0.377,-2.03 -0.377,-3.876c0,-0.739 0.251,-2.584 0.754,-5.538l0,-6.091c0.252,-7.015 3.522,-13.014 9.811,-17.998c6.289,-4.984 12.955,-7.476 19.998,-7.476c4.78,0 8.616,1.293 11.509,3.877c2.893,2.584 4.339,6.645 4.339,12.183l0,5.537c30.438,61.653 63.643,99.309 99.615,112.969c3.774,1.846 6.163,3.507 7.17,4.984Z" style="fill-rule:nonzero;"/></g><g><path d="M2033.36,1788.31c0,-2.171 -0.739,-4.233 -2.215,-6.186c-1.477,-1.954 -3.446,-3.51 -5.907,-4.667c-3.118,-1.447 -6.563,-2.171 -10.337,-2.171c-1.641,0 -4.266,0.29 -7.876,0.868c-1.149,10.854 -1.969,23.082 -2.461,36.684c8.04,-3.473 14.849,-7.416 20.428,-11.83c5.578,-4.413 8.368,-8.646 8.368,-12.698Zm11.321,-27.567c5.251,1.736 9.558,4.522 12.921,8.357c3.364,3.835 5.046,8.067 5.046,12.698c0,2.894 -0.657,5.716 -1.969,8.466c-2.954,5.933 -7.712,11.359 -14.275,16.279c-6.563,4.921 -14.357,9.696 -23.381,14.327c-19.198,9.985 -36.098,15.267 -50.701,15.845c-2.625,0.145 -4.84,-0.361 -6.645,-1.519c-1.805,-1.158 -2.707,-2.677 -2.707,-4.558c0,-2.171 0.984,-4.125 2.953,-5.861c1.969,-1.737 4.512,-3.184 7.63,-4.341l0,-0.652c0,-28.507 3.61,-57.232 10.829,-86.174c0.656,-2.895 3.528,-5.463 8.614,-7.706c5.087,-2.243 9.927,-3.365 14.521,-3.365c2.626,0 4.635,0.471 6.03,1.411c1.395,0.941 1.846,2.352 1.354,4.233c-1.805,6.801 -3.364,14.254 -4.676,22.358c6.07,-2.894 11.116,-6.512 15.136,-10.854c4.02,-4.341 6.03,-8.972 6.03,-13.892c0,-6.801 -5.661,-10.202 -16.982,-10.202c-6.235,0 -12.06,0.869 -17.475,2.605c-3.445,1.013 -6.481,1.52 -9.106,1.52c-5.087,0 -7.63,-1.665 -7.63,-4.993c0,-3.039 2.954,-5.933 8.86,-8.683c5.087,-2.315 11.24,-4.232 18.459,-5.752c7.22,-1.519 14.275,-2.279 21.166,-2.279c9.517,0 17.188,1.7 23.012,5.101c5.825,3.401 8.738,8.864 8.738,16.388c0,7.091 -2.79,14.001 -8.368,20.73c-5.579,6.729 -12.716,12.698 -21.413,17.908c4.923,0.289 9.599,1.158 14.029,2.605Z" style="fill-rule:nonzero;"/><path d="M2121.96,1709.3c-0.328,-3.038 1.846,-5.752 6.522,-8.14c4.677,-2.387 9.312,-3.581 13.906,-3.581c5.087,0 7.876,1.519 8.368,4.558c3.61,23.154 6.399,43.051 8.368,59.693c1.969,16.642 2.954,33.139 2.954,49.491c0,21.996 -1.969,41.459 -5.907,58.39c-3.118,13.458 -7.63,25.542 -13.537,36.25c-5.907,10.709 -14.029,19.029 -24.365,24.963c-8.533,4.775 -17.147,7.163 -25.843,7.163c-8.04,0 -15.916,-1.845 -23.627,-5.535c-7.712,-3.691 -14.931,-8.719 -21.659,-15.086c-1.312,-1.448 -1.969,-2.678 -1.969,-3.691c0,-2.894 2.338,-5.607 7.015,-8.14c4.676,-2.532 9.393,-3.798 14.152,-3.798c3.281,0 5.824,0.796 7.629,2.388c0.821,0.723 2.79,2.532 5.907,5.426c3.118,2.894 6.358,5.354 9.722,7.38c3.363,2.026 6.44,3.039 9.229,3.039c1.477,0 2.543,-0.144 3.2,-0.434c3.117,-1.013 5.866,-3.401 8.245,-7.163c2.379,-3.762 4.307,-7.235 5.783,-10.419c1.477,-3.184 2.38,-5.137 2.708,-5.861c3.938,-8.682 6.809,-17.835 8.614,-27.459c1.805,-9.623 3.035,-20.367 3.692,-32.234c0.328,-9.261 0.492,-16.279 0.492,-21.055c-4.266,6.801 -9.271,12.12 -15.013,15.954c-5.743,3.835 -12.716,5.753 -20.92,5.753c-11.65,0 -19.239,-4.595 -22.766,-13.784c-3.528,-9.189 -5.374,-20.44 -5.538,-33.754l-0.246,-8.682c0,-22.575 2.625,-43.775 7.876,-63.6c0.656,-2.75 3.445,-5.21 8.368,-7.38c4.922,-2.171 9.598,-3.256 14.028,-3.256c2.298,0 4.102,0.434 5.415,1.302c1.313,0.868 1.805,2.098 1.477,3.69c-3.774,16.786 -6.153,34.948 -7.138,54.483c-0.328,6.078 -0.492,10.781 -0.492,14.11c0,5.499 0.41,11.649 1.231,18.45c0.984,6.078 2.133,10.419 3.445,13.024l1.969,3.473c1.149,-1.881 2.708,-4.703 4.677,-8.466c4.102,-9.261 7.383,-20.404 9.844,-33.427l2.215,-10.637c3.118,-12.879 4.677,-23.081 4.677,-30.606c0,-3.762 -0.164,-6.584 -0.493,-8.465l-2.215,-14.327Z" style="fill-rule:nonzero;"/><path d="M2353.07,1816.53c-0.82,0.869 -2.748,3.184 -5.783,6.946c-3.036,3.763 -6.317,6.983 -9.845,9.66c-3.528,2.677 -6.768,4.016 -9.722,4.016c-1.805,0 -3.527,-0.507 -5.168,-1.52c-1.477,-0.868 -2.544,-2.315 -3.2,-4.341c-0.656,-2.026 -1.312,-4.776 -1.969,-8.249c-0.984,-5.209 -2.256,-9.08 -3.815,-11.613c-1.558,-2.532 -4.225,-3.509 -7.998,-2.93c-2.462,0.434 -5.251,1.881 -8.368,4.341c-3.118,2.46 -5.907,4.848 -8.368,7.163c-2.462,2.316 -4.185,3.908 -5.169,4.776l-4.922,4.124c-2.462,2.315 -4.595,4.197 -6.399,5.644c-1.805,1.447 -3.774,2.605 -5.907,3.473c-2.461,1.013 -4.677,1.519 -6.645,1.519c-4.267,0 -6.4,-3.039 -6.4,-9.116c0,-3.039 0.329,-6.295 0.985,-9.768c0.656,-3.473 1.066,-5.499 1.231,-6.078c7.219,-48.333 13.044,-85.741 17.474,-112.223c1.805,-9.985 4.225,-18.74 7.26,-26.264c3.036,-7.525 8.081,-12.156 15.137,-13.893c1.64,-0.289 2.707,-0.434 3.199,-0.434c2.626,0 4.512,0.832 5.661,2.496c1.149,1.665 1.723,3.871 1.723,6.621c0,2.605 -0.492,5.282 -1.477,8.031c-0.984,2.75 -2.133,4.92 -3.446,6.512l0,2.822c0,2.171 -0.287,4.631 -0.861,7.38c-0.574,2.75 -0.943,4.703 -1.108,5.861l-4.43,28.219l-10.091,64.468c6.4,-5.065 12.388,-9.262 17.967,-12.59c5.579,-3.328 11.075,-4.993 16.49,-4.993c7.384,0 12.88,2.75 16.49,8.249c3.61,5.499 6.727,12.517 9.352,21.055c2.462,-2.315 4.759,-3.473 6.892,-3.473c1.477,0 2.625,0.579 3.445,1.737c0.821,1.157 1.231,2.604 1.231,4.341c0,3.184 -1.149,5.861 -3.446,8.031Z" style="fill-rule:nonzero;"/><path d="M2440.93,1716.9c0.164,-2.895 2.502,-5.463 7.014,-7.706c4.512,-2.243 9.065,-3.365 13.66,-3.365c2.625,0 4.758,0.471 6.399,1.411c1.64,0.941 2.379,2.424 2.215,4.45c-0.328,5.499 -0.493,9.913 -0.493,13.241c-0.82,18.812 -2.256,34.803 -4.307,47.971c-2.051,13.169 -6.604,25.542 -13.659,37.118c-7.056,11.577 -17.557,19.175 -31.503,22.792c-4.759,1.158 -9.271,1.737 -13.537,1.737c-10.501,0 -19.73,-2.75 -27.688,-8.249c-7.958,-5.499 -12.511,-12.951 -13.66,-22.357c-0.328,-3.763 -0.492,-6.585 -0.492,-8.466c0,-9.985 1.723,-20.187 5.169,-30.606c3.445,-10.419 8.45,-23.009 15.013,-37.769c1.969,-3.907 4.184,-8.9 6.645,-14.978c0.984,-2.46 3.487,-4.522 7.507,-6.186c4.02,-1.664 7.998,-2.496 11.936,-2.496c2.626,0 4.759,0.47 6.399,1.411c1.641,0.94 2.462,2.279 2.462,4.015c0,0.579 -0.165,1.447 -0.493,2.605c-3.281,8.393 -5.824,14.688 -7.629,18.885c-4.759,11.721 -8.45,21.525 -11.076,29.412c-2.625,7.887 -4.43,15.954 -5.414,24.203c-0.328,3.473 -0.492,6.222 -0.492,8.248c0,8.538 2.379,14.688 7.137,18.451c1.477,1.302 3.446,2.496 5.907,3.581c2.461,1.086 4.758,1.701 6.891,1.845l1.969,0.434c0.164,0 0.492,-0.217 0.985,-0.651c4.101,-2.315 7.424,-6.258 9.967,-11.83c2.544,-5.571 4.225,-10.527 5.046,-14.869c0.82,-4.341 1.969,-11.215 3.445,-20.621c1.149,-7.67 2.092,-16.063 2.831,-25.179c0.738,-9.117 1.353,-17.944 1.846,-26.482Z" style="fill-rule:nonzero;"/><path d="M2556.36,1745.99c0.656,-2.894 3.159,-5.354 7.507,-7.38c4.348,-2.026 8.655,-3.039 12.921,-3.039c5.579,0 8.04,1.881 7.383,5.644l-0.984,4.992c-2.461,12.301 -4.963,22.684 -7.507,31.149c-2.543,8.466 -6.399,16.678 -11.567,24.637c-5.169,7.959 -11.937,14.254 -20.305,18.885c-10.829,6.078 -21.904,9.116 -33.226,9.116c-6.727,0 -13.003,-1.23 -18.828,-3.69c-5.825,-2.46 -10.706,-6.295 -14.644,-11.504c-6.891,-8.972 -10.337,-19.247 -10.337,-30.823c0,-15.629 6.317,-33.718 18.951,-54.266c4.266,-7.091 8.737,-12.735 13.414,-16.932c4.676,-4.196 10.611,-6.368 17.597,-7.597c7.842,-1.379 16.368,1.581 19.269,7.259c2.639,5.163 8.214,14.231 1.159,27.689c-1.149,2.315 -3.815,4.269 -7.999,5.86c-4.184,1.592 -8.245,2.388 -12.183,2.388c-2.625,0 -4.758,-0.362 -6.399,-1.085c-1.641,-0.724 -2.461,-1.881 -2.461,-3.473c0,-1.013 0.328,-2.099 0.984,-3.256l3.692,-7.38c-0.82,-0.145 -1.559,-0.507 -2.215,-1.086l-4.922,10.202c-4.594,8.828 -7.63,17.655 -9.107,26.482c-0.492,2.75 -0.738,5.571 -0.738,8.466c0,6.222 1.067,12.083 3.2,17.582c2.133,5.499 5.496,9.913 10.09,13.241c3.774,2.894 7.466,4.341 11.076,4.341c14.439,0 26.498,-22.14 36.179,-66.422Z" style="fill-rule:nonzero;"/><path d="M2734.11,1700.69l0.492,-0.217l-0.492,0.217Zm37.114,71.997c1.477,-0.579 3.036,-0.868 4.677,-0.868c3.938,0 7.096,2.098 9.475,6.295c2.379,4.197 3.569,8.755 3.569,13.675c0,2.605 -0.41,4.848 -1.231,6.729c-2.461,5.644 -6.481,10.781 -12.059,15.412c-5.579,4.63 -12.306,9.333 -20.182,14.109c-7.712,4.486 -16.777,8.574 -27.196,12.264c-10.419,3.69 -20.059,5.535 -28.919,5.535c-13.291,0 -22.151,-4.631 -26.581,-13.892c-2.625,-5.21 -3.938,-11.794 -3.938,-19.753c0,-9.985 1.846,-20.295 5.538,-30.932c3.692,-10.636 8.737,-23.262 15.136,-37.877c6.399,-14.327 22.446,-43.743 31.307,-56.695c8.86,-12.951 18.623,-19.427 29.288,-19.427c2.789,0 5.332,0.506 7.629,1.519c1.805,-10.998 20.209,-16.281 23.163,-16.281c3.446,0 6.071,1.809 7.876,5.427c1.148,2.604 1.722,5.933 1.722,9.985c0,2.026 -0.164,4.775 -0.492,8.248l-0.246,6.512c-0.328,10.564 -1.094,8.539 -2.242,19.103c-0.985,9.551 -3.364,18.668 -7.138,27.35c-3.774,8.683 -9.762,13.386 -17.966,14.11c-4.102,0.434 -7.425,-1.448 -9.968,-5.644c-2.543,-4.197 -5.21,-10.347 -7.999,-18.451c-1.805,-5.209 -3.323,-9.153 -4.553,-11.83c-1.231,-2.677 -2.584,-4.667 -4.061,-5.969c-9.353,14.616 -24.661,46.384 -29.092,63.749l-1.23,4.341c-1.313,5.21 -2.338,9.515 -3.077,12.916c-0.738,3.4 -1.107,6.765 -1.107,10.093c0,7.38 2.133,12.445 6.399,15.195c2.953,2.17 7.137,3.256 12.552,3.256c3.61,0 7.548,-0.507 11.814,-1.52c4.266,-0.868 8.778,-2.243 13.536,-4.124c1.477,-0.579 3.692,-1.592 6.645,-3.039c1.313,-0.145 1.969,-0.579 1.969,-1.302c0,-0.579 -0.41,-1.158 -1.23,-1.737c0.328,-1.302 0.656,-3.111 0.984,-5.426c0.328,-2.171 0.738,-3.98 1.231,-5.427c0.492,-1.447 1.312,-2.967 2.461,-4.558c4.266,-5.499 8.778,-9.189 13.536,-11.071Z" style="fill-rule:nonzero;"/><path d="M2872.87,1787.23c3.774,-7.815 5.661,-15.846 5.661,-24.095c0,-6.511 -1.272,-12.481 -3.815,-17.907c-2.543,-5.427 -6.522,-9.877 -11.937,-13.35c-3.609,-2.315 -7.055,-3.473 -10.337,-3.473c-1.312,0 -2.953,0.29 -4.922,0.868c1.477,0.579 2.215,1.592 2.215,3.039c0,0.869 -0.328,1.882 -0.984,3.039c-3.774,6.367 -6.728,13.277 -8.861,20.73c-2.133,7.452 -3.199,14.941 -3.199,22.466c0,8.683 1.477,16.931 4.43,24.745c1.969,4.342 4.02,7.742 6.153,10.203c0.984,1.012 1.969,1.736 2.953,2.17c4.759,-2.894 9.066,-6.946 12.922,-12.155c3.855,-5.21 7.096,-10.637 9.721,-16.28Zm-3.445,-76.19c8.04,1.447 14.931,4.558 20.674,9.334c5.742,4.775 10.09,10.527 13.044,17.256c2.953,6.729 4.43,13.712 4.43,20.947c0,8.538 -1.887,17.293 -5.661,26.265c-3.774,8.972 -8.942,17.22 -15.505,24.745c-6.563,7.525 -13.865,13.458 -21.905,17.8c-7.547,4.052 -14.931,6.077 -22.15,6.077c-7.22,0 -13.537,-1.953 -18.951,-5.86c-5.415,-3.907 -9.353,-9.551 -11.814,-16.931c-2.79,-7.525 -4.184,-15.991 -4.184,-25.397c0,-5.644 0.492,-11.143 1.477,-16.497c-1.149,0.29 -2.872,0.434 -5.169,0.434c-5.579,0 -8.368,-1.664 -8.368,-4.992c0,-1.158 0.164,-2.098 0.492,-2.822c5.579,-13.747 13.988,-25.722 25.227,-35.924c11.24,-10.202 24.161,-15.303 38.764,-15.303c2.133,0 5.333,0.289 9.599,0.868Z" style="fill-rule:nonzero;"/><path d="M2989.78,1716.9c0.165,-2.895 2.503,-5.463 7.015,-7.706c4.512,-2.243 9.065,-3.365 13.659,-3.365c2.626,0 4.759,0.471 6.4,1.411c1.64,0.941 2.379,2.424 2.215,4.45c-0.329,5.499 -0.493,9.913 -0.493,13.241c-0.82,18.812 -2.256,34.803 -4.307,47.971c-2.051,13.169 -6.604,25.542 -13.659,37.118c-7.056,11.577 -17.557,19.175 -31.503,22.792c-4.759,1.158 -9.271,1.737 -13.537,1.737c-10.501,0 -19.73,-2.75 -27.688,-8.249c-7.958,-5.499 -12.511,-12.951 -13.66,-22.357c-0.328,-3.763 -0.492,-6.585 -0.492,-8.466c0,-9.985 1.723,-20.187 5.168,-30.606c3.446,-10.419 8.45,-23.009 15.014,-37.769c1.969,-3.907 4.184,-8.9 6.645,-14.978c0.984,-2.46 3.487,-4.522 7.506,-6.186c4.02,-1.664 7.999,-2.496 11.937,-2.496c2.625,0 4.758,0.47 6.399,1.411c1.641,0.94 2.461,2.279 2.461,4.015c0,0.579 -0.164,1.447 -0.492,2.605c-3.281,8.393 -5.825,14.688 -7.629,18.885c-4.759,11.721 -8.451,21.525 -11.076,29.412c-2.625,7.887 -4.43,15.954 -5.414,24.203c-0.329,3.473 -0.493,6.222 -0.493,8.248c0,8.538 2.38,14.688 7.138,18.451c1.477,1.302 3.445,2.496 5.907,3.581c2.461,1.086 4.758,1.701 6.891,1.845l1.969,0.434c0.164,0 0.492,-0.217 0.984,-0.651c4.102,-2.315 7.425,-6.258 9.968,-11.83c2.543,-5.571 4.225,-10.527 5.046,-14.869c0.82,-4.341 1.969,-11.215 3.445,-20.621c1.149,-7.67 2.092,-16.063 2.831,-25.179c0.738,-9.117 1.353,-17.944 1.845,-26.482Z" style="fill-rule:nonzero;"/><path d="M3101.02,1771.17c2.461,-5.499 3.692,-10.781 3.692,-15.846c0,-6.657 -2.133,-12.083 -6.399,-16.28c-6.399,-6.656 -17.147,-9.84 -32.242,-9.551c-2.953,22.865 -5.25,50.432 -6.891,82.702c9.352,-4.341 17.72,-10.093 25.104,-17.257c7.383,-7.163 12.962,-15.086 16.736,-23.768Zm-32.488,-58.608c1.805,-0.144 4.595,-0.217 8.368,-0.217c20.018,0 34.949,4.342 44.794,13.024c7.383,6.367 11.075,14.544 11.075,24.529c0,5.209 -1.312,11.432 -3.938,18.667c-5.414,13.603 -14.439,25.795 -27.073,36.576c-12.634,10.78 -27.073,18.993 -43.316,24.636c-0.657,14.761 -1.149,27.676 -1.477,38.746c-0.328,11.071 -0.574,20.296 -0.739,27.676c-0.164,17.655 -0.656,35.382 -1.476,53.181c-0.164,3.039 -2.626,5.716 -7.384,8.031c-4.758,2.316 -9.598,3.473 -14.521,3.473c-5.743,0 -8.614,-1.881 -8.614,-5.643l0.246,-17.365c0.164,-5.644 0.451,-19.247 0.862,-40.809c0.41,-21.561 1.107,-41.676 2.092,-60.344c-4.431,0.435 -8.779,0.652 -13.045,0.652c-3.117,0 -5.455,-0.435 -7.014,-1.303c-1.559,-0.868 -2.338,-2.026 -2.338,-3.473c0,-2.605 2.01,-5.354 6.03,-8.248c4.02,-2.894 8.081,-4.342 12.183,-4.342c2.297,0 3.937,-0.072 4.922,-0.217c1.805,-31.112 4.594,-60.995 8.368,-89.647c-1.149,-0.579 -1.723,-1.52 -1.723,-2.822c0,-1.737 1.067,-3.763 3.2,-6.078c0,-0.868 0.164,-2.315 0.492,-4.341c0.492,-3.039 3.117,-5.68 7.876,-7.923c4.758,-2.243 9.352,-3.365 13.782,-3.365c2.79,0 4.964,0.507 6.522,1.52c1.559,1.013 2.175,2.532 1.846,4.558l0,0.868Z" style="fill-rule:nonzero;"/><path d="M3180.03,1767.69l-1.969,4.341l17.228,12.807l-1.723,-6.295c-1.148,-4.052 -3.445,-12.662 -6.891,-25.831l-6.645,14.978Zm28.057,-63.383c2.298,12.59 5.21,25.36 8.738,38.312c3.527,12.951 7.834,27.82 12.921,44.607c4.758,15.918 7.876,26.482 9.352,31.691c0.164,0.434 0.246,1.085 0.246,1.954c0,3.473 -2.215,6.475 -6.645,9.008c-4.43,2.532 -9.024,3.799 -13.782,3.799c-3.938,0 -6.974,-0.941 -9.107,-2.822c-4.758,-4.486 -9.762,-8.755 -15.013,-12.807c-5.25,-4.052 -12.142,-9.045 -20.674,-14.978l-8.122,-5.86c-6.891,13.024 -12.224,22.647 -15.997,28.869c-1.149,2.171 -4.143,4.161 -8.984,5.97c-4.84,1.808 -9.311,2.713 -13.413,2.713c-4.594,0 -6.892,-1.303 -6.892,-3.907c0,-0.724 0.247,-1.592 0.739,-2.605c4.922,-10.709 10.747,-23.009 17.474,-36.901l5.169,-11.07c-4.102,-3.618 -6.153,-5.427 -6.153,-5.427c-1.149,-1.013 -1.723,-2.171 -1.723,-3.473c0,-2.46 1.805,-4.812 5.415,-7.055c3.609,-2.243 7.629,-3.726 12.059,-4.449c7.876,-16.642 15.26,-33.573 22.151,-50.794c0.656,-2.026 2.748,-3.798 6.276,-5.318c3.528,-1.519 7.26,-2.496 11.198,-2.93c2.79,-0.724 5.169,-1.085 7.138,-1.085c4.594,0 7.137,1.519 7.629,4.558Z" style="fill-rule:nonzero;"/><path d="M3275.76,1661.55c0.328,-2.749 2.953,-5.246 7.876,-7.489c4.922,-2.243 9.598,-3.364 14.029,-3.364c5.25,0 7.793,1.736 7.629,5.209c-2.625,25.904 -6.973,61.647 -13.044,107.23c-3.938,31.113 -6.481,51.3 -7.63,60.562c-0.328,3.038 -2.912,5.752 -7.752,8.139c-4.841,2.388 -9.558,3.582 -14.152,3.582c-6.399,0 -9.353,-2.098 -8.861,-6.295c5.743,-49.78 13.045,-105.638 21.905,-167.574Z" style="fill-rule:nonzero;"/></g></svg>