<?xml version="1.0" encoding="UTF-8" standalone="no"?><!DOCTYPE svg PUBLIC "-//W3C//DTD SVG 1.1//EN" "http://www.w3.org/Graphics/SVG/1.1/DTD/svg11.dtd"><svg width="100%" height="100%" viewBox="0 0 5021 1600" version="1.1" xmlns="http://www.w3.org/2000/svg" xmlns:xlink="http://www.w3.org/1999/xlink" xml:space="preserve" xmlns:serif="http://www.serif.com/" style="fill-rule:evenodd;clip-rule:evenodd;stroke-linejoin:round;stroke-miterlimit:2;"><rect id="Plan-de-travail1" serif:id="Plan de travail1" x="-2462.5" y="-8908.33" width="10000" height="16666.7" style="fill:none;"/><g id="Plan-de-travail11" serif:id="Plan de travail1"><g id="title-3" serif:id="title 3"><g id="ligne-et-signature" serif:id="ligne et signature"></g><g id="Plume-blanche" serif:id="Plume blanche"></g></g><g id="title-31" serif:id="title 3"><g><path d="M96.988,386.331c-2.284,0 -3.996,-1.237 -5.138,-3.71c-1.142,-2.474 -1.712,-5.423 -1.712,-8.848c0.253,-5.709 1.014,-9.134 2.283,-10.275c1.268,-1.142 3.679,-1.713 7.231,-1.713c7.357,0 12.812,-1.998 16.363,-5.994c3.552,-3.995 5.772,-8.943 6.66,-14.841c0.888,-5.899 1.459,-13.605 1.713,-23.119l-0,-272.287l-26.259,-0c-8.626,0.38 -15.285,3.139 -19.979,8.277c-4.693,5.137 -8.245,12.748 -10.655,22.833c-2.411,10.085 -4.504,24.451 -6.28,43.098c-0.253,3.044 -1.776,5.518 -4.566,7.421c-2.791,1.902 -5.709,2.854 -8.753,2.854c-2.283,-0 -4.376,-1.047 -6.279,-3.14c-1.903,-2.093 -2.854,-4.852 -2.854,-8.277l1.141,-80.487c0,-9.134 3.425,-13.7 10.275,-13.7l186.092,-0c6.596,-0 9.894,4.566 9.894,13.7l1.523,80.487c-0,3.425 -1.015,6.184 -3.045,8.277c-2.029,2.093 -4.186,3.14 -6.469,3.14c-3.045,-0 -5.899,-0.952 -8.563,-2.854c-2.664,-1.903 -4.122,-4.377 -4.376,-7.421c-2.03,-19.028 -4.186,-33.489 -6.47,-43.383c-2.283,-9.895 -5.835,-17.411 -10.655,-22.548c-4.821,-5.138 -11.544,-7.897 -20.17,-8.277l-25.877,-0l-0,272.287c0.253,9.514 0.824,17.22 1.712,23.119c0.888,5.898 3.108,10.846 6.66,14.841c3.552,3.996 9.006,5.994 16.364,5.994l2.283,0c2.283,0 3.996,0.666 5.138,1.998c1.141,1.332 1.839,4.662 2.093,9.99c-0,3.425 -0.571,6.374 -1.713,8.848c-1.142,2.473 -2.854,3.71 -5.137,3.71c-16.237,-1.142 -31.206,-1.712 -44.906,-1.712c-15.222,-0 -31.079,0.57 -47.569,1.712Z" style="fill-rule:nonzero;"/><path d="M258.841,385.848c-1.639,-0 -2.869,-0.888 -3.689,-2.664c-0.819,-1.776 -1.229,-3.893 -1.229,-6.352c0.182,-4.098 0.729,-6.557 1.639,-7.376c0.911,-0.82 2.004,-1.23 3.279,-1.23l2.459,0c5.464,0 9.471,-2.117 12.021,-6.352c2.549,-4.234 4.598,-9.015 6.147,-14.343c1.548,-5.327 2.595,-8.947 3.141,-10.86l47.811,-169.659c1.093,-4.098 1.639,-7.377 1.639,-9.836c0,-4.917 -1.275,-8.469 -3.824,-10.655c-2.55,-2.185 -6.102,-3.961 -10.655,-5.327c-3.097,-0.82 -5.009,-1.639 -5.738,-2.459c-0.728,-0.82 -1.093,-3.142 -1.093,-6.967c0,-3.278 0.592,-5.464 1.776,-6.557c1.184,-1.092 3.051,-1.639 5.601,-1.639c9.107,0 16.347,1.025 21.72,3.074c5.373,2.049 10.063,6.147 14.07,12.294c4.007,6.147 7.74,15.504 11.201,28.072l45.898,169.659c2.732,10.382 5.373,18.168 7.923,23.359c2.55,5.191 6.375,7.923 11.475,8.196l1.639,0c1.821,0 3.096,0.478 3.825,1.435c0.728,0.956 1.184,3.346 1.366,7.171c-0,2.459 -0.41,4.576 -1.23,6.352c-0.819,1.776 -2.049,2.664 -3.688,2.664c-11.656,-0.82 -21.674,-1.229 -30.052,-1.229c-10.928,-0 -22.221,0.409 -33.877,1.229c-1.64,-0 -2.869,-0.888 -3.689,-2.664c-0.819,-1.776 -1.229,-3.893 -1.229,-6.352c0.182,-3.825 0.637,-6.215 1.366,-7.171c0.728,-0.957 2.003,-1.435 3.825,-1.435c6.192,0 10.564,-0.888 13.113,-2.663c2.55,-1.776 3.825,-4.986 3.825,-9.631c0,-3.552 -1.092,-9.972 -3.278,-19.261l-9.289,-34.014l-67.481,0c-4.554,16.939 -7.149,26.774 -7.787,29.506c-0.637,2.732 -0.956,4.235 -0.956,4.508c-2.186,10.382 -3.278,17.075 -3.278,20.081c-0,4.644 1.366,7.718 4.098,9.22c2.732,1.503 7.923,2.254 15.572,2.254l1.64,0c1.821,0 3.096,0.478 3.824,1.435c0.729,0.956 1.184,3.346 1.366,7.171c0,2.459 -0.409,4.576 -1.229,6.352c-0.82,1.776 -2.049,2.664 -3.688,2.664c-11.657,-0.82 -21.583,-1.229 -29.779,-1.229c-5.829,-0 -14.662,0.409 -26.501,1.229Zm51.908,-100.812l57.373,-0l-27.593,-105.32l-0.82,-0l-28.96,105.32Z" style="fill-rule:nonzero;"/><path d="M441.068,385.848c-1.457,-0 -2.596,-0.888 -3.415,-2.664c-0.82,-1.776 -1.23,-3.893 -1.23,-6.352c0.182,-4.098 0.729,-6.557 1.64,-7.376c0.91,-0.82 2.64,-1.23 5.19,-1.23c5.282,0 9.198,-1.434 11.748,-4.303c2.55,-2.868 4.144,-6.42 4.781,-10.655c0.638,-4.234 1.047,-9.767 1.23,-16.597l-0,-162.693c-0.183,-6.83 -0.592,-12.362 -1.23,-16.597c-0.637,-4.234 -2.231,-7.786 -4.781,-10.655c-2.55,-2.868 -6.466,-4.303 -11.748,-4.303l-1.639,0c-1.821,0 -3.096,-0.478 -3.825,-1.434c-0.728,-0.956 -1.184,-3.347 -1.366,-7.172c0,-2.459 0.41,-4.576 1.23,-6.352c0.819,-1.775 1.958,-2.663 3.415,-2.663c12.021,0.819 22.858,1.229 32.511,1.229c10.928,0 22.312,-0.41 34.15,-1.229c1.64,-0 2.869,0.888 3.689,2.663c0.819,1.776 1.229,3.893 1.229,6.352c-0.182,4.098 -0.774,6.557 -1.776,7.377c-1.001,0.819 -2.686,1.229 -5.054,1.229c-5.282,0 -9.198,1.435 -11.748,4.303c-2.55,2.869 -4.143,6.421 -4.781,10.655c-0.637,4.235 -1.047,9.767 -1.229,16.597l-0,168.84c0.364,5.738 0.819,10.177 1.366,13.319c0.546,3.142 2.185,6.011 4.918,8.606c2.732,2.595 7.012,3.756 12.84,3.483l24.588,0c6.375,-0.273 11.202,-1.844 14.48,-4.712c3.279,-2.869 5.874,-7.309 7.787,-13.319c1.912,-6.011 4.234,-15.846 6.966,-29.506c1.275,-4.918 4.372,-6.83 9.289,-5.737c1.639,0.546 3.188,1.639 4.645,3.278c1.457,1.639 2.094,3.688 1.912,6.147l-5.464,51.636c-0.546,3.551 -1.366,5.873 -2.459,6.966c-1.093,1.093 -2.914,1.64 -5.464,1.64l-89.611,-0c-9.835,-0 -20.763,0.409 -32.784,1.229Z" style="fill-rule:nonzero;"/><path d="M597.067,385.848c-1.457,-0 -2.595,-0.888 -3.415,-2.664c-0.819,-1.776 -1.229,-3.893 -1.229,-6.352c0.182,-4.098 0.728,-6.557 1.639,-7.376c0.911,-0.82 2.641,-1.23 5.191,-1.23c5.282,0 9.198,-1.434 11.748,-4.303c2.549,-2.868 4.143,-6.42 4.781,-10.655c0.637,-4.234 1.047,-9.767 1.229,-16.597l0,-162.693c-0.182,-6.83 -0.592,-12.362 -1.229,-16.597c-0.638,-4.234 -2.232,-7.786 -4.781,-10.655c-2.55,-2.868 -6.466,-4.303 -11.748,-4.303l-1.639,0c-1.822,0 -3.097,-0.478 -3.825,-1.434c-0.729,-0.956 -1.184,-3.347 -1.366,-7.172c-0,-2.459 0.41,-4.576 1.229,-6.352c0.82,-1.775 1.958,-2.663 3.415,-2.663c12.021,0.819 22.858,1.229 32.511,1.229l85.786,0c4.736,0 7.104,3.278 7.104,9.835l0.819,57.373c0,2.459 -0.819,4.44 -2.458,5.942c-1.64,1.503 -3.279,2.254 -4.918,2.254c-2.186,0 -4.098,-0.614 -5.737,-1.844c-1.64,-1.229 -2.55,-3.073 -2.732,-5.532c-1.458,-13.387 -3.051,-23.564 -4.782,-30.531c-1.73,-6.966 -4.28,-12.157 -7.649,-15.572c-3.37,-3.415 -8.151,-5.26 -14.343,-5.533l-36.61,0l0,104.091l49.45,-0c1.275,0.273 2.277,1.298 3.005,3.073c0.729,1.776 1.093,3.894 1.093,6.352c0,2.186 -0.364,4.099 -1.093,5.738c-0.728,1.639 -1.73,2.459 -3.005,2.459l-49.45,-0l0,77.453c0.365,5.737 0.82,10.313 1.366,13.728c0.547,3.415 2.186,6.489 4.918,9.221c2.732,2.732 7.012,3.961 12.841,3.688l25.134,0c6.375,-0.273 11.202,-1.844 14.48,-4.712c3.279,-2.869 5.874,-7.309 7.786,-13.319c1.913,-6.011 4.235,-15.846 6.967,-29.506c1.275,-4.918 4.371,-6.83 9.289,-5.737c1.821,0.546 3.415,1.639 4.781,3.278c1.366,1.639 1.958,3.688 1.776,6.147l-5.464,51.636c-0.547,3.551 -1.366,5.873 -2.459,6.966c-1.093,1.093 -2.914,1.64 -5.464,1.64l-90.157,-0c-9.836,-0 -20.764,0.409 -32.785,1.229Z" style="fill-rule:nonzero;"/><path d="M815.357,392.815c-19.124,-0 -33.741,-4.986 -43.849,-14.958c-10.109,-9.972 -15.163,-24.657 -15.163,-44.054c0,-9.836 2.231,-17.964 6.694,-24.384c4.462,-6.42 10.245,-9.63 17.348,-9.63c4.189,0.273 7.377,1.844 9.562,4.712c2.186,2.869 3.279,5.533 3.279,7.992c-0,0.273 -0.911,1.229 -2.732,2.868c-1.822,1.64 -3.461,4.098 -4.918,7.377c-1.457,3.278 -2.186,7.786 -2.186,13.523c0,12.841 2.596,22.745 7.787,29.711c5.19,6.967 13.25,10.45 24.178,10.45c7.468,0 14.025,-2.185 19.671,-6.556c5.646,-4.372 9.972,-10.177 12.977,-17.417c3.005,-7.24 4.508,-14.822 4.508,-22.744c-0,-9.836 -1.867,-18.305 -5.601,-25.408c-3.734,-7.104 -8.333,-13.046 -13.797,-17.827c-5.464,-4.781 -12.931,-10.313 -22.402,-16.597c-10.929,-7.377 -19.762,-14.07 -26.501,-20.081c-6.739,-6.01 -12.476,-14.001 -17.212,-23.973c-4.736,-9.972 -7.103,-22.335 -7.103,-37.088c-0,-23.768 5.418,-41.527 16.255,-53.274c10.837,-11.748 25.09,-17.622 42.757,-17.622c13.842,-0 25.909,4.371 36.199,13.114c10.291,8.742 15.436,21.583 15.436,38.521c0,9.836 -2.231,17.964 -6.693,24.384c-4.463,6.42 -10.245,9.63 -17.349,9.63c-4.189,-0.273 -7.376,-1.844 -9.562,-4.712c-2.185,-2.869 -3.278,-5.533 -3.278,-7.992c-0,-0.273 1.229,-1.229 3.688,-2.868c2.459,-1.64 4.644,-4.098 6.557,-7.377c1.912,-3.278 2.869,-7.786 2.869,-13.523c-0,-10.109 -2.596,-18.032 -7.787,-23.769c-5.191,-5.737 -11.793,-8.606 -19.807,-8.606c-11.11,-0 -19.534,3.893 -25.271,11.679c-5.738,7.787 -8.606,17.417 -8.606,28.892c-0,9.562 1.73,17.553 5.191,23.973c3.46,6.421 9.015,12.773 16.665,19.056c6.193,4.918 12.932,9.836 20.217,14.753c11.657,7.923 20.9,15.163 27.73,21.72c6.83,6.557 12.568,15.163 17.212,25.818c4.645,10.655 6.967,23.905 6.967,39.751c-0,13.66 -2.869,26.023 -8.606,37.087c-5.737,11.065 -13.478,19.739 -23.222,26.023c-9.745,6.284 -20.445,9.426 -32.102,9.426Z" style="fill-rule:nonzero;"/><path d="M993.11,385.848c-1.457,-0 -2.595,-0.888 -3.415,-2.664c-0.819,-1.776 -1.229,-3.893 -1.229,-6.352c0.182,-4.098 0.728,-6.557 1.639,-7.376c0.911,-0.82 2.641,-1.23 5.191,-1.23c5.282,0 9.198,-1.434 11.748,-4.303c2.55,-2.868 4.143,-6.42 4.781,-10.655c0.637,-4.234 1.047,-9.767 1.229,-16.597l0,-162.693c-0.182,-6.83 -0.592,-12.362 -1.229,-16.597c-0.638,-4.234 -2.231,-7.786 -4.781,-10.655c-2.55,-2.868 -6.466,-4.303 -11.748,-4.303l-1.639,0c-1.822,0 -3.097,-0.478 -3.825,-1.434c-0.729,-0.956 -1.184,-3.347 -1.366,-7.172c-0,-2.459 0.41,-4.576 1.229,-6.352c0.82,-1.775 1.958,-2.663 3.415,-2.663c11.839,0.819 22.676,1.229 32.512,1.229l78.956,0c4.735,0 7.103,3.278 7.103,9.835l0.819,57.373c0,2.459 -0.819,4.44 -2.458,5.942c-1.64,1.503 -3.279,2.254 -4.918,2.254c-2.186,0 -4.144,-0.614 -5.874,-1.844c-1.73,-1.229 -2.686,-3.073 -2.869,-5.532c-1.275,-13.387 -2.777,-23.564 -4.507,-30.531c-1.731,-6.966 -4.281,-12.157 -7.65,-15.572c-3.37,-3.415 -8.151,-5.26 -14.343,-5.533l-29.78,0l0,106.55l48.904,-0c1.457,0.273 2.55,1.297 3.278,3.073c0.729,1.776 1.093,3.893 1.093,6.352c0,2.186 -0.364,4.098 -1.093,5.738c-0.728,1.639 -1.821,2.458 -3.278,2.458l-48.904,0l0,70.077c0.183,6.83 0.592,12.363 1.23,16.597c0.637,4.235 2.231,7.787 4.781,10.655c2.55,2.869 6.466,4.303 11.748,4.303l1.639,0c1.639,0 2.869,0.478 3.688,1.435c0.82,0.956 1.321,3.346 1.503,7.171c-0,2.459 -0.41,4.576 -1.23,6.352c-0.819,1.776 -2.049,2.664 -3.688,2.664c-11.657,-0.82 -22.949,-1.229 -33.877,-1.229c-10.018,-0 -20.946,0.409 -32.785,1.229Z" style="fill-rule:nonzero;"/><path d="M1133.26,385.848c-1.639,-0 -2.869,-0.888 -3.688,-2.664c-0.82,-1.776 -1.23,-3.893 -1.23,-6.352c0.182,-4.098 0.729,-6.557 1.639,-7.376c0.911,-0.82 2.641,-1.23 5.191,-1.23c5.282,0 9.198,-1.434 11.748,-4.303c2.55,-2.868 4.144,-6.42 4.781,-10.655c0.638,-4.234 1.047,-9.767 1.23,-16.597l-0,-162.283c-0.183,-7.103 -0.592,-12.704 -1.23,-16.802c-0.637,-4.098 -2.231,-7.65 -4.781,-10.655c-2.55,-3.005 -6.466,-4.508 -11.748,-4.508l-1.639,0c-1.821,0 -3.096,-0.478 -3.825,-1.434c-0.728,-0.956 -1.184,-3.347 -1.366,-7.172c0,-2.459 0.41,-4.576 1.23,-6.352c0.819,-1.775 2.049,-2.663 3.688,-2.663c11.839,0.819 22.676,1.229 32.511,1.229l46.991,0c14.025,0.273 25.727,3.62 35.107,10.04c9.38,6.421 16.256,14.617 20.627,24.589c4.371,9.972 6.557,20.695 6.557,32.169c-0,15.027 -3.962,28.823 -11.885,41.391c-7.923,12.567 -18.714,21.583 -32.374,27.047l4.644,11.065c7.65,18.578 14.571,34.492 20.764,47.742c6.192,13.25 12.931,25.613 20.217,37.088c5.1,6.283 10.564,9.971 16.392,11.064c0.364,0 1.184,0.069 2.459,0.205c1.275,0.137 2.322,0.888 3.142,2.254c0.819,1.366 1.229,3.415 1.229,6.147c0,2.459 -0.41,4.576 -1.229,6.352c-0.82,1.776 -2.049,2.664 -3.689,2.664l-7.103,-0.41c-8.014,-0.546 -13.842,-0.819 -17.485,-0.819c-7.285,-2.186 -13.524,-6.079 -18.714,-11.68c-5.191,-5.601 -10.337,-13.592 -15.436,-23.974c-5.282,-10.381 -12.659,-27.32 -22.13,-50.816l-4.918,-11.884c-2.732,-6.284 -5.373,-10.587 -7.923,-12.909c-2.549,-2.322 -6.921,-3.483 -13.113,-3.483l-7.923,-0l-0,66.798c0.182,6.83 0.592,12.363 1.229,16.597c0.638,4.235 2.231,7.787 4.781,10.655c2.55,2.869 6.466,4.303 11.748,4.303l1.639,0c1.639,0 2.869,0.478 3.689,1.435c0.819,0.956 1.32,3.346 1.502,7.171c0,2.459 -0.41,4.576 -1.229,6.352c-0.82,1.776 -2.049,2.664 -3.689,2.664c-11.656,-0.82 -23.04,-1.229 -34.15,-1.229c-9.653,-0 -20.399,0.409 -32.238,1.229Zm70.76,-131.958c27.138,0 40.707,-19.124 40.707,-57.372c0,-15.573 -3.552,-28.687 -10.655,-39.342c-7.103,-10.655 -18.76,-15.982 -34.97,-15.982c-5.282,-0 -9.289,0.956 -12.021,2.868c-2.732,1.913 -4.599,5.191 -5.601,9.836c-1.001,4.644 -1.502,11.748 -1.502,21.31l-0,78.682l24.042,0Z" style="fill-rule:nonzero;"/><path d="M1395.54,392.815c-17.303,-0 -32.557,-6.216 -45.762,-18.647c-13.205,-12.43 -23.404,-28.891 -30.599,-49.381c-7.194,-20.49 -10.791,-42.483 -10.791,-65.979c-0,-28.686 4.325,-53.684 12.977,-74.994c8.651,-21.31 19.716,-37.634 33.194,-48.972c13.478,-11.338 27.138,-17.007 40.981,-17.007c17.485,-0 32.921,6.215 46.308,18.646c13.387,12.431 23.677,28.823 30.872,49.177c7.194,20.353 10.791,42.278 10.791,65.774c0,28.686 -4.371,53.752 -13.113,75.199c-8.743,21.446 -19.944,37.839 -33.605,49.177c-13.66,11.338 -27.411,17.007 -41.253,17.007Zm-0.274,-18.032c12.386,0 22.722,-5.532 31.009,-16.597c8.287,-11.065 14.48,-25.954 18.578,-44.669c4.098,-18.714 6.147,-39.409 6.147,-62.085c0,-21.037 -2.094,-40.366 -6.284,-57.988c-4.189,-17.622 -10.472,-31.692 -18.851,-42.21c-8.378,-10.518 -18.578,-15.777 -30.599,-15.777c-18.213,-0 -31.919,11.542 -41.117,34.628c-9.198,23.086 -13.797,52.25 -13.797,87.494c0,21.31 2.05,40.844 6.148,58.602c4.098,17.758 10.245,31.965 18.441,42.62c8.196,10.655 18.305,15.982 30.325,15.982Z" style="fill-rule:nonzero;"/><path d="M1610.01,386.668c-2.732,-0 -4.645,-1.366 -5.738,-4.099l-61.47,-208.591l-0.82,0l0.546,162.693c0.183,7.377 0.547,13.046 1.093,17.007c0.547,3.962 2.049,7.377 4.508,10.245c2.459,2.869 6.329,4.303 11.611,4.303l1.639,0c1.822,0 3.142,0.478 3.962,1.435c0.82,0.956 1.32,3.346 1.503,7.171c-0,2.459 -0.41,4.576 -1.23,6.352c-0.82,1.776 -2.049,2.664 -3.688,2.664l-6.83,-0.41c-8.378,-0.546 -14.389,-0.819 -18.032,-0.819c-6.192,-0 -15.208,0.409 -27.047,1.229c-1.639,-0 -2.869,-0.888 -3.688,-2.664c-0.82,-1.776 -1.23,-3.893 -1.23,-6.352c0.183,-4.098 0.729,-6.557 1.64,-7.376c0.91,-0.82 2.641,-1.23 5.191,-1.23c5.281,0 9.152,-1.434 11.611,-4.303c2.459,-2.868 3.961,-6.283 4.508,-10.245c0.546,-3.961 0.91,-9.63 1.092,-17.007l0.547,-162.693c-0,-8.469 -0.638,-14.821 -1.913,-19.056c-1.275,-4.234 -3.141,-7.24 -5.6,-9.015c-2.459,-1.776 -6.056,-3.347 -10.792,-4.713c-0.728,-0.273 -1.821,-0.615 -3.278,-1.025c-1.457,-0.409 -2.414,-1.229 -2.869,-2.459c-0.455,-1.229 -0.683,-3.21 -0.683,-5.942c0,-3.278 0.592,-5.464 1.776,-6.557c1.184,-1.092 3.051,-1.639 5.601,-1.639c10.746,0 19.579,1.025 26.5,3.074c6.921,2.049 12.978,6.215 18.168,12.499c5.191,6.283 9.517,15.572 12.978,27.867l46.991,158.185l0.819,-0l53.821,-199.166l15.573,0c10.018,0 20.855,-0.41 32.511,-1.229c1.64,-0 2.869,0.888 3.689,2.663c0.819,1.776 1.229,3.893 1.229,6.352c-0.182,4.098 -0.774,6.557 -1.776,7.377c-1.002,0.819 -2.686,1.229 -5.054,1.229c-5.282,0 -9.198,1.435 -11.748,4.303c-2.55,2.869 -4.143,6.421 -4.781,10.655c-0.637,4.235 -1.047,9.767 -1.229,16.597l-0,162.693c0.182,6.83 0.592,12.363 1.229,16.597c0.638,4.235 2.231,7.787 4.781,10.655c2.55,2.869 6.466,4.303 11.748,4.303l1.639,0c1.639,0 2.869,0.478 3.688,1.435c0.82,0.956 1.321,3.346 1.503,7.171c-0,2.459 -0.41,4.576 -1.229,6.352c-0.82,1.776 -2.049,2.664 -3.689,2.664c-11.656,-0.82 -22.585,-1.229 -32.784,-1.229c-10.564,-0 -21.765,0.409 -33.604,1.229c-1.639,-0 -2.869,-0.888 -3.688,-2.664c-0.82,-1.776 -1.23,-3.893 -1.23,-6.352c0.182,-4.098 0.729,-6.557 1.639,-7.376c0.911,-0.82 2.641,-1.23 5.191,-1.23c5.282,0 9.198,-1.434 11.748,-4.303c2.55,-2.868 4.144,-6.42 4.781,-10.655c0.637,-4.234 1.047,-9.767 1.229,-16.597l0,-162.693l-0.819,0l-56.28,208.591c-0.729,2.733 -2.55,4.099 -5.464,4.099Z" style="fill-rule:nonzero;"/><path d="M1822.45,385.848c-1.639,-0 -2.869,-0.888 -3.688,-2.664c-0.82,-1.776 -1.23,-3.893 -1.23,-6.352c0.182,-4.098 0.729,-6.557 1.639,-7.376c0.911,-0.82 2.004,-1.23 3.279,-1.23l2.459,0c5.464,0 9.471,-2.117 12.021,-6.352c2.55,-4.234 4.599,-9.015 6.147,-14.343c1.548,-5.327 2.595,-8.947 3.142,-10.86l47.81,-169.659c1.093,-4.098 1.64,-7.377 1.64,-9.836c-0,-4.917 -1.275,-8.469 -3.825,-10.655c-2.55,-2.185 -6.102,-3.961 -10.655,-5.327c-3.097,-0.82 -5.009,-1.639 -5.738,-2.459c-0.728,-0.82 -1.092,-3.142 -1.092,-6.967c-0,-3.278 0.592,-5.464 1.775,-6.557c1.184,-1.092 3.051,-1.639 5.601,-1.639c9.107,0 16.347,1.025 21.72,3.074c5.373,2.049 10.063,6.147 14.07,12.294c4.007,6.147 7.741,15.504 11.201,28.072l45.898,169.659c2.732,10.382 5.373,18.168 7.923,23.359c2.55,5.191 6.375,7.923 11.475,8.196l1.639,0c1.821,0 3.096,0.478 3.825,1.435c0.729,0.956 1.184,3.346 1.366,7.171c0,2.459 -0.41,4.576 -1.229,6.352c-0.82,1.776 -2.049,2.664 -3.689,2.664c-11.656,-0.82 -21.674,-1.229 -30.052,-1.229c-10.928,-0 -22.221,0.409 -33.877,1.229c-1.64,-0 -2.869,-0.888 -3.689,-2.664c-0.819,-1.776 -1.229,-3.893 -1.229,-6.352c0.182,-3.825 0.637,-6.215 1.366,-7.171c0.729,-0.957 2.003,-1.435 3.825,-1.435c6.192,0 10.564,-0.888 13.114,-2.663c2.55,-1.776 3.824,-4.986 3.824,-9.631c0,-3.552 -1.092,-9.972 -3.278,-19.261l-9.289,-34.014l-67.481,0c-4.554,16.939 -7.149,26.774 -7.787,29.506c-0.637,2.732 -0.956,4.235 -0.956,4.508c-2.185,10.382 -3.278,17.075 -3.278,20.081c-0,4.644 1.366,7.718 4.098,9.22c2.732,1.503 7.923,2.254 15.572,2.254l1.64,0c1.821,0 3.096,0.478 3.825,1.435c0.728,0.956 1.183,3.346 1.366,7.171c-0,2.459 -0.41,4.576 -1.23,6.352c-0.819,1.776 -2.049,2.664 -3.688,2.664c-11.657,-0.82 -21.583,-1.229 -29.779,-1.229c-5.829,-0 -14.662,0.409 -26.501,1.229Zm51.909,-100.812l57.372,-0l-27.593,-105.32l-0.82,-0l-28.959,105.32Z" style="fill-rule:nonzero;"/><path d="M2181.89,392.815c-15.482,-0 -29.643,-5.533 -42.484,-16.597c-12.84,-11.065 -23.04,-26.843 -30.598,-47.333c-7.559,-20.49 -11.338,-44.396 -11.338,-71.716c-0,-27.594 3.642,-51.909 10.928,-72.946c7.285,-21.036 17.667,-37.36 31.145,-48.971c13.478,-11.612 29.233,-17.417 47.264,-17.417c15.664,-0 29.597,4.713 41.801,14.138c12.203,9.426 18.304,23.974 18.304,43.645c0.182,12.294 -2.276,22.744 -7.376,31.35c-5.1,8.606 -11.93,12.909 -20.491,12.909c-3.278,-0 -6.056,-0.888 -8.332,-2.664c-2.277,-1.776 -3.962,-3.893 -5.055,-6.352c-1.092,-2.459 -1.548,-4.371 -1.366,-5.737c0,-0.547 1.275,-2.049 3.825,-4.508c2.55,-2.459 4.827,-5.874 6.83,-10.245c2.004,-4.372 3.006,-9.699 3.006,-15.983c-0,-12.294 -2.778,-22.061 -8.333,-29.301c-5.555,-7.24 -13.251,-10.86 -23.086,-10.86c-11.11,0 -20.991,4.713 -29.642,14.138c-8.652,9.426 -15.391,23.223 -20.218,41.391c-4.826,18.168 -7.239,39.819 -7.239,64.954c-0,21.856 2.595,41.732 7.786,59.627c5.191,17.895 12.522,32.101 21.993,42.62c9.471,10.518 20.308,15.777 32.511,15.777c9.835,0 18.259,-3.073 25.271,-9.22c7.013,-6.148 13.342,-16.051 18.988,-29.711c0.911,-2.459 2.186,-3.689 3.825,-3.689c1.457,0 3.096,0.82 4.918,2.459c2.914,3.005 4.371,6.011 4.371,9.016c-0,1.639 -0.364,3.005 -1.093,4.098c-6.921,13.114 -13.433,23.017 -19.534,29.711c-6.102,6.693 -12.704,11.27 -19.807,13.728c-7.104,2.459 -16.028,3.689 -26.774,3.689Z" style="fill-rule:nonzero;"/><path d="M2358.65,392.815c-17.303,-0 -32.557,-6.216 -45.762,-18.647c-13.205,-12.43 -23.405,-28.891 -30.599,-49.381c-7.194,-20.49 -10.791,-42.483 -10.791,-65.979c-0,-28.686 4.325,-53.684 12.977,-74.994c8.651,-21.31 19.716,-37.634 33.194,-48.972c13.478,-11.338 27.138,-17.007 40.981,-17.007c17.485,-0 32.921,6.215 46.308,18.646c13.387,12.431 23.677,28.823 30.872,49.177c7.194,20.353 10.791,42.278 10.791,65.774c0,28.686 -4.371,53.752 -13.114,75.199c-8.742,21.446 -19.943,37.839 -33.604,49.177c-13.66,11.338 -27.411,17.007 -41.253,17.007Zm-0.274,-18.032c12.386,0 22.722,-5.532 31.009,-16.597c8.287,-11.065 14.48,-25.954 18.578,-44.669c4.098,-18.714 6.147,-39.409 6.147,-62.085c0,-21.037 -2.095,-40.366 -6.284,-57.988c-4.189,-17.622 -10.473,-31.692 -18.851,-42.21c-8.378,-10.518 -18.578,-15.777 -30.599,-15.777c-18.213,-0 -31.919,11.542 -41.117,34.628c-9.198,23.086 -13.797,52.25 -13.797,87.494c0,21.31 2.049,40.844 6.148,58.602c4.098,17.758 10.245,31.965 18.441,42.62c8.196,10.655 18.304,15.982 30.325,15.982Z" style="fill-rule:nonzero;"/><path d="M2573.12,386.668c-2.732,-0 -4.645,-1.366 -5.738,-4.099l-61.47,-208.591l-0.82,0l0.546,162.693c0.182,7.377 0.547,13.046 1.093,17.007c0.547,3.962 2.049,7.377 4.508,10.245c2.459,2.869 6.329,4.303 11.611,4.303l1.639,0c1.822,0 3.142,0.478 3.962,1.435c0.819,0.956 1.32,3.346 1.502,7.171c0,2.459 -0.409,4.576 -1.229,6.352c-0.82,1.776 -2.049,2.664 -3.688,2.664l-6.83,-0.41c-8.379,-0.546 -14.389,-0.819 -18.032,-0.819c-6.192,-0 -15.208,0.409 -27.047,1.229c-1.639,-0 -2.869,-0.888 -3.688,-2.664c-0.82,-1.776 -1.23,-3.893 -1.23,-6.352c0.183,-4.098 0.729,-6.557 1.64,-7.376c0.91,-0.82 2.641,-1.23 5.19,-1.23c5.282,0 9.153,-1.434 11.612,-4.303c2.458,-2.868 3.961,-6.283 4.508,-10.245c0.546,-3.961 0.91,-9.63 1.092,-17.007l0.547,-162.693c-0,-8.469 -0.638,-14.821 -1.913,-19.056c-1.275,-4.234 -3.142,-7.24 -5.6,-9.015c-2.459,-1.776 -6.056,-3.347 -10.792,-4.713c-0.728,-0.273 -1.821,-0.615 -3.278,-1.025c-1.457,-0.409 -2.414,-1.229 -2.869,-2.459c-0.455,-1.229 -0.683,-3.21 -0.683,-5.942c-0,-3.278 0.592,-5.464 1.776,-6.557c1.184,-1.092 3.051,-1.639 5.6,-1.639c10.746,0 19.58,1.025 26.501,3.074c6.921,2.049 12.977,6.215 18.168,12.499c5.191,6.283 9.517,15.572 12.977,27.867l46.992,158.185l0.819,-0l53.821,-199.166l15.573,0c10.017,0 20.855,-0.41 32.511,-1.229c1.639,-0 2.869,0.888 3.688,2.663c0.82,1.776 1.23,3.893 1.23,6.352c-0.182,4.098 -0.774,6.557 -1.776,7.377c-1.002,0.819 -2.686,1.229 -5.054,1.229c-5.282,0 -9.198,1.435 -11.748,4.303c-2.55,2.869 -4.144,6.421 -4.781,10.655c-0.638,4.235 -1.047,9.767 -1.229,16.597l-0,162.693c0.182,6.83 0.591,12.363 1.229,16.597c0.637,4.235 2.231,7.787 4.781,10.655c2.55,2.869 6.466,4.303 11.748,4.303l1.639,0c1.639,0 2.869,0.478 3.688,1.435c0.82,0.956 1.321,3.346 1.503,7.171c-0,2.459 -0.41,4.576 -1.23,6.352c-0.819,1.776 -2.049,2.664 -3.688,2.664c-11.656,-0.82 -22.585,-1.229 -32.784,-1.229c-10.564,-0 -21.765,0.409 -33.604,1.229c-1.64,-0 -2.869,-0.888 -3.689,-2.664c-0.819,-1.776 -1.229,-3.893 -1.229,-6.352c0.182,-4.098 0.729,-6.557 1.639,-7.376c0.911,-0.82 2.641,-1.23 5.191,-1.23c5.282,0 9.198,-1.434 11.748,-4.303c2.55,-2.868 4.143,-6.42 4.781,-10.655c0.637,-4.234 1.047,-9.767 1.229,-16.597l0,-162.693l-0.819,0l-56.28,208.591c-0.729,2.733 -2.55,4.099 -5.464,4.099Z" style="fill-rule:nonzero;"/><path d="M2715.46,385.848c-1.457,-0 -2.641,-0.888 -3.552,-2.664c-0.91,-1.776 -1.366,-3.893 -1.366,-6.352c0.182,-4.098 0.774,-6.557 1.776,-7.376c1.002,-0.82 2.778,-1.23 5.328,-1.23c5.281,0 9.197,-1.434 11.747,-4.303c2.55,-2.868 4.144,-6.42 4.781,-10.655c0.638,-4.234 1.048,-9.767 1.23,-16.597l-0,-162.693c-0.182,-6.83 -0.592,-12.362 -1.23,-16.597c-0.637,-4.234 -2.231,-7.786 -4.781,-10.655c-2.55,-2.868 -6.466,-4.303 -11.747,-4.303l-1.64,0c-1.821,0 -3.142,-0.478 -3.961,-1.434c-0.82,-0.956 -1.321,-3.347 -1.503,-7.172c0,-2.459 0.456,-4.576 1.366,-6.352c0.911,-1.775 2.095,-2.663 3.552,-2.663c11.839,0.819 22.767,1.229 32.784,1.229l40.981,0c15.846,0 31.191,4.918 46.035,14.753c14.844,9.835 22.266,29.506 22.266,59.012c-0,16.392 -3.279,31.009 -9.835,43.849c-6.557,12.841 -15.072,22.813 -25.545,29.916c-10.473,7.103 -21.355,10.655 -32.648,10.655c-10.382,0 -19.488,-2.186 -27.32,-6.557l-0,59.012c0.182,6.83 0.592,12.363 1.229,16.597c0.638,4.235 2.231,7.787 4.781,10.655c2.55,2.869 6.466,4.303 11.748,4.303l1.639,0c1.822,0 3.142,0.478 3.962,1.435c0.819,0.956 1.32,3.346 1.502,7.171c0,2.459 -0.409,4.576 -1.229,6.352c-0.82,1.776 -2.049,2.664 -3.688,2.664c-11.657,-0.82 -23.041,-1.229 -34.151,-1.229c-9.835,-0 -20.672,0.409 -32.511,1.229Zm66.115,-120.073c6.557,-0 13.342,-1.981 20.354,-5.942c7.012,-3.962 12.977,-10.792 17.895,-20.491c4.917,-9.698 7.376,-22.471 7.376,-38.317c0,-24.041 -5.099,-40.024 -15.299,-47.947c-10.2,-7.923 -21.037,-11.884 -32.511,-11.884c-4.736,-0 -8.288,0.751 -10.655,2.254c-2.368,1.502 -4.053,4.439 -5.055,8.811c-1.001,4.371 -1.502,11.201 -1.502,20.49l-0,88.518c4.371,3.005 10.837,4.508 19.397,4.508Z" style="fill-rule:nonzero;"/><path d="M2959.7,392.815c-14.024,-0 -26,-3.689 -35.926,-11.065c-9.927,-7.377 -17.44,-17.075 -22.539,-29.096c-5.1,-12.021 -7.65,-24.998 -7.65,-38.932l-0,-139.744c-0.182,-6.83 -0.592,-12.362 -1.23,-16.597c-0.637,-4.234 -2.231,-7.786 -4.781,-10.655c-2.55,-2.868 -6.465,-4.303 -11.747,-4.303l-1.64,0c-1.821,0 -3.096,-0.478 -3.824,-1.434c-0.729,-0.956 -1.184,-3.347 -1.366,-7.172c-0,-2.459 0.409,-4.576 1.229,-6.352c0.82,-1.775 2.049,-2.663 3.688,-2.663c11.657,0.819 22.403,1.229 32.238,1.229c11.111,0 22.494,-0.41 34.151,-1.229c1.639,-0 2.868,0.888 3.688,2.663c0.82,1.776 1.229,3.893 1.229,6.352c-0.182,3.825 -0.683,6.216 -1.502,7.172c-0.82,0.956 -2.14,1.434 -3.962,1.434c-5.828,0 -10.108,1.366 -12.84,4.098c-2.732,2.732 -4.417,6.147 -5.055,10.245c-0.637,4.099 -1.047,9.836 -1.229,17.212l0,127.86c0,18.851 2.96,34.697 8.879,47.537c5.92,12.841 17.44,19.261 34.56,19.261c16.757,0 28.641,-5.805 35.654,-17.417c7.012,-11.611 10.518,-26.159 10.518,-43.644l-0,-107.779c-0,-18.578 -0.455,-31.692 -1.366,-39.341c-0.911,-7.65 -2.732,-12.568 -5.464,-14.753c-2.732,-2.186 -7.468,-3.279 -14.207,-3.279l-1.639,0c-1.639,0 -2.869,-0.478 -3.688,-1.434c-0.82,-0.956 -1.321,-3.347 -1.503,-7.172c0,-2.459 0.41,-4.576 1.23,-6.352c0.819,-1.775 2.049,-2.663 3.688,-2.663c11.839,0.819 22.038,1.229 30.599,1.229c8.742,0 18.942,-0.41 30.598,-1.229c1.64,-0 2.869,0.888 3.689,2.663c0.819,1.776 1.229,3.893 1.229,6.352c-0.182,3.825 -0.683,6.216 -1.502,7.172c-0.82,0.956 -2.141,1.434 -3.962,1.434c-7.285,0 -12.34,0.956 -15.163,2.869c-2.823,1.912 -4.735,6.488 -5.737,13.728c-1.002,7.24 -1.503,20.013 -1.503,38.317l0,114.336c0,18.305 -3.369,33.536 -10.108,45.693c-6.739,12.158 -15.163,21.105 -25.272,26.843c-10.108,5.737 -20.262,8.606 -30.462,8.606Z" style="fill-rule:nonzero;"/><path d="M3107.23,385.848c-1.639,-0 -2.868,-0.888 -3.688,-2.664c-0.82,-1.776 -1.229,-3.893 -1.229,-6.352c0.182,-4.098 0.728,-6.557 1.639,-7.376c0.911,-0.82 2.641,-1.23 5.191,-1.23c5.282,0 9.198,-1.434 11.748,-4.303c2.549,-2.868 4.143,-6.42 4.781,-10.655c0.637,-4.234 1.047,-9.767 1.229,-16.597l-0,-195.477l-18.851,-0c-6.193,0.273 -10.974,2.254 -14.343,5.942c-3.37,3.688 -5.92,9.152 -7.65,16.392c-1.73,7.24 -3.233,17.554 -4.508,30.941c-0.182,2.185 -1.275,3.961 -3.278,5.327c-2.004,1.366 -4.098,2.049 -6.284,2.049c-1.639,0 -3.142,-0.751 -4.508,-2.254c-1.366,-1.502 -2.049,-3.483 -2.049,-5.942l0.82,-57.783c-0,-6.557 2.459,-9.835 7.376,-9.835l133.597,0c4.735,0 7.103,3.278 7.103,9.835l1.093,57.783c0,2.459 -0.728,4.44 -2.186,5.942c-1.457,1.503 -3.005,2.254 -4.644,2.254c-2.186,0 -4.235,-0.683 -6.147,-2.049c-1.913,-1.366 -2.96,-3.142 -3.142,-5.327c-1.457,-13.661 -3.005,-24.042 -4.644,-31.146c-1.64,-7.103 -4.19,-12.499 -7.65,-16.187c-3.461,-3.688 -8.287,-5.669 -14.48,-5.942l-18.578,-0l0,195.477c0.182,6.83 0.592,12.363 1.23,16.597c0.637,4.235 2.231,7.787 4.781,10.655c2.55,2.869 6.465,4.303 11.747,4.303l1.64,0c1.639,0 2.868,0.478 3.688,1.435c0.82,0.956 1.32,3.346 1.503,7.171c-0,2.459 -0.41,4.576 -1.23,6.352c-0.819,1.776 -2.049,2.664 -3.688,2.664c-11.657,-0.82 -22.403,-1.229 -32.238,-1.229c-10.928,-0 -22.312,0.409 -34.151,1.229Z" style="fill-rule:nonzero;"/><path d="M3235.36,385.848c-1.457,-0 -2.595,-0.888 -3.415,-2.664c-0.82,-1.776 -1.23,-3.893 -1.23,-6.352c0.183,-4.098 0.729,-6.557 1.64,-7.376c0.91,-0.82 2.641,-1.23 5.191,-1.23c5.282,0 9.197,-1.434 11.747,-4.303c2.55,-2.868 4.144,-6.42 4.781,-10.655c0.638,-4.234 1.048,-9.767 1.23,-16.597l-0,-162.693c-0.182,-6.83 -0.592,-12.362 -1.23,-16.597c-0.637,-4.234 -2.231,-7.786 -4.781,-10.655c-2.55,-2.868 -6.465,-4.303 -11.747,-4.303l-1.64,0c-1.821,0 -3.096,-0.478 -3.824,-1.434c-0.729,-0.956 -1.184,-3.347 -1.367,-7.172c0,-2.459 0.41,-4.576 1.23,-6.352c0.82,-1.775 1.958,-2.663 3.415,-2.663c12.021,0.819 22.858,1.229 32.511,1.229l85.786,0c4.736,0 7.104,3.278 7.104,9.835l0.819,57.373c0,2.459 -0.819,4.44 -2.459,5.942c-1.639,1.503 -3.278,2.254 -4.917,2.254c-2.186,0 -4.098,-0.614 -5.738,-1.844c-1.639,-1.229 -2.55,-3.073 -2.732,-5.532c-1.457,-13.387 -3.05,-23.564 -4.781,-30.531c-1.73,-6.966 -4.28,-12.157 -7.649,-15.572c-3.37,-3.415 -8.151,-5.26 -14.344,-5.533l-36.609,0l0,104.091l49.45,-0c1.275,0.273 2.277,1.298 3.005,3.073c0.729,1.776 1.093,3.894 1.093,6.352c-0,2.186 -0.364,4.099 -1.093,5.738c-0.728,1.639 -1.73,2.459 -3.005,2.459l-49.45,-0l0,77.453c0.364,5.737 0.82,10.313 1.366,13.728c0.546,3.415 2.186,6.489 4.918,9.221c2.732,2.732 7.012,3.961 12.84,3.688l25.135,0c6.375,-0.273 11.201,-1.844 14.48,-4.712c3.278,-2.869 5.874,-7.309 7.786,-13.319c1.913,-6.011 4.235,-15.846 6.967,-29.506c1.275,-4.918 4.371,-6.83 9.289,-5.737c1.821,0.546 3.415,1.639 4.781,3.278c1.366,1.639 1.958,3.688 1.776,6.147l-5.464,51.636c-0.547,3.551 -1.366,5.873 -2.459,6.966c-1.093,1.093 -2.914,1.64 -5.464,1.64l-90.158,-0c-9.835,-0 -20.763,0.409 -32.784,1.229Z" style="fill-rule:nonzero;"/><path d="M3397.92,385.848c-1.639,-0 -2.868,-0.888 -3.688,-2.664c-0.82,-1.776 -1.229,-3.893 -1.229,-6.352c0.182,-4.098 0.728,-6.557 1.639,-7.376c0.911,-0.82 2.641,-1.23 5.191,-1.23c5.282,0 9.198,-1.434 11.747,-4.303c2.55,-2.868 4.144,-6.42 4.782,-10.655c0.637,-4.234 1.047,-9.767 1.229,-16.597l-0,-162.283c-0.182,-7.103 -0.592,-12.704 -1.229,-16.802c-0.638,-4.098 -2.232,-7.65 -4.782,-10.655c-2.549,-3.005 -6.465,-4.508 -11.747,-4.508l-1.64,0c-1.821,0 -3.096,-0.478 -3.824,-1.434c-0.729,-0.956 -1.184,-3.347 -1.366,-7.172c-0,-2.459 0.409,-4.576 1.229,-6.352c0.82,-1.775 2.049,-2.663 3.688,-2.663c11.839,0.819 22.676,1.229 32.512,1.229l46.991,0c14.024,0.273 25.726,3.62 35.106,10.04c9.38,6.421 16.256,14.617 20.627,24.589c4.371,9.972 6.557,20.695 6.557,32.169c0,15.027 -3.961,28.823 -11.884,41.391c-7.923,12.567 -18.715,21.583 -32.375,27.047l4.645,11.065c7.649,18.578 14.57,34.492 20.763,47.742c6.193,13.25 12.932,25.613 20.217,37.088c5.1,6.283 10.564,9.971 16.392,11.064c0.365,0 1.184,0.069 2.459,0.205c1.275,0.137 2.322,0.888 3.142,2.254c0.82,1.366 1.229,3.415 1.229,6.147c0,2.459 -0.409,4.576 -1.229,6.352c-0.82,1.776 -2.049,2.664 -3.688,2.664l-7.104,-0.41c-8.013,-0.546 -13.842,-0.819 -17.485,-0.819c-7.285,-2.186 -13.523,-6.079 -18.714,-11.68c-5.191,-5.601 -10.336,-13.592 -15.436,-23.974c-5.282,-10.381 -12.659,-27.32 -22.13,-50.816l-4.917,-11.884c-2.732,-6.284 -5.373,-10.587 -7.923,-12.909c-2.55,-2.322 -6.921,-3.483 -13.114,-3.483l-7.923,-0l0,66.798c0.182,6.83 0.592,12.363 1.23,16.597c0.637,4.235 2.231,7.787 4.781,10.655c2.55,2.869 6.465,4.303 11.747,4.303l1.64,0c1.639,0 2.868,0.478 3.688,1.435c0.819,0.956 1.32,3.346 1.502,7.171c0,2.459 -0.409,4.576 -1.229,6.352c-0.82,1.776 -2.049,2.664 -3.688,2.664c-11.657,-0.82 -23.04,-1.229 -34.151,-1.229c-9.653,-0 -20.399,0.409 -32.238,1.229Zm70.76,-131.958c27.138,0 40.707,-19.124 40.707,-57.372c0,-15.573 -3.551,-28.687 -10.654,-39.342c-7.104,-10.655 -18.76,-15.982 -34.971,-15.982c-5.282,-0 -9.289,0.956 -12.021,2.868c-2.732,1.913 -4.598,5.191 -5.6,9.836c-1.002,4.644 -1.503,11.748 -1.503,21.31l0,78.682l24.042,0Z" style="fill-rule:nonzero;"/><path d="M3721.84,392.815c-19.125,-0 -33.741,-4.986 -43.85,-14.958c-10.108,-9.972 -15.162,-24.657 -15.162,-44.054c-0,-9.836 2.231,-17.964 6.693,-24.384c4.462,-6.42 10.245,-9.63 17.348,-9.63c4.19,0.273 7.377,1.844 9.563,4.712c2.185,2.869 3.278,5.533 3.278,7.992c0,0.273 -0.911,1.229 -2.732,2.868c-1.821,1.64 -3.461,4.098 -4.918,7.377c-1.457,3.278 -2.185,7.786 -2.185,13.523c-0,12.841 2.595,22.745 7.786,29.711c5.191,6.967 13.25,10.45 24.179,10.45c7.467,0 14.024,-2.185 19.67,-6.556c5.646,-4.372 9.972,-10.177 12.977,-17.417c3.006,-7.24 4.508,-14.822 4.508,-22.744c0,-9.836 -1.867,-18.305 -5.6,-25.408c-3.734,-7.104 -8.333,-13.046 -13.797,-17.827c-5.464,-4.781 -12.932,-10.313 -22.403,-16.597c-10.928,-7.377 -19.762,-14.07 -26.501,-20.081c-6.739,-6.01 -12.476,-14.001 -17.212,-23.973c-4.735,-9.972 -7.103,-22.335 -7.103,-37.088c0,-23.768 5.419,-41.527 16.256,-53.274c10.837,-11.748 25.089,-17.622 42.756,-17.622c13.843,-0 25.909,4.371 36.2,13.114c10.29,8.742 15.436,21.583 15.436,38.521c-0,9.836 -2.231,17.964 -6.694,24.384c-4.462,6.42 -10.245,9.63 -17.348,9.63c-4.189,-0.273 -7.377,-1.844 -9.562,-4.712c-2.186,-2.869 -3.279,-5.533 -3.279,-7.992c0,-0.273 1.23,-1.229 3.689,-2.868c2.458,-1.64 4.644,-4.098 6.556,-7.377c1.913,-3.278 2.869,-7.786 2.869,-13.523c0,-10.109 -2.595,-18.032 -7.786,-23.769c-5.191,-5.737 -11.794,-8.606 -19.808,-8.606c-11.11,-0 -19.534,3.893 -25.271,11.679c-5.737,7.787 -8.606,17.417 -8.606,28.892c0,9.562 1.73,17.553 5.191,23.973c3.461,6.421 9.016,12.773 16.665,19.056c6.193,4.918 12.932,9.836 20.218,14.753c11.656,7.923 20.9,15.163 27.73,21.72c6.83,6.557 12.567,15.163 17.212,25.818c4.644,10.655 6.966,23.905 6.966,39.751c0,13.66 -2.868,26.023 -8.606,37.087c-5.737,11.065 -13.478,19.739 -23.222,26.023c-9.744,6.284 -20.445,9.426 -32.101,9.426Z" style="fill-rule:nonzero;"/><path d="M3896.14,392.815c-15.482,-0 -29.643,-5.533 -42.484,-16.597c-12.84,-11.065 -23.04,-26.843 -30.598,-47.333c-7.559,-20.49 -11.338,-44.396 -11.338,-71.716c-0,-27.594 3.642,-51.909 10.928,-72.946c7.285,-21.036 17.667,-37.36 31.145,-48.971c13.478,-11.612 29.233,-17.417 47.264,-17.417c15.664,-0 29.597,4.713 41.801,14.138c12.203,9.426 18.304,23.974 18.304,43.645c0.182,12.294 -2.276,22.744 -7.376,31.35c-5.1,8.606 -11.93,12.909 -20.491,12.909c-3.278,-0 -6.056,-0.888 -8.332,-2.664c-2.277,-1.776 -3.962,-3.893 -5.055,-6.352c-1.092,-2.459 -1.548,-4.371 -1.366,-5.737c0,-0.547 1.275,-2.049 3.825,-4.508c2.55,-2.459 4.827,-5.874 6.83,-10.245c2.004,-4.372 3.006,-9.699 3.006,-15.983c-0,-12.294 -2.778,-22.061 -8.333,-29.301c-5.555,-7.24 -13.251,-10.86 -23.086,-10.86c-11.11,0 -20.991,4.713 -29.642,14.138c-8.652,9.426 -15.391,23.223 -20.218,41.391c-4.826,18.168 -7.239,39.819 -7.239,64.954c-0,21.856 2.595,41.732 7.786,59.627c5.191,17.895 12.522,32.101 21.993,42.62c9.471,10.518 20.308,15.777 32.511,15.777c9.835,0 18.259,-3.073 25.271,-9.22c7.013,-6.148 13.342,-16.051 18.988,-29.711c0.911,-2.459 2.186,-3.689 3.825,-3.689c1.457,0 3.096,0.82 4.918,2.459c2.914,3.005 4.371,6.011 4.371,9.016c-0,1.639 -0.364,3.005 -1.093,4.098c-6.921,13.114 -13.432,23.017 -19.534,29.711c-6.102,6.693 -12.704,11.27 -19.807,13.728c-7.104,2.459 -16.028,3.689 -26.774,3.689Z" style="fill-rule:nonzero;"/><path d="M3987.94,385.848c-1.639,-0 -2.868,-0.888 -3.688,-2.664c-0.82,-1.776 -1.229,-3.893 -1.229,-6.352c0.182,-4.098 0.774,-6.557 1.775,-7.376c1.002,-0.82 2.687,-1.23 5.055,-1.23c5.282,0 9.197,-1.434 11.747,-4.303c2.55,-2.868 4.19,-6.352 4.918,-10.45c0.729,-4.098 1.184,-9.698 1.366,-16.802l0,-162.693c-0.182,-7.103 -0.637,-12.704 -1.366,-16.802c-0.728,-4.098 -2.368,-7.581 -4.918,-10.45c-2.55,-2.868 -6.465,-4.303 -11.747,-4.303l-1.64,0c-1.639,0 -2.868,-0.478 -3.688,-1.434c-0.819,-0.956 -1.32,-3.347 -1.502,-7.172c-0,-2.459 0.409,-4.576 1.229,-6.352c0.82,-1.775 2.049,-2.663 3.688,-2.663c11.839,0.819 22.676,1.229 32.511,1.229c10.929,0 22.312,-0.41 34.151,-1.229c1.639,-0 2.869,0.888 3.688,2.663c0.82,1.776 1.23,3.893 1.23,6.352c-0.183,4.098 -0.774,6.557 -1.776,7.377c-1.002,0.819 -2.778,1.229 -5.328,1.229c-5.282,0 -9.198,1.435 -11.747,4.303c-2.55,2.869 -4.144,6.421 -4.782,10.655c-0.637,4.235 -1.047,9.767 -1.229,16.597l0,162.693c0.182,6.83 0.592,12.363 1.229,16.597c0.638,4.235 2.232,7.787 4.782,10.655c2.549,2.869 6.465,4.303 11.747,4.303l1.64,0c1.821,0 3.141,0.478 3.961,1.435c0.82,0.956 1.32,3.346 1.503,7.171c-0,2.459 -0.41,4.576 -1.23,6.352c-0.819,1.776 -2.049,2.664 -3.688,2.664c-11.657,-0.82 -22.949,-1.229 -33.877,-1.229c-10.018,-0 -20.946,0.409 -32.785,1.229Z" style="fill-rule:nonzero;"/><path d="M4087.38,385.848c-1.457,-0 -2.595,-0.888 -3.415,-2.664c-0.819,-1.776 -1.229,-3.893 -1.229,-6.352c0.182,-4.098 0.728,-6.557 1.639,-7.376c0.911,-0.82 2.641,-1.23 5.191,-1.23c5.282,0 9.198,-1.434 11.748,-4.303c2.55,-2.868 4.143,-6.42 4.781,-10.655c0.637,-4.234 1.047,-9.767 1.229,-16.597l0,-162.693c-0.182,-6.83 -0.592,-12.362 -1.229,-16.597c-0.638,-4.234 -2.231,-7.786 -4.781,-10.655c-2.55,-2.868 -6.466,-4.303 -11.748,-4.303l-1.639,0c-1.822,0 -3.096,-0.478 -3.825,-1.434c-0.729,-0.956 -1.184,-3.347 -1.366,-7.172c-0,-2.459 0.41,-4.576 1.229,-6.352c0.82,-1.775 1.958,-2.663 3.415,-2.663c12.021,0.819 22.858,1.229 32.512,1.229l85.786,0c4.735,0 7.103,3.278 7.103,9.835l0.82,57.373c-0,2.459 -0.82,4.44 -2.459,5.942c-1.639,1.503 -3.279,2.254 -4.918,2.254c-2.186,0 -4.098,-0.614 -5.737,-1.844c-1.639,-1.229 -2.55,-3.073 -2.732,-5.532c-1.457,-13.387 -3.051,-23.564 -4.781,-30.531c-1.731,-6.966 -4.28,-12.157 -7.65,-15.572c-3.369,-3.415 -8.151,-5.26 -14.343,-5.533l-36.61,0l0,104.091l49.45,-0c1.275,0.273 2.277,1.298 3.006,3.073c0.728,1.776 1.092,3.894 1.092,6.352c0,2.186 -0.364,4.099 -1.092,5.738c-0.729,1.639 -1.731,2.459 -3.006,2.459l-49.45,-0l0,77.453c0.365,5.737 0.82,10.313 1.367,13.728c0.546,3.415 2.185,6.489 4.917,9.221c2.732,2.732 7.012,3.961 12.841,3.688l25.135,0c6.374,-0.273 11.201,-1.844 14.479,-4.712c3.279,-2.869 5.874,-7.309 7.787,-13.319c1.912,-6.011 4.234,-15.846 6.966,-29.506c1.275,-4.918 4.372,-6.83 9.289,-5.737c1.822,0.546 3.415,1.639 4.781,3.278c1.366,1.639 1.958,3.688 1.776,6.147l-5.464,51.636c-0.546,3.551 -1.366,5.873 -2.459,6.966c-1.093,1.093 -2.914,1.64 -5.464,1.64l-90.157,-0c-9.835,-0 -20.764,0.409 -32.785,1.229Z" style="fill-rule:nonzero;"/><path d="M4250.21,385.848c-1.639,-0 -2.869,-0.888 -3.688,-2.664c-0.82,-1.776 -1.23,-3.893 -1.23,-6.352c0.182,-4.098 0.729,-6.557 1.64,-7.376c0.91,-0.82 2.64,-1.23 5.19,-1.23c5.282,0 9.153,-1.434 11.612,-4.303c2.458,-2.868 3.961,-6.283 4.507,-10.245c0.547,-3.961 0.911,-9.63 1.093,-17.007l0.547,-162.693c-0,-8.196 -0.592,-14.411 -1.776,-18.646c-1.184,-4.235 -3.051,-7.308 -5.601,-9.22c-2.55,-1.913 -6.192,-3.552 -10.928,-4.918c-3.096,-0.82 -5.009,-1.639 -5.737,-2.459c-0.729,-0.82 -1.093,-3.142 -1.093,-6.967c-0,-3.278 0.592,-5.464 1.776,-6.557c1.184,-1.092 3.05,-1.639 5.6,-1.639c11.293,0 20.217,1.161 26.774,3.484c6.557,2.322 12.34,6.488 17.349,12.499c5.009,6.01 10.518,15.162 16.529,27.457l74.858,147.53l0.819,-0l-0.546,-140.564c-0.182,-7.376 -0.547,-13.045 -1.093,-17.007c-0.547,-3.961 -2.049,-7.376 -4.508,-10.245c-2.459,-2.868 -6.329,-4.303 -11.611,-4.303l-1.639,0c-1.822,0 -3.142,-0.478 -3.962,-1.434c-0.819,-0.956 -1.32,-3.347 -1.502,-7.172c-0,-2.459 0.455,-4.576 1.366,-6.352c0.91,-1.775 2.094,-2.663 3.551,-2.663c11.657,0.819 20.399,1.229 26.228,1.229c3.46,0 10.108,-0.273 19.944,-0.82l5.737,-0.409c1.639,-0 2.869,0.888 3.688,2.663c0.82,1.776 1.23,3.893 1.23,6.352c-0.182,4.098 -0.729,6.557 -1.64,7.377c-0.91,0.819 -2.641,1.229 -5.19,1.229c-5.282,0 -9.153,1.435 -11.612,4.303c-2.458,2.869 -3.961,6.284 -4.507,10.245c-0.547,3.962 -0.911,9.631 -1.093,17.007l-0.547,206.542c-0.182,3.552 -2.459,5.328 -6.83,5.328c-3.46,-0 -6.101,-1.776 -7.923,-5.328l-102.998,-206.542l-0.819,0l0.546,162.693c0.182,7.377 0.547,13.046 1.093,17.007c0.546,3.962 2.049,7.377 4.508,10.245c2.459,2.869 6.329,4.303 11.611,4.303l1.639,0c1.822,0 3.142,0.478 3.962,1.435c0.819,0.956 1.32,3.346 1.502,7.171c0,2.459 -0.409,4.576 -1.229,6.352c-0.82,1.776 -2.049,2.664 -3.688,2.664c-11.657,-0.82 -20.491,-1.229 -26.501,-1.229c-3.643,-0 -10.018,0.273 -19.124,0.819l-6.284,0.41Z" style="fill-rule:nonzero;"/><path d="M4480.25,385.848c-1.64,-0 -2.869,-0.888 -3.689,-2.664c-0.819,-1.776 -1.229,-3.893 -1.229,-6.352c0.182,-4.098 0.729,-6.557 1.639,-7.376c0.911,-0.82 2.641,-1.23 5.191,-1.23c5.282,0 9.198,-1.434 11.748,-4.303c2.55,-2.868 4.143,-6.42 4.781,-10.655c0.637,-4.234 1.047,-9.767 1.229,-16.597l0,-195.477l-18.851,-0c-6.192,0.273 -10.973,2.254 -14.343,5.942c-3.369,3.688 -5.919,9.152 -7.65,16.392c-1.73,7.24 -3.233,17.554 -4.508,30.941c-0.182,2.185 -1.274,3.961 -3.278,5.327c-2.003,1.366 -4.098,2.049 -6.284,2.049c-1.639,0 -3.142,-0.751 -4.508,-2.254c-1.366,-1.502 -2.049,-3.483 -2.049,-5.942l0.82,-57.783c0,-6.557 2.459,-9.835 7.377,-9.835l133.596,0c4.736,0 7.104,3.278 7.104,9.835l1.092,57.783c0,2.459 -0.728,4.44 -2.185,5.942c-1.457,1.503 -3.005,2.254 -4.645,2.254c-2.185,0 -4.234,-0.683 -6.147,-2.049c-1.912,-1.366 -2.96,-3.142 -3.142,-5.327c-1.457,-13.661 -3.005,-24.042 -4.644,-31.146c-1.639,-7.103 -4.189,-12.499 -7.65,-16.187c-3.46,-3.688 -8.287,-5.669 -14.48,-5.942l-18.577,-0l-0,195.477c0.182,6.83 0.591,12.363 1.229,16.597c0.637,4.235 2.231,7.787 4.781,10.655c2.55,2.869 6.466,4.303 11.748,4.303l1.639,0c1.639,0 2.869,0.478 3.688,1.435c0.82,0.956 1.321,3.346 1.503,7.171c-0,2.459 -0.41,4.576 -1.23,6.352c-0.819,1.776 -2.049,2.664 -3.688,2.664c-11.657,-0.82 -22.403,-1.229 -32.238,-1.229c-10.928,-0 -22.312,0.409 -34.15,1.229Z" style="fill-rule:nonzero;"/><path d="M4608.38,385.848c-1.639,-0 -2.868,-0.888 -3.688,-2.664c-0.82,-1.776 -1.229,-3.893 -1.229,-6.352c0.182,-4.098 0.774,-6.557 1.775,-7.376c1.002,-0.82 2.687,-1.23 5.055,-1.23c5.282,0 9.198,-1.434 11.747,-4.303c2.55,-2.868 4.19,-6.352 4.918,-10.45c0.729,-4.098 1.184,-9.698 1.366,-16.802l0,-162.693c-0.182,-7.103 -0.637,-12.704 -1.366,-16.802c-0.728,-4.098 -2.368,-7.581 -4.918,-10.45c-2.549,-2.868 -6.465,-4.303 -11.747,-4.303l-1.64,0c-1.639,0 -2.868,-0.478 -3.688,-1.434c-0.819,-0.956 -1.32,-3.347 -1.502,-7.172c-0,-2.459 0.409,-4.576 1.229,-6.352c0.82,-1.775 2.049,-2.663 3.688,-2.663c11.839,0.819 22.676,1.229 32.512,1.229c10.928,0 22.311,-0.41 34.15,-1.229c1.639,-0 2.869,0.888 3.688,2.663c0.82,1.776 1.23,3.893 1.23,6.352c-0.182,4.098 -0.774,6.557 -1.776,7.377c-1.002,0.819 -2.778,1.229 -5.328,1.229c-5.282,0 -9.197,1.435 -11.747,4.303c-2.55,2.869 -4.144,6.421 -4.781,10.655c-0.638,4.235 -1.048,9.767 -1.23,16.597l0,162.693c0.182,6.83 0.592,12.363 1.23,16.597c0.637,4.235 2.231,7.787 4.781,10.655c2.55,2.869 6.465,4.303 11.747,4.303l1.64,0c1.821,0 3.141,0.478 3.961,1.435c0.82,0.956 1.321,3.346 1.503,7.171c-0,2.459 -0.41,4.576 -1.23,6.352c-0.819,1.776 -2.049,2.664 -3.688,2.664c-11.657,-0.82 -22.949,-1.229 -33.877,-1.229c-10.018,-0 -20.946,0.409 -32.785,1.229Z" style="fill-rule:nonzero;"/><path d="M4761.65,392.815c-19.125,-0 -33.741,-4.986 -43.85,-14.958c-10.108,-9.972 -15.162,-24.657 -15.162,-44.054c-0,-9.836 2.231,-17.964 6.693,-24.384c4.462,-6.42 10.245,-9.63 17.349,-9.63c4.189,0.273 7.376,1.844 9.562,4.712c2.185,2.869 3.278,5.533 3.278,7.992c0,0.273 -0.911,1.229 -2.732,2.868c-1.821,1.64 -3.46,4.098 -4.918,7.377c-1.457,3.278 -2.185,7.786 -2.185,13.523c-0,12.841 2.595,22.745 7.786,29.711c5.191,6.967 13.251,10.45 24.179,10.45c7.467,0 14.024,-2.185 19.67,-6.556c5.647,-4.372 9.972,-10.177 12.978,-17.417c3.005,-7.24 4.507,-14.822 4.507,-22.744c0,-9.836 -1.866,-18.305 -5.6,-25.408c-3.734,-7.104 -8.333,-13.046 -13.797,-17.827c-5.464,-4.781 -12.932,-10.313 -22.403,-16.597c-10.928,-7.377 -19.762,-14.07 -26.501,-20.081c-6.739,-6.01 -12.476,-14.001 -17.211,-23.973c-4.736,-9.972 -7.104,-22.335 -7.104,-37.088c0,-23.768 5.419,-41.527 16.256,-53.274c10.837,-11.748 25.089,-17.622 42.756,-17.622c13.843,-0 25.909,4.371 36.2,13.114c10.291,8.742 15.436,21.583 15.436,38.521c-0,9.836 -2.231,17.964 -6.694,24.384c-4.462,6.42 -10.245,9.63 -17.348,9.63c-4.189,-0.273 -7.377,-1.844 -9.562,-4.712c-2.186,-2.869 -3.279,-5.533 -3.279,-7.992c0,-0.273 1.23,-1.229 3.689,-2.868c2.458,-1.64 4.644,-4.098 6.556,-7.377c1.913,-3.278 2.869,-7.786 2.869,-13.523c0,-10.109 -2.595,-18.032 -7.786,-23.769c-5.191,-5.737 -11.793,-8.606 -19.807,-8.606c-11.111,-0 -19.535,3.893 -25.272,11.679c-5.737,7.787 -8.606,17.417 -8.606,28.892c0,9.562 1.731,17.553 5.191,23.973c3.461,6.421 9.016,12.773 16.666,19.056c6.192,4.918 12.931,9.836 20.217,14.753c11.656,7.923 20.9,15.163 27.73,21.72c6.83,6.557 12.567,15.163 17.212,25.818c4.644,10.655 6.966,23.905 6.966,39.751c0,13.66 -2.868,26.023 -8.606,37.087c-5.737,11.065 -13.478,19.739 -23.222,26.023c-9.744,6.284 -20.445,9.426 -32.101,9.426Z" style="fill-rule:nonzero;"/><path d="M4881.59,385.848c-1.639,-0 -2.868,-0.888 -3.688,-2.664c-0.82,-1.776 -1.229,-3.893 -1.229,-6.352c0.182,-4.098 0.728,-6.557 1.639,-7.376c0.91,-0.82 2.641,-1.23 5.191,-1.23c5.282,0 9.197,-1.434 11.747,-4.303c2.55,-2.868 4.144,-6.42 4.781,-10.655c0.638,-4.234 1.048,-9.767 1.23,-16.597l-0,-195.477l-18.851,-0c-6.193,0.273 -10.974,2.254 -14.343,5.942c-3.37,3.688 -5.92,9.152 -7.65,16.392c-1.73,7.24 -3.233,17.554 -4.508,30.941c-0.182,2.185 -1.275,3.961 -3.278,5.327c-2.004,1.366 -4.098,2.049 -6.284,2.049c-1.639,0 -3.142,-0.751 -4.508,-2.254c-1.366,-1.502 -2.049,-3.483 -2.049,-5.942l0.82,-57.783c-0,-6.557 2.458,-9.835 7.376,-9.835l133.597,0c4.735,0 7.103,3.278 7.103,9.835l1.093,57.783c-0,2.459 -0.729,4.44 -2.186,5.942c-1.457,1.503 -3.005,2.254 -4.644,2.254c-2.186,0 -4.235,-0.683 -6.147,-2.049c-1.913,-1.366 -2.96,-3.142 -3.142,-5.327c-1.457,-13.661 -3.005,-24.042 -4.645,-31.146c-1.639,-7.103 -4.189,-12.499 -7.649,-16.187c-3.461,-3.688 -8.287,-5.669 -14.48,-5.942l-18.578,-0l0,195.477c0.182,6.83 0.592,12.363 1.229,16.597c0.638,4.235 2.232,7.787 4.782,10.655c2.549,2.869 6.465,4.303 11.747,4.303l1.64,0c1.639,0 2.868,0.478 3.688,1.435c0.819,0.956 1.32,3.346 1.502,7.171c0,2.459 -0.409,4.576 -1.229,6.352c-0.82,1.776 -2.049,2.664 -3.688,2.664c-11.657,-0.82 -22.403,-1.229 -32.238,-1.229c-10.928,-0 -22.312,0.409 -34.151,1.229Z" style="fill-rule:nonzero;"/><path d="M1259.78,835.378c-1.639,-0 -2.869,-0.888 -3.688,-2.664c-0.82,-1.776 -1.23,-3.893 -1.23,-6.352c0.183,-4.098 0.774,-6.557 1.776,-7.376c1.002,-0.82 2.687,-1.23 5.054,-1.23c5.282,0 9.198,-1.434 11.748,-4.303c2.55,-2.868 4.189,-6.352 4.918,-10.45c0.728,-4.098 1.184,-9.699 1.366,-16.802l-0,-162.693c-0.182,-7.103 -0.638,-12.704 -1.366,-16.802c-0.729,-4.098 -2.368,-7.581 -4.918,-10.45c-2.55,-2.869 -6.466,-4.303 -11.748,-4.303l-1.639,0c-1.639,0 -2.868,-0.478 -3.688,-1.434c-0.82,-0.956 -1.32,-3.347 -1.503,-7.172c0,-2.459 0.41,-4.576 1.23,-6.352c0.819,-1.776 2.049,-2.664 3.688,-2.664c11.839,0.82 22.676,1.23 32.511,1.23c10.928,-0 22.312,-0.41 34.151,-1.23c1.639,0 2.868,0.888 3.688,2.664c0.82,1.776 1.229,3.893 1.229,6.352c-0.182,4.098 -0.774,6.557 -1.775,7.377c-1.002,0.819 -2.778,1.229 -5.328,1.229c-5.282,0 -9.198,1.434 -11.748,4.303c-2.55,2.869 -4.143,6.42 -4.781,10.655c-0.637,4.235 -1.047,9.767 -1.229,16.597l-0,162.693c0.182,6.83 0.592,12.363 1.229,16.597c0.638,4.235 2.231,7.787 4.781,10.655c2.55,2.869 6.466,4.303 11.748,4.303l1.639,0c1.822,0 3.142,0.478 3.962,1.434c0.819,0.957 1.32,3.347 1.502,7.172c0,2.459 -0.409,4.576 -1.229,6.352c-0.82,1.776 -2.049,2.664 -3.688,2.664c-11.657,-0.82 -22.949,-1.23 -33.877,-1.23c-10.018,0 -20.946,0.41 -32.785,1.23Z" style="fill-rule:nonzero;"/><path d="M1359.77,835.378c-1.64,-0 -2.869,-0.888 -3.689,-2.664c-0.819,-1.776 -1.229,-3.893 -1.229,-6.352c0.182,-4.098 0.729,-6.557 1.639,-7.376c0.911,-0.82 2.641,-1.23 5.191,-1.23c5.282,0 9.152,-1.434 11.611,-4.303c2.459,-2.868 3.962,-6.283 4.508,-10.245c0.547,-3.961 0.911,-9.63 1.093,-17.007l0.546,-162.693c0,-8.196 -0.592,-14.411 -1.775,-18.646c-1.184,-4.235 -3.051,-7.308 -5.601,-9.221c-2.55,-1.912 -6.193,-3.551 -10.928,-4.917c-3.097,-0.82 -5.009,-1.64 -5.738,-2.459c-0.728,-0.82 -1.092,-3.142 -1.092,-6.967c-0,-3.278 0.592,-5.464 1.775,-6.557c1.184,-1.093 3.051,-1.639 5.601,-1.639c11.293,0 20.217,1.161 26.774,3.483c6.557,2.323 12.34,6.489 17.349,12.499c5.008,6.011 10.518,15.163 16.528,27.457l74.858,147.531l0.82,-0l-0.547,-140.564c-0.182,-7.376 -0.546,-13.045 -1.092,-17.007c-0.547,-3.961 -2.049,-7.376 -4.508,-10.245c-2.459,-2.869 -6.329,-4.303 -11.611,-4.303l-1.64,0c-1.821,0 -3.141,-0.478 -3.961,-1.434c-0.82,-0.956 -1.321,-3.347 -1.503,-7.172c0,-2.459 0.456,-4.576 1.366,-6.352c0.911,-1.776 2.095,-2.664 3.552,-2.664c11.657,0.82 20.399,1.23 26.228,1.23c3.46,-0 10.108,-0.273 19.943,-0.82l5.738,-0.41c1.639,0 2.868,0.888 3.688,2.664c0.82,1.776 1.229,3.893 1.229,6.352c-0.182,4.098 -0.728,6.557 -1.639,7.377c-0.911,0.819 -2.641,1.229 -5.191,1.229c-5.282,0 -9.152,1.434 -11.611,4.303c-2.459,2.869 -3.961,6.284 -4.508,10.245c-0.546,3.962 -0.91,9.631 -1.093,17.007l-0.546,206.542c-0.182,3.552 -2.459,5.328 -6.83,5.328c-3.461,-0 -6.102,-1.776 -7.923,-5.328l-102.998,-206.542l-0.819,0l0.546,162.693c0.182,7.377 0.546,13.046 1.093,17.007c0.546,3.962 2.049,7.377 4.508,10.245c2.458,2.869 6.329,4.303 11.611,4.303l1.639,0c1.821,0 3.142,0.478 3.961,1.434c0.82,0.957 1.321,3.347 1.503,7.172c0,2.459 -0.41,4.576 -1.229,6.352c-0.82,1.776 -2.049,2.664 -3.689,2.664c-11.656,-0.82 -20.49,-1.23 -26.5,-1.23c-3.643,0 -10.018,0.274 -19.125,0.82l-6.283,0.41Z" style="fill-rule:nonzero;"/><path d="M1677.95,835.378c-1.64,-0 -2.869,-0.888 -3.689,-2.664c-0.819,-1.776 -1.229,-3.893 -1.229,-6.352c0.182,-4.098 0.729,-6.557 1.639,-7.376c0.911,-0.82 2.641,-1.23 5.191,-1.23c5.282,0 9.198,-1.434 11.748,-4.303c2.55,-2.868 4.143,-6.42 4.781,-10.655c0.637,-4.234 1.047,-9.767 1.229,-16.597l0,-195.477l-18.851,-0c-6.192,0.273 -10.973,2.254 -14.343,5.942c-3.369,3.688 -5.919,9.152 -7.65,16.392c-1.73,7.24 -3.233,17.553 -4.507,30.94c-0.183,2.186 -1.275,3.962 -3.279,5.328c-2.003,1.366 -4.098,2.049 -6.284,2.049c-1.639,-0 -3.141,-0.751 -4.507,-2.254c-1.366,-1.503 -2.049,-3.483 -2.049,-5.942l0.819,-57.783c0,-6.557 2.459,-9.835 7.377,-9.835l133.596,-0c4.736,-0 7.104,3.278 7.104,9.835l1.092,57.783c0,2.459 -0.728,4.439 -2.185,5.942c-1.457,1.503 -3.005,2.254 -4.645,2.254c-2.185,-0 -4.234,-0.683 -6.147,-2.049c-1.912,-1.366 -2.959,-3.142 -3.142,-5.328c-1.457,-13.66 -3.005,-24.041 -4.644,-31.145c-1.639,-7.103 -4.189,-12.499 -7.65,-16.187c-3.46,-3.688 -8.287,-5.669 -14.48,-5.942l-18.577,-0l-0,195.477c0.182,6.83 0.592,12.363 1.229,16.597c0.637,4.235 2.231,7.787 4.781,10.655c2.55,2.869 6.466,4.303 11.748,4.303l1.639,0c1.639,0 2.869,0.478 3.688,1.434c0.82,0.957 1.321,3.347 1.503,7.172c-0,2.459 -0.41,4.576 -1.229,6.352c-0.82,1.776 -2.05,2.664 -3.689,2.664c-11.656,-0.82 -22.402,-1.23 -32.238,-1.23c-10.928,0 -22.311,0.41 -34.15,1.23Z" style="fill-rule:nonzero;"/><path d="M1806.36,835.378c-1.64,-0 -2.869,-0.888 -3.689,-2.664c-0.819,-1.776 -1.229,-3.893 -1.229,-6.352c0.182,-4.098 0.728,-6.557 1.639,-7.376c0.911,-0.82 2.641,-1.23 5.191,-1.23c5.282,0 9.198,-1.434 11.748,-4.303c2.55,-2.868 4.143,-6.42 4.781,-10.655c0.637,-4.234 1.047,-9.767 1.229,-16.597l0,-162.693c-0.182,-6.83 -0.592,-12.362 -1.229,-16.597c-0.638,-4.235 -2.231,-7.786 -4.781,-10.655c-2.55,-2.869 -6.466,-4.303 -11.748,-4.303l-1.639,0c-1.822,0 -3.097,-0.478 -3.825,-1.434c-0.729,-0.956 -1.184,-3.347 -1.366,-7.172c-0,-2.459 0.41,-4.576 1.229,-6.352c0.82,-1.776 2.049,-2.664 3.689,-2.664c11.838,0.82 22.584,1.23 32.238,1.23c10.928,-0 22.311,-0.41 34.15,-1.23c1.639,0 2.869,0.888 3.688,2.664c0.82,1.776 1.23,3.893 1.23,6.352c-0.182,4.098 -0.729,6.557 -1.639,7.377c-0.911,0.819 -2.641,1.229 -5.191,1.229c-5.282,0 -9.198,1.434 -11.748,4.303c-2.55,2.869 -4.144,6.42 -4.781,10.655c-0.638,4.235 -1.047,9.767 -1.23,16.597l0,72.536l85.786,-0l0,-72.536c-0.182,-6.83 -0.592,-12.362 -1.229,-16.597c-0.637,-4.235 -2.231,-7.786 -4.781,-10.655c-2.55,-2.869 -6.466,-4.303 -11.748,-4.303l-1.639,0c-1.821,0 -3.142,-0.478 -3.961,-1.434c-0.82,-0.956 -1.321,-3.347 -1.503,-7.172c-0,-2.459 0.455,-4.576 1.366,-6.352c0.911,-1.776 2.094,-2.664 3.552,-2.664c11.838,0.82 23.222,1.23 34.15,1.23c10.018,-0 20.855,-0.41 32.511,-1.23c1.64,0 2.869,0.888 3.689,2.664c0.819,1.776 1.229,3.893 1.229,6.352c-0.182,4.098 -0.774,6.557 -1.776,7.377c-1.002,0.819 -2.686,1.229 -5.054,1.229c-5.282,0 -9.244,1.434 -11.884,4.303c-2.641,2.869 -4.281,6.42 -4.918,10.655c-0.638,4.235 -1.047,9.767 -1.23,16.597l0,162.693c0.183,6.83 0.592,12.363 1.23,16.597c0.637,4.235 2.277,7.787 4.918,10.655c2.64,2.869 6.602,4.303 11.884,4.303l1.639,0c1.639,0 2.869,0.478 3.688,1.434c0.82,0.957 1.321,3.347 1.503,7.172c-0,2.459 -0.41,4.576 -1.229,6.352c-0.82,1.776 -2.049,2.664 -3.689,2.664c-11.656,-0.82 -22.585,-1.23 -32.784,-1.23c-10.746,0 -22.039,0.41 -33.877,1.23c-1.458,-0 -2.641,-0.888 -3.552,-2.664c-0.911,-1.776 -1.366,-3.893 -1.366,-6.352c0.182,-4.098 0.774,-6.557 1.776,-7.376c1.001,-0.82 2.777,-1.23 5.327,-1.23c5.282,0 9.198,-1.434 11.748,-4.303c2.55,-2.868 4.144,-6.42 4.781,-10.655c0.637,-4.234 1.047,-9.767 1.229,-16.597l0,-72.536l-85.786,0l0,72.536c0.183,6.83 0.592,12.363 1.23,16.597c0.637,4.235 2.231,7.787 4.781,10.655c2.55,2.869 6.466,4.303 11.748,4.303l1.639,0c1.821,0 3.096,0.478 3.825,1.434c0.728,0.957 1.184,3.347 1.366,7.172c-0,2.459 -0.41,4.576 -1.23,6.352c-0.819,1.776 -2.049,2.664 -3.688,2.664c-11.657,-0.82 -22.949,-1.23 -33.877,-1.23c-9.836,0 -20.673,0.41 -32.511,1.23Z" style="fill-rule:nonzero;"/><path d="M2018.36,835.378c-1.457,-0 -2.596,-0.888 -3.415,-2.664c-0.82,-1.776 -1.23,-3.893 -1.23,-6.352c0.182,-4.098 0.729,-6.557 1.64,-7.376c0.91,-0.82 2.641,-1.23 5.19,-1.23c5.282,0 9.198,-1.434 11.748,-4.303c2.55,-2.868 4.144,-6.42 4.781,-10.655c0.638,-4.234 1.048,-9.767 1.23,-16.597l-0,-162.693c-0.182,-6.83 -0.592,-12.362 -1.23,-16.597c-0.637,-4.235 -2.231,-7.786 -4.781,-10.655c-2.55,-2.869 -6.466,-4.303 -11.748,-4.303l-1.639,0c-1.821,0 -3.096,-0.478 -3.825,-1.434c-0.728,-0.956 -1.184,-3.347 -1.366,-7.172c0,-2.459 0.41,-4.576 1.23,-6.352c0.819,-1.776 1.958,-2.664 3.415,-2.664c12.021,0.82 22.858,1.23 32.511,1.23l85.786,-0c4.736,-0 7.103,3.278 7.103,9.835l0.82,57.373c-0,2.459 -0.82,4.44 -2.459,5.942c-1.639,1.503 -3.278,2.254 -4.918,2.254c-2.185,0 -4.098,-0.615 -5.737,-1.844c-1.639,-1.229 -2.55,-3.074 -2.732,-5.532c-1.457,-13.387 -3.051,-23.564 -4.781,-30.531c-1.73,-6.967 -4.28,-12.157 -7.65,-15.572c-3.369,-3.416 -8.15,-5.26 -14.343,-5.533l-36.609,0l-0,104.091l49.45,-0c1.275,0.273 2.276,1.298 3.005,3.073c0.729,1.776 1.093,3.894 1.093,6.352c-0,2.186 -0.364,4.098 -1.093,5.738c-0.729,1.639 -1.73,2.458 -3.005,2.458l-49.45,0l-0,77.454c0.364,5.737 0.819,10.313 1.366,13.728c0.546,3.415 2.185,6.489 4.918,9.221c2.732,2.732 7.012,3.961 12.84,3.688l25.135,0c6.375,-0.273 11.201,-1.844 14.48,-4.713c3.278,-2.868 5.874,-7.308 7.786,-13.318c1.912,-6.011 4.235,-15.846 6.967,-29.506c1.275,-4.918 4.371,-6.83 9.289,-5.738c1.821,0.547 3.415,1.64 4.781,3.279c1.366,1.639 1.958,3.688 1.776,6.147l-5.465,51.635c-0.546,3.552 -1.366,5.874 -2.458,6.967c-1.093,1.093 -2.915,1.639 -5.464,1.639l-90.158,0c-9.835,0 -20.763,0.41 -32.784,1.23Z" style="fill-rule:nonzero;"/><path d="M2251.4,835.861c-2.283,-0 -3.996,-1.237 -5.138,-3.711c-1.141,-2.473 -1.712,-5.422 -1.712,-8.847c0.254,-5.709 1.015,-9.134 2.283,-10.275c1.269,-1.142 2.791,-1.713 4.567,-1.713l3.425,0c7.611,0 13.192,-2.949 16.744,-8.848c3.552,-5.898 6.406,-12.558 8.563,-19.979c2.156,-7.421 3.615,-12.463 4.376,-15.127l66.597,-236.325c1.523,-5.708 2.284,-10.275 2.284,-13.7c-0,-6.85 -1.776,-11.797 -5.328,-14.842c-3.552,-3.044 -8.499,-5.518 -14.842,-7.421c-4.313,-1.141 -6.977,-2.283 -7.991,-3.425c-1.015,-1.141 -1.523,-4.376 -1.523,-9.704c0,-4.566 0.825,-7.611 2.474,-9.133c1.649,-1.522 4.25,-2.283 7.801,-2.283c12.686,-0 22.77,1.427 30.255,4.281c7.484,2.854 14.017,8.562 19.598,17.125c5.582,8.562 10.783,21.596 15.603,39.102l63.933,236.325c3.806,14.461 7.485,25.307 11.036,32.537c3.552,7.231 8.88,11.037 15.984,11.417l2.283,0c2.537,0 4.313,0.666 5.328,1.998c1.015,1.332 1.649,4.662 1.903,9.99c-0,3.425 -0.571,6.374 -1.713,8.847c-1.142,2.474 -2.854,3.711 -5.137,3.711c-16.237,-1.142 -30.191,-1.713 -41.861,-1.713c-15.223,0 -30.952,0.571 -47.189,1.713c-2.284,-0 -3.996,-1.237 -5.138,-3.711c-1.142,-2.473 -1.712,-5.422 -1.712,-8.847c0.253,-5.328 0.888,-8.658 1.902,-9.99c1.015,-1.332 2.791,-1.998 5.328,-1.998c8.626,0 14.715,-1.237 18.267,-3.71c3.552,-2.474 5.328,-6.945 5.328,-13.415c-0,-4.947 -1.523,-13.89 -4.567,-26.829l-12.939,-47.379l-93.997,-0c-6.343,23.594 -9.958,37.294 -10.846,41.1c-0.888,3.805 -1.332,5.898 -1.332,6.279c-3.044,14.461 -4.567,23.785 -4.567,27.971c0,6.469 1.903,10.75 5.709,12.843c3.805,2.094 11.036,3.14 21.691,3.14l2.284,0c2.537,0 4.313,0.666 5.328,1.998c1.014,1.332 1.649,4.662 1.902,9.99c0,3.425 -0.571,6.374 -1.712,8.847c-1.142,2.474 -2.854,3.711 -5.138,3.711c-16.237,-1.142 -30.064,-1.713 -41.48,-1.713c-8.119,0 -20.423,0.571 -36.914,1.713Zm72.305,-140.425l79.917,-0l-38.436,-146.704l-1.142,-0l-40.339,146.704Z" style="fill-rule:nonzero;"/><path d="M2539.48,840.998c-6.85,0 -12.558,-3.329 -17.125,-9.989c-4.566,-6.66 -6.85,-15.318 -6.85,-25.973c0,-9.895 2.284,-18.267 6.85,-25.117c4.567,-6.85 10.402,-10.275 17.506,-10.275c6.85,0 12.622,3.425 17.315,10.275c4.694,6.85 7.041,15.222 7.041,25.117c-0,10.655 -2.347,19.313 -7.041,25.973c-4.693,6.66 -10.592,9.989 -17.696,9.989Z" style="fill-rule:nonzero;"/><path d="M2604.94,835.861c-2.283,-0 -3.996,-1.237 -5.138,-3.711c-1.141,-2.473 -1.712,-5.422 -1.712,-8.847c0.254,-5.709 1.078,-9.134 2.474,-10.275c1.395,-1.142 3.742,-1.713 7.04,-1.713c7.357,0 12.812,-1.998 16.364,-5.994c3.552,-3.996 5.835,-8.848 6.85,-14.556c1.015,-5.708 1.649,-13.51 1.903,-23.404l-0,-226.621c-0.254,-9.894 -0.888,-17.696 -1.903,-23.404c-1.015,-5.708 -3.298,-10.561 -6.85,-14.556c-3.552,-3.996 -9.007,-5.994 -16.364,-5.994l-2.283,-0c-2.284,-0 -3.996,-0.666 -5.138,-1.998c-1.142,-1.332 -1.839,-4.662 -2.093,-9.99c-0,-3.425 0.571,-6.374 1.712,-8.848c1.142,-2.473 2.855,-3.71 5.138,-3.71c16.491,1.142 31.586,1.713 45.286,1.713c15.222,-0 31.079,-0.571 47.57,-1.713c2.283,0 3.995,1.237 5.137,3.71c1.142,2.474 1.713,5.423 1.713,8.848c-0.254,5.709 -1.079,9.134 -2.474,10.275c-1.395,1.142 -3.869,1.713 -7.421,1.713c-7.357,-0 -12.812,1.998 -16.364,5.994c-3.552,3.995 -5.772,8.943 -6.66,14.841c-0.887,5.899 -1.458,13.605 -1.712,23.119l-0,226.621c0.254,9.514 0.825,17.22 1.712,23.119c0.888,5.898 3.108,10.845 6.66,14.841c3.552,3.996 9.007,5.994 16.364,5.994l2.283,0c2.537,0 4.377,0.666 5.518,1.998c1.142,1.332 1.84,4.662 2.094,9.99c-0,3.425 -0.571,6.374 -1.713,8.847c-1.142,2.474 -2.854,3.711 -5.137,3.711c-16.237,-1.142 -31.967,-1.713 -47.189,-1.713c-13.954,0 -29.176,0.571 -45.667,1.713Z" style="fill-rule:nonzero;"/><path d="M2762.49,840.998c-6.85,0 -12.558,-3.329 -17.125,-9.989c-4.567,-6.66 -6.85,-15.318 -6.85,-25.973c-0,-9.895 2.283,-18.267 6.85,-25.117c4.567,-6.85 10.402,-10.275 17.506,-10.275c6.85,0 12.621,3.425 17.315,10.275c4.693,6.85 7.04,15.222 7.04,25.117c0,10.655 -2.347,19.313 -7.04,25.973c-4.694,6.66 -10.592,9.989 -17.696,9.989Z" style="fill-rule:nonzero;"/><path d="M2920.85,625.147c-3.096,-11.747 -6.101,-19.943 -9.016,-24.588c-2.914,-4.644 -7.194,-7.786 -12.84,-9.425c-0.729,-0.274 -1.822,-0.615 -3.279,-1.025c-1.457,-0.41 -2.413,-1.229 -2.868,-2.459c-0.456,-1.229 -0.683,-3.21 -0.683,-5.942c-0,-3.278 0.592,-5.464 1.776,-6.557c1.183,-1.093 3.05,-1.639 5.6,-1.639c13.66,-0 24.042,3.142 31.145,9.425c7.104,6.284 12.75,17.485 16.939,33.604l31.145,149.989l1.093,0l33.331,-190.969l14.207,-0l44.532,190.969l0.82,0l30.872,-154.496c0.728,-4.098 1.092,-7.65 1.092,-10.655c0,-3.825 -0.91,-6.352 -2.732,-7.582c-1.821,-1.229 -5.282,-1.844 -10.381,-1.844l-1.64,0c-1.821,0 -3.096,-0.478 -3.824,-1.434c-0.729,-0.956 -1.184,-3.347 -1.367,-7.172c0,-2.459 0.41,-4.576 1.23,-6.352c0.82,-1.776 1.958,-2.664 3.415,-2.664c11.839,0.82 21.765,1.23 29.779,1.23c3.461,-0 10.109,-0.273 19.944,-0.82l5.737,-0.41c1.64,0 2.869,0.888 3.689,2.664c0.819,1.776 1.229,3.893 1.229,6.352c-0.182,3.825 -0.637,6.216 -1.366,7.172c-0.729,0.956 -2.003,1.434 -3.825,1.434c-8.014,0 -14.252,1.981 -18.714,5.942c-4.463,3.962 -7.696,11.27 -9.699,21.925l-44.805,218.426l-12.841,0l-44.259,-195.477l-35.243,195.477l-12.841,0l-45.352,-213.099Z" style="fill-rule:nonzero;"/><path d="M3231.21,842.345c-17.303,-0 -32.557,-6.216 -45.762,-18.647c-13.205,-12.43 -23.404,-28.891 -30.599,-49.381c-7.194,-20.491 -10.791,-42.483 -10.791,-65.979c-0,-28.686 4.325,-53.685 12.977,-74.994c8.651,-21.31 19.716,-37.634 33.194,-48.972c13.478,-11.338 27.138,-17.007 40.981,-17.007c17.485,-0 32.921,6.215 46.308,18.646c13.387,12.431 23.678,28.823 30.872,49.177c7.194,20.353 10.791,42.278 10.791,65.773c0,28.687 -4.371,53.753 -13.113,75.2c-8.743,21.446 -19.944,37.839 -33.604,49.177c-13.661,11.338 -27.412,17.007 -41.254,17.007Zm-0.273,-18.032c12.385,0 22.721,-5.532 31.008,-16.597c8.287,-11.065 14.48,-25.954 18.578,-44.669c4.098,-18.714 6.147,-39.41 6.147,-62.086c0,-21.036 -2.094,-40.365 -6.284,-57.987c-4.189,-17.622 -10.472,-31.692 -18.851,-42.21c-8.378,-10.518 -18.577,-15.778 -30.598,-15.778c-18.214,0 -31.92,11.543 -41.118,34.629c-9.197,23.086 -13.796,52.25 -13.796,87.494c-0,21.309 2.049,40.844 6.147,58.602c4.098,17.758 10.245,31.965 18.441,42.62c8.196,10.655 18.305,15.982 30.326,15.982Z" style="fill-rule:nonzero;"/><path d="M3345.41,835.378c-1.639,-0 -2.869,-0.888 -3.688,-2.664c-0.82,-1.776 -1.23,-3.893 -1.23,-6.352c0.182,-4.098 0.729,-6.557 1.64,-7.376c0.91,-0.82 2.641,-1.23 5.19,-1.23c5.282,0 9.198,-1.434 11.748,-4.303c2.55,-2.868 4.144,-6.42 4.781,-10.655c0.638,-4.234 1.048,-9.767 1.23,-16.597l-0,-162.283c-0.182,-7.103 -0.592,-12.704 -1.23,-16.802c-0.637,-4.098 -2.231,-7.65 -4.781,-10.655c-2.55,-3.005 -6.466,-4.508 -11.748,-4.508l-1.639,0c-1.821,0 -3.096,-0.478 -3.825,-1.434c-0.728,-0.956 -1.184,-3.347 -1.366,-7.172c0,-2.459 0.41,-4.576 1.23,-6.352c0.819,-1.776 2.049,-2.664 3.688,-2.664c11.839,0.82 22.676,1.23 32.511,1.23l46.991,-0c14.025,0.273 25.727,3.62 35.107,10.04c9.38,6.42 16.256,14.617 20.627,24.588c4.371,9.972 6.557,20.696 6.557,32.17c-0,15.026 -3.962,28.823 -11.885,41.391c-7.922,12.567 -18.714,21.583 -32.374,27.047l4.644,11.065c7.65,18.577 14.571,34.492 20.764,47.742c6.192,13.25 12.931,25.613 20.217,37.087c5.1,6.284 10.564,9.972 16.392,11.065c0.364,0 1.184,0.068 2.459,0.205c1.275,0.137 2.322,0.888 3.142,2.254c0.819,1.366 1.229,3.415 1.229,6.147c0,2.459 -0.41,4.576 -1.229,6.352c-0.82,1.776 -2.049,2.664 -3.688,2.664l-7.104,-0.41c-8.014,-0.546 -13.842,-0.82 -17.485,-0.82c-7.285,-2.185 -13.523,-6.078 -18.714,-11.679c-5.191,-5.601 -10.337,-13.592 -15.436,-23.974c-5.282,-10.381 -12.659,-27.32 -22.13,-50.816l-4.917,-11.884c-2.733,-6.284 -5.374,-10.587 -7.923,-12.909c-2.55,-2.322 -6.922,-3.483 -13.114,-3.483l-7.923,-0l-0,66.798c0.182,6.83 0.592,12.363 1.229,16.597c0.638,4.235 2.231,7.787 4.781,10.655c2.55,2.869 6.466,4.303 11.748,4.303l1.639,0c1.64,0 2.869,0.478 3.689,1.434c0.819,0.957 1.32,3.347 1.502,7.172c0,2.459 -0.41,4.576 -1.229,6.352c-0.82,1.776 -2.049,2.664 -3.688,2.664c-11.657,-0.82 -23.041,-1.23 -34.151,-1.23c-9.653,0 -20.399,0.41 -32.238,1.23Zm70.76,-131.958c27.138,0 40.707,-19.124 40.707,-57.373c0,-15.572 -3.551,-28.686 -10.655,-39.341c-7.103,-10.655 -18.76,-15.982 -34.97,-15.982c-5.282,-0 -9.289,0.956 -12.021,2.868c-2.732,1.913 -4.599,5.191 -5.6,9.836c-1.002,4.644 -1.503,11.747 -1.503,21.31l-0,78.682l24.042,0Z" style="fill-rule:nonzero;"/><path d="M3528.45,835.378c-1.457,-0 -2.596,-0.888 -3.415,-2.664c-0.82,-1.776 -1.23,-3.893 -1.23,-6.352c0.182,-4.098 0.729,-6.557 1.639,-7.376c0.911,-0.82 2.641,-1.23 5.191,-1.23c5.282,0 9.198,-1.434 11.748,-4.303c2.55,-2.868 4.144,-6.42 4.781,-10.655c0.638,-4.234 1.047,-9.767 1.23,-16.597l-0,-162.693c-0.183,-6.83 -0.592,-12.362 -1.23,-16.597c-0.637,-4.235 -2.231,-7.786 -4.781,-10.655c-2.55,-2.869 -6.466,-4.303 -11.748,-4.303l-1.639,0c-1.821,0 -3.096,-0.478 -3.825,-1.434c-0.728,-0.956 -1.184,-3.347 -1.366,-7.172c0,-2.459 0.41,-4.576 1.23,-6.352c0.819,-1.776 1.958,-2.664 3.415,-2.664c12.021,0.82 22.858,1.23 32.511,1.23c10.928,-0 22.312,-0.41 34.15,-1.23c1.64,0 2.869,0.888 3.689,2.664c0.819,1.776 1.229,3.893 1.229,6.352c-0.182,4.098 -0.774,6.557 -1.776,7.377c-1.002,0.819 -2.686,1.229 -5.054,1.229c-5.282,0 -9.198,1.434 -11.748,4.303c-2.55,2.869 -4.143,6.42 -4.781,10.655c-0.637,4.235 -1.047,9.767 -1.229,16.597l-0,168.84c0.364,5.737 0.819,10.177 1.366,13.319c0.546,3.142 2.185,6.01 4.917,8.606c2.732,2.595 7.013,3.756 12.841,3.483l24.588,0c6.375,-0.273 11.202,-1.844 14.48,-4.713c3.279,-2.868 5.874,-7.308 7.786,-13.318c1.913,-6.011 4.235,-15.846 6.967,-29.506c1.275,-4.918 4.371,-6.83 9.289,-5.738c1.639,0.547 3.187,1.64 4.645,3.279c1.457,1.639 2.094,3.688 1.912,6.147l-5.464,51.635c-0.547,3.552 -1.366,5.874 -2.459,6.967c-1.093,1.093 -2.914,1.639 -5.464,1.639l-89.611,0c-9.835,0 -20.763,0.41 -32.784,1.23Z" style="fill-rule:nonzero;"/><path d="M3684.45,835.378c-1.457,-0 -2.595,-0.888 -3.415,-2.664c-0.82,-1.776 -1.229,-3.893 -1.229,-6.352c0.182,-4.098 0.728,-6.557 1.639,-7.376c0.911,-0.82 2.641,-1.23 5.191,-1.23c5.282,0 9.198,-1.434 11.747,-4.303c2.55,-2.868 4.144,-6.42 4.782,-10.655c0.637,-4.234 1.047,-9.767 1.229,-16.597l-0,-162.693c-0.182,-6.83 -0.592,-12.362 -1.229,-16.597c-0.638,-4.235 -2.232,-7.786 -4.782,-10.655c-2.549,-2.869 -6.465,-4.303 -11.747,-4.303l-1.64,0c-1.821,0 -3.096,-0.478 -3.824,-1.434c-0.729,-0.956 -1.184,-3.347 -1.366,-7.172c-0,-2.459 0.409,-4.576 1.229,-6.352c0.82,-1.776 1.958,-2.664 3.415,-2.664c12.021,0.82 22.858,1.23 32.511,1.23l42.62,-0c17.485,-0 33.377,5.259 47.674,15.777c14.298,10.519 25.59,25.613 33.878,45.284c8.287,19.671 12.43,42.893 12.43,69.667c0,27.867 -4.69,51.431 -14.07,70.691c-9.38,19.261 -21.583,33.605 -36.609,43.03c-15.026,9.426 -31.1,14.138 -48.221,14.138l-37.702,0c-9.653,0 -20.49,0.41 -32.511,1.23Zm74.312,-16.392c21.309,-0 36.928,-9.904 46.854,-29.711c9.926,-19.808 14.89,-47.47 14.89,-82.986c-0,-22.403 -2.687,-42.415 -8.06,-60.037c-5.373,-17.621 -13.159,-31.35 -23.359,-41.185c-10.199,-9.835 -22.311,-14.753 -36.336,-14.753l-21.31,0.41l0,200.395c0,10.655 2.14,17.963 6.42,21.924c4.281,3.962 11.247,5.943 20.901,5.943Z" style="fill-rule:nonzero;"/></g><g id="ligne-et-plume" serif:id="ligne et plume"><path d="M4991.14,1099.35l-0,-23.637l-1953.96,0.046c-6.628,9.215 -11.235,14.237 -26.692,24.16l1980.65,-0.569Z"/><g id="Plume-blanche1" serif:id="Plume blanche"><path id="path2906" d="M2386.21,1145.26c72.892,82.536 207.575,26.204 205.928,19.534c-14.771,-12.376 -31.987,-46.081 -31.987,-46.081c7.909,12.969 28.559,36.363 40.853,44.707c14.174,9.62 48.037,20.549 67.616,3.224c18.388,-16.27 55.293,-26.237 74.209,-27.176c-5.591,-13.057 -15.727,-22.642 -15.727,-22.642c0,0 10.012,8.628 18.761,20.104c48.007,-15.308 116.486,-22.704 161.638,-25.81c-3.793,-12.168 -17.518,-24.276 -17.518,-24.276c-0,0 10.387,9.113 21.936,23.672c50.453,-26.902 67.583,-69.685 67.583,-69.685c4.151,-0.801 -123.934,-94.836 -149.504,-99.104c-4.528,5.366 -13.195,10.573 -21.358,15.398c5.997,-6.187 13.663,-11.563 18.321,-16.555c-39.543,-15.097 -144.185,-23.294 -153.897,-11.987c-5.617,6.541 -9.841,12.266 -27.678,37.531c13.094,-22.306 16.435,-32.985 17.476,-38.656c-19.706,4.49 -83.911,-9.514 -126.669,73.08c1.976,-11.214 11.197,-34.239 14.518,-41.681c-6.462,6.701 -52.836,15.365 -84.092,39.183c-43.597,33.221 -67.295,65.801 -90.273,129.945" style="fill:url(#_Linear1);"/><path id="path2768" d="M2391.08,1144.62c80.102,68.61 188.618,15.576 188.618,15.576c-19.981,-19.05 -28.417,-41.913 -30.69,-66.81c0,0 36.145,51.821 56.213,62.347c20.068,10.525 42.596,14.208 64.195,0.807c38.778,-24.061 63.617,-22.479 63.617,-22.479c-5.278,-5.993 -16.743,-22.46 -26.27,-31.214c-10.359,-9.517 -35.88,-25.891 -35.88,-25.891c-0,0 28.847,4.071 74.934,48.096c48.154,-15.699 99.093,-18.227 149.222,-24.591c-18.037,-24.306 -54.446,-49.79 -54.446,-49.79c-0,0 42.15,12.099 71.608,48.852c30.401,-18.231 58.21,-57.245 58.21,-57.245c0,-0 -134.769,-98.948 -143.628,-90.565c-6.805,6.439 -63.48,42.199 -76.943,56.908c5.028,-12.697 51.289,-48.989 60.314,-60.885c-39.163,-14.853 -124.031,-18.848 -133.921,-7.438c-5.72,6.6 -55.038,61.448 -66.864,92.862c2.405,-34.978 28.937,-62.032 42.47,-92.804c-18.322,3.313 -73.191,-21.336 -130.048,109.049c-0.955,-24.574 3.065,-50.338 10.986,-72.678c-55.59,19.706 -107.092,56.819 -152.011,152.569" style="fill:url(#_Linear2);"/><path id="path1873" d="M2858.59,1034.18c-225.551,-6.764 -409.129,11.13 -564.694,139.585c-0,-0 13.884,0.5 22.768,2.554c9.824,2.271 19.016,8.259 19.016,8.259c108.856,-101.401 282.25,-139.597 519.697,-144.033l3.213,-6.365Z"/><path d="M2866.74,1031.48l-8.065,-0.242c-132.202,-5.374 -249.965,-1.544 -356.729,26.88c-23.44,6.241 -46.221,13.951 -68.835,22.283c-42.045,15.49 -83.18,33.814 -122.46,59.823c-4.748,3.144 -9.48,6.363 -14.051,9.871c-4.511,3.461 -8.798,7.253 -13.159,11.014l-33.311,27.506l43.172,1.555l19.887,1.166c2.551,0.451 5.086,1.12 7.265,1.954c4.273,1.634 7.41,3.282 7.41,3.282l9.379,6.111l8.191,-7.63c29.089,-29.948 63.079,-55.765 103.412,-75.998c24.874,-12.478 52.102,-22.605 81.198,-31.342c89.854,-26.978 198.532,-38.578 325.443,-41.113l5.293,-3.326l3.218,-6.361l2.742,-5.433Zm-8.153,2.701c-225.551,-6.764 -409.129,11.13 -564.694,139.585c-0,-0 13.884,0.5 22.768,2.554c9.824,2.271 19.016,8.259 19.016,8.259c108.856,-101.401 282.25,-139.597 519.697,-144.033l3.213,-6.365Z" style="fill:#fff;"/></g><path d="M2276.39,1097.09c19.654,-6.578 50.055,-12.418 50.055,-12.418c1.714,-2.872 3.416,-5.613 6.081,-8.936l-2287.63,-0.071l-0,24.252l2231.49,-2.827Z"/></g><g><path d="M2122.68,1388.07c-0,-1.807 -0.615,-3.523 -1.844,-5.15c-1.23,-1.626 -2.869,-2.921 -4.917,-3.885c-2.596,-1.204 -5.464,-1.807 -8.606,-1.807c-1.366,0 -3.551,0.241 -6.556,0.723c-0.956,9.035 -1.639,19.215 -2.049,30.538c6.693,-2.891 12.362,-6.174 17.006,-9.848c4.644,-3.674 6.966,-7.198 6.966,-10.571Zm9.424,-22.948c4.371,1.445 7.957,3.764 10.757,6.957c2.8,3.192 4.2,6.716 4.2,10.57c-0,2.41 -0.546,4.759 -1.639,7.048c-2.459,4.939 -6.42,9.456 -11.883,13.552c-5.464,4.096 -11.952,8.071 -19.464,11.926c-15.981,8.312 -30.05,12.709 -42.207,13.191c-2.185,0.121 -4.029,-0.301 -5.532,-1.265c-1.502,-0.963 -2.253,-2.228 -2.253,-3.794c-0,-1.807 0.819,-3.434 2.458,-4.879c1.639,-1.446 3.757,-2.651 6.352,-3.614l-0,-0.542c-0,-23.732 3.005,-47.645 9.015,-71.738c0.546,-2.409 2.936,-4.547 7.171,-6.414c4.234,-1.868 8.263,-2.801 12.088,-2.801c2.185,-0 3.858,0.391 5.019,1.174c1.162,0.783 1.537,1.958 1.127,3.524c-1.502,5.662 -2.8,11.866 -3.892,18.612c5.053,-2.41 9.254,-5.421 12.6,-9.035c3.346,-3.614 5.02,-7.469 5.02,-11.565c-0,-5.662 -4.713,-8.493 -14.137,-8.493c-5.191,0 -10.04,0.723 -14.547,2.169c-2.869,0.843 -5.396,1.265 -7.581,1.265c-4.234,-0 -6.351,-1.386 -6.351,-4.156c-0,-2.53 2.458,-4.94 7.375,-7.228c4.235,-1.928 9.357,-3.524 15.367,-4.789c6.01,-1.265 11.883,-1.897 17.62,-1.897c7.922,-0 14.308,1.415 19.157,4.246c4.849,2.831 7.273,7.379 7.273,13.643c0,5.903 -2.322,11.655 -6.966,17.257c-4.644,5.601 -10.586,10.57 -17.825,14.907c4.098,0.241 7.99,0.964 11.678,2.169Z" style="fill-rule:nonzero;"/><path d="M2196.43,1322.3c-0.273,-2.53 1.537,-4.788 5.43,-6.776c3.892,-1.988 7.751,-2.982 11.576,-2.982c4.234,0 6.556,1.265 6.966,3.795c3.005,19.275 5.327,35.839 6.966,49.692c1.639,13.854 2.458,27.587 2.458,41.199c0,18.311 -1.639,34.514 -4.917,48.608c-2.595,11.204 -6.351,21.263 -11.269,30.177c-4.917,8.914 -11.678,15.841 -20.283,20.78c-7.103,3.976 -14.274,5.963 -21.513,5.963c-6.693,0 -13.249,-1.536 -19.669,-4.607c-6.42,-3.072 -12.43,-7.258 -18.03,-12.559c-1.092,-1.205 -1.639,-2.229 -1.639,-3.072c0,-2.409 1.947,-4.668 5.839,-6.776c3.893,-2.108 7.82,-3.162 11.781,-3.162c2.732,-0 4.849,0.662 6.352,1.987c0.683,0.603 2.322,2.109 4.917,4.518c2.595,2.409 5.293,4.457 8.093,6.144c2.8,1.686 5.361,2.529 7.683,2.529c1.229,0 2.117,-0.12 2.664,-0.361c2.595,-0.843 4.883,-2.831 6.863,-5.963c1.981,-3.132 3.586,-6.023 4.815,-8.674c1.229,-2.65 1.981,-4.276 2.254,-4.878c3.278,-7.228 5.668,-14.848 7.171,-22.859c1.502,-8.011 2.527,-16.955 3.073,-26.834c0.273,-7.709 0.41,-13.552 0.41,-17.527c-3.552,5.662 -7.718,10.089 -12.498,13.281c-4.781,3.192 -10.586,4.789 -17.415,4.789c-9.698,-0 -16.016,-3.825 -18.952,-11.475c-2.937,-7.649 -4.474,-17.016 -4.61,-28.098l-0.205,-7.228c-0,-18.793 2.185,-36.441 6.556,-52.945c0.547,-2.289 2.869,-4.337 6.966,-6.144c4.098,-1.807 7.991,-2.71 11.679,-2.71c1.912,-0 3.414,0.361 4.507,1.084c1.093,0.723 1.503,1.747 1.229,3.072c-3.141,13.974 -5.122,29.092 -5.941,45.355c-0.273,5.06 -0.41,8.975 -0.41,11.746c0,4.577 0.342,9.697 1.024,15.359c0.82,5.059 1.776,8.673 2.869,10.842l1.639,2.891c0.956,-1.566 2.254,-3.915 3.893,-7.047c3.415,-7.71 6.146,-16.986 8.195,-27.828l1.844,-8.854c2.595,-10.722 3.893,-19.214 3.893,-25.479c-0,-3.132 -0.137,-5.481 -0.41,-7.047l-1.844,-11.926Z" style="fill-rule:nonzero;"/><path d="M2385.19,1422.51c-5.129,0.916 -9.836,-3.937 -21.702,-3.441c-14.606,0.611 -41.084,6.65 -43.441,7.763c-6.42,3.032 -18.208,-1.217 -15.35,-9.264c7.491,-21.087 44.795,-118.913 49.911,-131.222c2.321,-5.584 22.675,-6.839 22.512,-3.252c-0.254,5.558 -48.884,106.916 -45.782,117.185c1.606,5.318 27.238,-6.118 37.04,-8.22c7.236,-1.552 21.247,-6.84 21.776,-4.394c0.918,4.239 -0.433,18.403 -1.261,24.211c-0.524,3.679 0.302,9.919 -3.703,10.634Z" style="fill-rule:nonzero;"/><path d="M2385.19,1422.51c-5.129,0.916 -9.836,-3.937 -21.702,-3.441c-14.606,0.611 -41.084,6.65 -43.441,7.763c-6.42,3.032 -18.208,-1.217 -15.35,-9.264c7.491,-21.087 44.795,-118.913 49.911,-131.222c2.321,-5.584 22.675,-6.839 22.512,-3.252c-0.254,5.558 -48.884,106.916 -45.782,117.185c1.606,5.318 27.238,-6.118 37.04,-8.22c7.236,-1.552 21.247,-6.84 21.776,-4.394c0.918,4.239 -0.433,18.403 -1.261,24.211c-0.524,3.679 0.302,9.919 -3.703,10.634Z" style="fill-rule:nonzero;"/><path d="M2461.96,1328.62c0.136,-2.41 2.083,-4.548 5.839,-6.415c3.756,-1.867 7.546,-2.801 11.371,-2.801c2.185,-0 3.961,0.391 5.327,1.174c1.366,0.783 1.981,2.018 1.844,3.705c-0.273,4.577 -0.41,8.252 -0.41,11.022c-0.683,15.661 -1.878,28.972 -3.585,39.935c-1.708,10.962 -5.498,21.262 -11.371,30.899c-5.874,9.637 -14.615,15.962 -26.226,18.974c-3.961,0.963 -7.717,1.445 -11.268,1.445c-8.742,0 -16.425,-2.289 -23.05,-6.866c-6.624,-4.578 -10.415,-10.782 -11.371,-18.612c-0.273,-3.132 -0.41,-5.482 -0.41,-7.048c0,-8.312 1.435,-16.805 4.303,-25.478c2.868,-8.674 7.034,-19.154 12.498,-31.442c1.639,-3.252 3.483,-7.408 5.532,-12.468c0.819,-2.048 2.902,-3.764 6.249,-5.15c3.346,-1.385 6.659,-2.078 9.937,-2.078c2.185,0 3.961,0.392 5.327,1.175c1.366,0.783 2.049,1.897 2.049,3.343c-0,0.482 -0.137,1.204 -0.41,2.168c-2.732,6.987 -4.849,12.227 -6.352,15.721c-3.961,9.758 -7.034,17.919 -9.22,24.484c-2.185,6.566 -3.687,13.282 -4.507,20.148c-0.273,2.892 -0.41,5.18 -0.41,6.867c0,7.107 1.981,12.227 5.942,15.359c1.229,1.085 2.868,2.078 4.917,2.982c2.049,0.903 3.961,1.415 5.737,1.536l1.639,0.361c0.137,0 0.41,-0.181 0.82,-0.542c3.414,-1.927 6.18,-5.21 8.297,-9.848c2.118,-4.638 3.518,-8.764 4.201,-12.378c0.682,-3.614 1.639,-9.336 2.868,-17.166c0.956,-6.385 1.741,-13.372 2.356,-20.961c0.615,-7.59 1.127,-14.938 1.537,-22.045Z" style="fill-rule:nonzero;"/><path d="M2461.96,1328.62c0.136,-2.41 2.083,-4.548 5.839,-6.415c3.756,-1.867 7.546,-2.801 11.371,-2.801c2.185,-0 3.961,0.391 5.327,1.174c1.366,0.783 1.981,2.018 1.844,3.705c-0.273,4.577 -0.41,8.252 -0.41,11.022c-0.683,15.661 -1.878,28.972 -3.585,39.935c-1.708,10.962 -5.498,21.262 -11.371,30.899c-5.874,9.637 -14.615,15.962 -26.226,18.974c-3.961,0.963 -7.717,1.445 -11.268,1.445c-8.742,0 -16.425,-2.289 -23.05,-6.866c-6.624,-4.578 -10.415,-10.782 -11.371,-18.612c-0.273,-3.132 -0.41,-5.482 -0.41,-7.048c0,-8.312 1.435,-16.805 4.303,-25.478c2.868,-8.674 7.034,-19.154 12.498,-31.442c1.639,-3.252 3.483,-7.408 5.532,-12.468c0.819,-2.048 2.902,-3.764 6.249,-5.15c3.346,-1.385 6.659,-2.078 9.937,-2.078c2.185,0 3.961,0.392 5.327,1.175c1.366,0.783 2.049,1.897 2.049,3.343c-0,0.482 -0.137,1.204 -0.41,2.168c-2.732,6.987 -4.849,12.227 -6.352,15.721c-3.961,9.758 -7.034,17.919 -9.22,24.484c-2.185,6.566 -3.687,13.282 -4.507,20.148c-0.273,2.892 -0.41,5.18 -0.41,6.867c0,7.107 1.981,12.227 5.942,15.359c1.229,1.085 2.868,2.078 4.917,2.982c2.049,0.903 3.961,1.415 5.737,1.536l1.639,0.361c0.137,0 0.41,-0.181 0.82,-0.542c3.414,-1.927 6.18,-5.21 8.297,-9.848c2.118,-4.638 3.518,-8.764 4.201,-12.378c0.682,-3.614 1.639,-9.336 2.868,-17.166c0.956,-6.385 1.741,-13.372 2.356,-20.961c0.615,-7.59 1.127,-14.938 1.537,-22.045Z" style="fill-rule:nonzero;"/><path d="M2590.78,1384.17l-2.15,3.649c-10.516,17.736 -34.172,30.581 -57.542,30.155c-15.029,-0.273 -32.49,-7.72 -38.597,-21.446c-12.147,-27.303 10.607,-50.277 29.316,-67.172c8.617,-7.781 25.237,-14.091 38.458,-10.284c7.929,2.282 10.418,12.754 8.416,20.021c-0.951,3.455 -5.246,11.591 -12.323,9.721c-3.066,-0.81 -5.335,-4.448 -6.805,-7.112c-4.421,-3.23 -12.86,-1.155 -15.56,3.041c-10.892,10.213 -21.019,23.875 -19.707,39.427c0.603,7.159 3.386,16.324 11.775,19.647c11.532,4.569 27.961,-8.014 34.204,-14.326c2.926,-2.958 2.132,-8.23 5.17,-11.093c4.333,-4.081 18.272,-1.228 21.102,-0.698c3.321,0.623 5.982,3.362 4.243,6.47Z" style="fill-rule:nonzero;"/><path d="M2590.78,1384.17l-2.15,3.649c-10.516,17.736 -34.172,30.581 -57.542,30.155c-15.029,-0.273 -32.49,-7.72 -38.597,-21.446c-12.147,-27.303 10.607,-50.277 29.316,-67.172c8.617,-7.781 25.237,-14.091 38.458,-10.284c7.929,2.282 10.418,12.754 8.416,20.021c-0.951,3.455 -5.246,11.591 -12.323,9.721c-3.066,-0.81 -5.335,-4.448 -6.805,-7.112c-4.421,-3.23 -12.86,-1.155 -15.56,3.041c-10.892,10.213 -21.019,23.875 -19.707,39.427c0.603,7.159 3.386,16.324 11.775,19.647c11.532,4.569 27.961,-8.014 34.204,-14.326c2.926,-2.958 2.132,-8.23 5.17,-11.093c4.333,-4.081 18.272,-1.228 21.102,-0.698c3.321,0.623 5.982,3.362 4.243,6.47Z" style="fill-rule:nonzero;"/><path d="M2706.02,1315.13c0.137,-0.06 0.274,-0.121 0.41,-0.181c-0.136,0.06 -0.273,0.121 -0.41,0.181Zm19.669,-26.563c5.719,2.709 15.097,10.781 15.645,19.501c0.649,10.33 10.199,38.438 -11.752,42.479c-9.655,1.777 -14.326,-18.537 -14.956,-20.058c-1.35,-3.256 -2.248,-6.66 -3.791,-9.848c-0.86,-1.777 -2.095,-6.533 -3.38,-4.969c-7.031,8.55 -21.679,43.116 -24.218,53.069l-1.024,3.614c-1.31,5.198 -3.627,13.489 -3.483,19.154c0.345,13.648 11.711,17.189 25.61,14.094c3.853,-0.858 7.582,-2.125 11.269,-3.433c2.554,-0.907 6.594,-1.24 7.171,-3.614c0.958,-3.945 -1.355,-10.15 2.868,-14.275c1.966,-1.921 8.916,-10.379 15.162,-9.939c8.838,0.624 10.215,11.008 10.859,16.625c0.772,6.742 -7.321,15.004 -11.064,18.431c-15.812,14.478 -40.612,25.525 -63.514,26.562c-9.57,0.434 -18.41,-3.497 -22.128,-11.564c-6.094,-13.222 -2.53,-29.34 1.332,-42.193c7.441,-24.768 25.523,-58.047 38.662,-78.728c2.934,-4.619 6.829,-8.947 11.627,-12.13c8.086,-5.364 10.171,-7.01 19.105,-2.778Z" style="fill-rule:nonzero;"/><path d="M2706.02,1315.13c0.137,-0.06 0.274,-0.121 0.41,-0.181c-0.136,0.06 -0.273,0.121 -0.41,0.181Zm19.669,-26.563c5.719,2.709 15.097,10.781 15.645,19.501c0.649,10.33 10.199,38.438 -11.752,42.479c-9.655,1.777 -14.326,-18.537 -14.956,-20.058c-1.35,-3.256 -2.248,-6.66 -3.791,-9.848c-0.86,-1.777 -2.095,-6.533 -3.38,-4.969c-7.031,8.55 -21.679,43.116 -24.218,53.069l-1.024,3.614c-1.31,5.198 -3.627,13.489 -3.483,19.154c0.345,13.648 11.711,17.189 25.61,14.094c3.853,-0.858 7.582,-2.125 11.269,-3.433c2.554,-0.907 6.594,-1.24 7.171,-3.614c0.958,-3.945 -1.355,-10.15 2.868,-14.275c1.966,-1.921 8.916,-10.379 15.162,-9.939c8.838,0.624 10.215,11.008 10.859,16.625c0.772,6.742 -7.321,15.004 -11.064,18.431c-15.812,14.478 -40.612,25.525 -63.514,26.562c-9.57,0.434 -18.41,-3.497 -22.128,-11.564c-6.094,-13.222 -2.53,-29.34 1.332,-42.193c7.441,-24.768 25.523,-58.047 38.662,-78.728c2.934,-4.619 6.829,-8.947 11.627,-12.13c8.086,-5.364 10.171,-7.01 19.105,-2.778Z" style="fill-rule:nonzero;"/><path d="M2821.54,1387.17c3.142,-6.505 4.713,-13.191 4.713,-20.058c-0,-5.421 -1.059,-10.39 -3.176,-14.907c-2.117,-4.518 -5.43,-8.222 -9.937,-11.113c-3.005,-1.928 -5.873,-2.891 -8.605,-2.891c-1.093,-0 -2.459,0.24 -4.098,0.722c1.229,0.482 1.844,1.325 1.844,2.53c0,0.723 -0.273,1.566 -0.819,2.53c-3.142,5.3 -5.601,11.053 -7.376,17.257c-1.776,6.204 -2.664,12.438 -2.664,18.702c0,7.228 1.23,14.094 3.688,20.6c1.639,3.614 3.347,6.444 5.122,8.492c0.82,0.844 1.639,1.446 2.459,1.807c3.961,-2.409 7.546,-5.782 10.756,-10.119c3.21,-4.336 5.908,-8.854 8.093,-13.552Zm-2.868,-63.425c6.693,1.204 12.43,3.794 17.21,7.77c4.781,3.975 8.4,8.764 10.859,14.365c2.459,5.602 3.688,11.414 3.688,17.438c0,7.107 -1.571,14.395 -4.712,21.864c-3.142,7.469 -7.444,14.336 -12.908,20.6c-5.464,6.264 -11.542,11.203 -18.235,14.817c-6.283,3.373 -12.429,5.06 -18.439,5.06c-6.01,-0 -11.269,-1.627 -15.777,-4.879c-4.507,-3.253 -7.785,-7.951 -9.834,-14.095c-2.322,-6.264 -3.483,-13.311 -3.483,-21.141c-0,-4.699 0.41,-9.276 1.229,-13.734c-0.956,0.241 -2.39,0.362 -4.302,0.362c-4.644,-0 -6.966,-1.385 -6.966,-4.156c-0,-0.964 0.136,-1.747 0.409,-2.349c4.644,-11.445 11.645,-21.413 21.001,-29.906c9.356,-8.493 20.113,-12.739 32.269,-12.739c1.776,-0 4.44,0.241 7.991,0.723Z" style="fill-rule:nonzero;"/><path d="M2821.54,1387.17c3.142,-6.505 4.713,-13.191 4.713,-20.058c-0,-5.421 -1.059,-10.39 -3.176,-14.907c-2.117,-4.518 -5.43,-8.222 -9.937,-11.113c-3.005,-1.928 -5.873,-2.891 -8.605,-2.891c-1.093,-0 -2.459,0.24 -4.098,0.722c1.229,0.482 1.844,1.325 1.844,2.53c0,0.723 -0.273,1.566 -0.819,2.53c-3.142,5.3 -5.601,11.053 -7.376,17.257c-1.776,6.204 -2.664,12.438 -2.664,18.702c0,7.228 1.23,14.094 3.688,20.6c1.639,3.614 3.347,6.444 5.122,8.492c0.82,0.844 1.639,1.446 2.459,1.807c3.961,-2.409 7.546,-5.782 10.756,-10.119c3.21,-4.336 5.908,-8.854 8.093,-13.552Zm-2.868,-63.425c6.693,1.204 12.43,3.794 17.21,7.77c4.781,3.975 8.4,8.764 10.859,14.365c2.459,5.602 3.688,11.414 3.688,17.438c0,7.107 -1.571,14.395 -4.712,21.864c-3.142,7.469 -7.444,14.336 -12.908,20.6c-5.464,6.264 -11.542,11.203 -18.235,14.817c-6.283,3.373 -12.429,5.06 -18.439,5.06c-6.01,-0 -11.269,-1.627 -15.777,-4.879c-4.507,-3.253 -7.785,-7.951 -9.834,-14.095c-2.322,-6.264 -3.483,-13.311 -3.483,-21.141c-0,-4.699 0.41,-9.276 1.229,-13.734c-0.956,0.241 -2.39,0.362 -4.302,0.362c-4.644,-0 -6.966,-1.385 -6.966,-4.156c-0,-0.964 0.136,-1.747 0.409,-2.349c4.644,-11.445 11.645,-21.413 21.001,-29.906c9.356,-8.493 20.113,-12.739 32.269,-12.739c1.776,-0 4.44,0.241 7.991,0.723Z" style="fill-rule:nonzero;"/><path d="M2918.86,1328.62c0.137,-2.41 2.083,-4.548 5.84,-6.415c3.756,-1.867 7.546,-2.801 11.371,-2.801c2.185,-0 3.961,0.391 5.327,1.174c1.366,0.783 1.98,2.018 1.844,3.705c-0.273,4.577 -0.41,8.252 -0.41,11.022c-0.683,15.661 -1.878,28.972 -3.586,39.935c-1.707,10.962 -5.497,21.262 -11.371,30.899c-5.873,9.637 -14.615,15.962 -26.225,18.974c-3.961,0.963 -7.717,1.445 -11.268,1.445c-8.742,0 -16.425,-2.289 -23.05,-6.866c-6.625,-4.578 -10.415,-10.782 -11.371,-18.612c-0.273,-3.132 -0.41,-5.482 -0.41,-7.048c0,-8.312 1.434,-16.805 4.303,-25.478c2.868,-8.674 7.034,-19.154 12.498,-31.442c1.639,-3.252 3.483,-7.408 5.532,-12.468c0.819,-2.048 2.902,-3.764 6.249,-5.15c3.346,-1.385 6.658,-2.078 9.936,-2.078c2.186,0 3.962,0.392 5.327,1.175c1.366,0.783 2.049,1.897 2.049,3.343c0,0.482 -0.136,1.204 -0.409,2.168c-2.732,6.987 -4.849,12.227 -6.352,15.721c-3.961,9.758 -7.034,17.919 -9.22,24.484c-2.185,6.566 -3.688,13.282 -4.507,20.148c-0.273,2.892 -0.41,5.18 -0.41,6.867c0,7.107 1.981,12.227 5.942,15.359c1.229,1.085 2.868,2.078 4.917,2.982c2.049,0.903 3.961,1.415 5.737,1.536l1.639,0.361c0.136,0 0.41,-0.181 0.819,-0.542c3.415,-1.927 6.181,-5.21 8.298,-9.848c2.117,-4.638 3.517,-8.764 4.2,-12.378c0.683,-3.614 1.639,-9.336 2.869,-17.166c0.956,-6.385 1.741,-13.372 2.356,-20.961c0.614,-7.59 1.127,-14.938 1.536,-22.045Z" style="fill-rule:nonzero;"/><path d="M2918.86,1328.62c0.137,-2.41 2.083,-4.548 5.84,-6.415c3.756,-1.867 7.546,-2.801 11.371,-2.801c2.185,-0 3.961,0.391 5.327,1.174c1.366,0.783 1.98,2.018 1.844,3.705c-0.273,4.577 -0.41,8.252 -0.41,11.022c-0.683,15.661 -1.878,28.972 -3.586,39.935c-1.707,10.962 -5.497,21.262 -11.371,30.899c-5.873,9.637 -14.615,15.962 -26.225,18.974c-3.961,0.963 -7.717,1.445 -11.268,1.445c-8.742,0 -16.425,-2.289 -23.05,-6.866c-6.625,-4.578 -10.415,-10.782 -11.371,-18.612c-0.273,-3.132 -0.41,-5.482 -0.41,-7.048c0,-8.312 1.434,-16.805 4.303,-25.478c2.868,-8.674 7.034,-19.154 12.498,-31.442c1.639,-3.252 3.483,-7.408 5.532,-12.468c0.819,-2.048 2.902,-3.764 6.249,-5.15c3.346,-1.385 6.658,-2.078 9.936,-2.078c2.186,0 3.962,0.392 5.327,1.175c1.366,0.783 2.049,1.897 2.049,3.343c0,0.482 -0.136,1.204 -0.409,2.168c-2.732,6.987 -4.849,12.227 -6.352,15.721c-3.961,9.758 -7.034,17.919 -9.22,24.484c-2.185,6.566 -3.688,13.282 -4.507,20.148c-0.273,2.892 -0.41,5.18 -0.41,6.867c0,7.107 1.981,12.227 5.942,15.359c1.229,1.085 2.868,2.078 4.917,2.982c2.049,0.903 3.961,1.415 5.737,1.536l1.639,0.361c0.136,0 0.41,-0.181 0.819,-0.542c3.415,-1.927 6.181,-5.21 8.298,-9.848c2.117,-4.638 3.517,-8.764 4.2,-12.378c0.683,-3.614 1.639,-9.336 2.869,-17.166c0.956,-6.385 1.741,-13.372 2.356,-20.961c0.614,-7.59 1.127,-14.938 1.536,-22.045Z" style="fill-rule:nonzero;"/><path d="M3011.46,1373.8c2.049,-4.578 3.074,-8.975 3.074,-13.191c-0,-5.541 -1.776,-10.059 -5.327,-13.552c-5.327,-5.542 -14.274,-8.192 -26.84,-7.951c-2.459,19.034 -4.371,41.982 -5.737,68.846c7.786,-3.614 14.752,-8.402 20.898,-14.365c6.147,-5.963 10.791,-12.559 13.932,-19.787Zm-27.044,-48.788c1.502,-0.121 3.824,-0.181 6.966,-0.181c16.664,-0 29.093,3.614 37.289,10.842c6.146,5.3 9.219,12.107 9.219,20.419c0,4.336 -1.092,9.517 -3.278,15.54c-4.507,11.324 -12.02,21.473 -22.537,30.448c-10.517,8.974 -22.537,15.811 -36.06,20.509c-0.546,12.287 -0.956,23.039 -1.229,32.254c-0.273,9.216 -0.478,16.896 -0.615,23.04c-0.136,14.696 -0.546,29.453 -1.229,44.271c-0.137,2.53 -2.185,4.758 -6.147,6.686c-3.961,1.927 -7.99,2.891 -12.088,2.891c-4.78,-0 -7.171,-1.566 -7.171,-4.698l0.205,-14.456c0.137,-4.698 0.376,-16.022 0.717,-33.972c0.342,-17.949 0.922,-34.694 1.742,-50.234c-3.688,0.362 -7.308,0.542 -10.859,0.542c-2.595,0 -4.542,-0.361 -5.839,-1.084c-1.298,-0.723 -1.947,-1.686 -1.947,-2.891c0,-2.169 1.674,-4.457 5.02,-6.867c3.346,-2.409 6.727,-3.614 10.142,-3.614c1.912,0 3.278,-0.06 4.097,-0.18c1.503,-25.9 3.825,-50.777 6.967,-74.629c-0.957,-0.482 -1.435,-1.265 -1.435,-2.349c0,-1.446 0.888,-3.132 2.664,-5.06c-0,-0.722 0.136,-1.927 0.41,-3.613c0.409,-2.53 2.595,-4.729 6.556,-6.596c3.961,-1.867 7.786,-2.801 11.473,-2.801c2.323,0 4.132,0.422 5.43,1.265c1.298,0.843 1.81,2.108 1.537,3.795l-0,0.723Z" style="fill-rule:nonzero;"/><path d="M3011.46,1373.8c2.049,-4.578 3.074,-8.975 3.074,-13.191c-0,-5.541 -1.776,-10.059 -5.327,-13.552c-5.327,-5.542 -14.274,-8.192 -26.84,-7.951c-2.459,19.034 -4.371,41.982 -5.737,68.846c7.786,-3.614 14.752,-8.402 20.898,-14.365c6.147,-5.963 10.791,-12.559 13.932,-19.787Zm-27.044,-48.788c1.502,-0.121 3.824,-0.181 6.966,-0.181c16.664,-0 29.093,3.614 37.289,10.842c6.146,5.3 9.219,12.107 9.219,20.419c0,4.336 -1.092,9.517 -3.278,15.54c-4.507,11.324 -12.02,21.473 -22.537,30.448c-10.517,8.974 -22.537,15.811 -36.06,20.509c-0.546,12.287 -0.956,23.039 -1.229,32.254c-0.273,9.216 -0.478,16.896 -0.615,23.04c-0.136,14.696 -0.546,29.453 -1.229,44.271c-0.137,2.53 -2.185,4.758 -6.147,6.686c-3.961,1.927 -7.99,2.891 -12.088,2.891c-4.78,-0 -7.171,-1.566 -7.171,-4.698l0.205,-14.456c0.137,-4.698 0.376,-16.022 0.717,-33.972c0.342,-17.949 0.922,-34.694 1.742,-50.234c-3.688,0.362 -7.308,0.542 -10.859,0.542c-2.595,0 -4.542,-0.361 -5.839,-1.084c-1.298,-0.723 -1.947,-1.686 -1.947,-2.891c0,-2.169 1.674,-4.457 5.02,-6.867c3.346,-2.409 6.727,-3.614 10.142,-3.614c1.912,0 3.278,-0.06 4.097,-0.18c1.503,-25.9 3.825,-50.777 6.967,-74.629c-0.957,-0.482 -1.435,-1.265 -1.435,-2.349c0,-1.446 0.888,-3.132 2.664,-5.06c-0,-0.722 0.136,-1.927 0.41,-3.613c0.409,-2.53 2.595,-4.729 6.556,-6.596c3.961,-1.867 7.786,-2.801 11.473,-2.801c2.323,0 4.132,0.422 5.43,1.265c1.298,0.843 1.81,2.108 1.537,3.795l-0,0.723Z" style="fill-rule:nonzero;"/><path d="M3077.23,1370.91l-1.639,3.614l14.342,10.661l-1.434,-5.24c-0.956,-3.373 -2.868,-10.541 -5.737,-21.503l-5.532,12.468Zm23.357,-52.764c1.912,10.481 4.337,21.112 7.274,31.893c2.936,10.782 6.522,23.16 10.756,37.134c3.961,13.251 6.556,22.045 7.786,26.382c0.136,0.361 0.205,0.903 0.205,1.626c-0,2.891 -1.844,5.391 -5.532,7.499c-3.688,2.108 -7.513,3.162 -11.474,3.162c-3.278,0 -5.805,-0.783 -7.581,-2.349c-3.961,-3.734 -8.127,-7.288 -12.498,-10.661c-4.37,-3.373 -10.107,-7.529 -17.21,-12.468l-6.761,-4.879c-5.737,10.842 -10.176,18.853 -13.318,24.033c-0.956,1.807 -3.449,3.463 -7.478,4.969c-4.029,1.506 -7.751,2.259 -11.166,2.259c-3.825,-0 -5.737,-1.084 -5.737,-3.253c0,-0.602 0.205,-1.325 0.615,-2.168c4.097,-8.915 8.946,-19.154 14.547,-30.719l4.302,-9.215c-3.415,-3.012 -5.122,-4.518 -5.122,-4.518c-0.956,-0.843 -1.434,-1.807 -1.434,-2.891c-0,-2.048 1.502,-4.006 4.507,-5.873c3.005,-1.867 6.352,-3.102 10.04,-3.704c6.556,-13.854 12.703,-27.948 18.439,-42.284c0.547,-1.686 2.288,-3.162 5.225,-4.427c2.937,-1.265 6.044,-2.078 9.322,-2.439c2.322,-0.602 4.303,-0.904 5.942,-0.904c3.824,0 5.941,1.265 6.351,3.795Z" style="fill-rule:nonzero;"/><path d="M3077.23,1370.91l-1.639,3.614l14.342,10.661l-1.434,-5.24c-0.956,-3.373 -2.868,-10.541 -5.737,-21.503l-5.532,12.468Zm23.357,-52.764c1.912,10.481 4.337,21.112 7.274,31.893c2.936,10.782 6.522,23.16 10.756,37.134c3.961,13.251 6.556,22.045 7.786,26.382c0.136,0.361 0.205,0.903 0.205,1.626c-0,2.891 -1.844,5.391 -5.532,7.499c-3.688,2.108 -7.513,3.162 -11.474,3.162c-3.278,0 -5.805,-0.783 -7.581,-2.349c-3.961,-3.734 -8.127,-7.288 -12.498,-10.661c-4.37,-3.373 -10.107,-7.529 -17.21,-12.468l-6.761,-4.879c-5.737,10.842 -10.176,18.853 -13.318,24.033c-0.956,1.807 -3.449,3.463 -7.478,4.969c-4.029,1.506 -7.751,2.259 -11.166,2.259c-3.825,-0 -5.737,-1.084 -5.737,-3.253c0,-0.602 0.205,-1.325 0.615,-2.168c4.097,-8.915 8.946,-19.154 14.547,-30.719l4.302,-9.215c-3.415,-3.012 -5.122,-4.518 -5.122,-4.518c-0.956,-0.843 -1.434,-1.807 -1.434,-2.891c-0,-2.048 1.502,-4.006 4.507,-5.873c3.005,-1.867 6.352,-3.102 10.04,-3.704c6.556,-13.854 12.703,-27.948 18.439,-42.284c0.547,-1.686 2.288,-3.162 5.225,-4.427c2.937,-1.265 6.044,-2.078 9.322,-2.439c2.322,-0.602 4.303,-0.904 5.942,-0.904c3.824,0 5.941,1.265 6.351,3.795Z" style="fill-rule:nonzero;"/><path d="M3156.93,1282.55c0.274,-2.288 2.459,-4.366 6.557,-6.234c4.097,-1.867 7.99,-2.801 11.678,-2.801c4.371,0 6.488,1.446 6.352,4.337c-2.186,21.564 -5.805,51.319 -10.859,89.265c-3.278,25.9 -5.396,42.705 -6.352,50.415c-0.273,2.53 -2.424,4.789 -6.454,6.776c-4.029,1.988 -7.956,2.982 -11.78,2.982c-5.327,-0 -7.786,-1.747 -7.376,-5.24c4.78,-41.441 10.859,-87.94 18.234,-139.5Z" style="fill-rule:nonzero;"/><path d="M3156.93,1282.55c0.274,-2.288 2.459,-4.366 6.557,-6.234c4.097,-1.867 7.99,-2.801 11.678,-2.801c4.371,0 6.488,1.446 6.352,4.337c-2.186,21.564 -5.805,51.319 -10.859,89.265c-3.278,25.9 -5.396,42.705 -6.352,50.415c-0.273,2.53 -2.424,4.789 -6.454,6.776c-4.029,1.988 -7.956,2.982 -11.78,2.982c-5.327,-0 -7.786,-1.747 -7.376,-5.24c4.78,-41.441 10.859,-87.94 18.234,-139.5Z" style="fill-rule:nonzero;"/></g></g><g id="title-2" serif:id="title 2"><g><g id="Plume-blanche2" serif:id="Plume blanche"></g></g></g><g id="title-1" serif:id="title 1"></g><g id="brand-name"></g></g><defs><linearGradient id="_Linear1" x1="0" y1="0" x2="1" y2="0" gradientUnits="userSpaceOnUse" gradientTransform="matrix(374.694,-50.3396,50.3396,374.694,2454.91,1089.35)"><stop offset="0" style="stop-color:#000;stop-opacity:1"/><stop offset="1" style="stop-color:#fff;stop-opacity:1"/></linearGradient><linearGradient id="_Linear2" x1="0" y1="0" x2="1" y2="0" gradientUnits="userSpaceOnUse" gradientTransform="matrix(345.219,-51.0976,51.0976,345.219,2495.57,1087.38)"><stop offset="0" style="stop-color:#000;stop-opacity:1"/><stop offset="1" style="stop-color:#262626;stop-opacity:1"/></linearGradient></defs></svg>