<?xml version="1.0" encoding="UTF-8" standalone="no"?><!DOCTYPE svg PUBLIC "-//W3C//DTD SVG 1.1//EN" "http://www.w3.org/Graphics/SVG/1.1/DTD/svg11.dtd"><svg width="100%" height="100%" viewBox="0 0 3350 700" version="1.1" xmlns="http://www.w3.org/2000/svg" xmlns:xlink="http://www.w3.org/1999/xlink" xml:space="preserve" xmlns:serif="http://www.serif.com/" style="fill-rule:evenodd;clip-rule:evenodd;stroke-linejoin:round;stroke-miterlimit:2;"><g id="Calque4"></g><g id="ligne-au-milieu" serif:id="ligne au milieu"></g><g id="Calque3"></g><g id="plume"></g><g id="Calque5"></g><g id="plume1" serif:id="plume"></g><g id="plume2" serif:id="plume"></g><g><path d="M245.191,284.713c0,-11.928 -1.781,-20.603 -5.342,-26.025c-3.561,-5.422 -8.507,-11.115 -14.837,-17.079l-199.414,-190.311c-1.583,-1.084 -2.968,-2.033 -4.155,-2.846c-1.187,-0.814 -2.44,-1.22 -3.759,-1.22c-3.956,0 -7.187,2.982 -9.693,8.946c-2.506,5.964 -3.759,12.742 -3.759,20.332c0,12.471 2.77,21.146 8.309,26.026l192.688,182.177l-192.688,181.365c-2.902,2.711 -5.012,6.506 -6.331,11.386c-1.319,4.88 -1.978,10.031 -1.978,15.453c0,7.048 1.253,13.554 3.759,19.519c2.506,5.964 5.737,8.946 9.693,8.946c1.319,0 3.957,-1.356 7.914,-4.067l199.414,-190.31c6.33,-5.964 11.276,-11.658 14.837,-17.079c3.561,-5.422 5.342,-13.826 5.342,-25.213Z" style="fill-rule:nonzero;"/><path d="M617.528,540.296c0,5.563 -0.967,10.554 -2.902,14.972c-1.935,4.418 -5.052,6.627 -9.351,6.627l-383.721,0c-4.3,0 -7.363,-2.209 -9.19,-6.627c-1.827,-4.418 -2.741,-9.409 -2.741,-14.972c0,-5.564 0.914,-10.555 2.741,-14.973c1.827,-4.418 4.89,-6.627 9.19,-6.627l383.721,0c4.299,0 7.416,2.209 9.351,6.627c1.935,4.418 2.902,9.409 2.902,14.973Z" style="fill-rule:nonzero;"/><path d="M1185.39,205.198c0,29.78 -2.454,54.898 -7.363,75.351c-4.909,20.454 -11.727,37.39 -20.454,50.808c-8.727,13.417 -19.254,23.808 -31.581,31.171c-12.327,7.364 -25.908,12.845 -40.744,16.445c-14.836,3.6 -30.708,5.727 -47.616,6.382c-16.909,0.654 -34.308,0.981 -52.198,0.981l-97.524,0l0,133.523c0,9.491 -0.818,18.081 -2.455,25.772c-1.636,7.69 -5.072,11.536 -10.308,11.536c-6.327,0 -10.418,-3.682 -12.273,-11.045c-1.854,-7.364 -2.781,-16.118 -2.781,-26.263l0,-491.382c0,-4.909 0.272,-8.591 0.818,-11.046c0.545,-2.454 1.472,-4.172 2.781,-5.154c1.31,-0.982 3,-1.554 5.073,-1.718c2.073,-0.164 4.745,-0.245 8.018,-0.245l108.651,0c19.853,0 38.562,0.818 56.125,2.454c17.563,1.636 33.762,4.991 48.598,10.063c14.836,5.073 28.145,12.027 39.926,20.863c11.781,8.836 21.763,20.536 29.944,35.099c8.182,14.563 14.454,32.153 18.818,52.771c4.363,20.617 6.545,45.162 6.545,73.634Zm-27.817,0c0,-34.036 -3.436,-61.689 -10.309,-82.961c-6.872,-21.272 -17.345,-37.799 -31.417,-49.58c-14.072,-11.782 -31.908,-19.718 -53.507,-23.808c-21.599,-4.091 -47.235,-6.137 -76.906,-6.137l-97.524,0l0,313.189l97.524,0c29.671,0 55.361,-1.391 77.07,-4.172c21.708,-2.782 39.598,-9.327 53.67,-19.636c14.073,-10.309 24.49,-25.445 31.254,-45.407c6.763,-19.963 10.145,-47.126 10.145,-81.488Z" style="fill-rule:nonzero;"/><path d="M1440.98,183.107c2.4,0.982 4.145,2.864 5.236,5.646c1.091,2.781 1.636,5.809 1.636,9.081c0,4.255 -0.927,8.182 -2.781,11.782c-1.855,3.599 -4.637,5.399 -8.345,5.399c-1.091,0 -1.746,-0.081 -1.964,-0.245c-0.218,-0.164 -0.873,-0.409 -1.964,-0.736c-8.508,-3.6 -16.635,-6.382 -24.381,-8.346c-7.745,-1.963 -16.199,-2.945 -25.362,-2.945c-12.873,0 -25.145,1.882 -36.817,5.645c-11.672,3.764 -22.254,9.491 -31.744,17.182c-9.491,7.69 -17.727,17.508 -24.709,29.453c-6.981,11.945 -12.217,25.935 -15.708,41.971l0,225.81c0,8.509 -0.764,16.363 -2.291,23.563c-1.527,7.2 -5.018,10.8 -10.472,10.8c-3.055,0 -5.509,-0.982 -7.364,-2.946c-1.854,-1.963 -3.218,-4.581 -4.091,-7.854c-0.872,-3.272 -1.418,-6.954 -1.636,-11.045c-0.218,-4.091 -0.327,-8.263 -0.327,-12.518l0,-314.17c0,-7.527 0.873,-13.991 2.618,-19.39c1.745,-5.4 5.782,-8.1 12.109,-8.1c4.799,0 7.908,2.618 9.327,7.854c1.418,5.236 2.127,11.781 2.127,19.636l0,56.943c3.491,-19.963 9.545,-36.162 18.163,-48.598c8.618,-12.436 18.217,-22.008 28.799,-28.717c10.581,-6.709 21.435,-11.209 32.562,-13.5c11.127,-2.291 20.945,-3.436 29.454,-3.436c8.29,0 15.436,0.409 21.435,1.227c6,0.818 11.182,1.8 15.545,2.946c4.364,1.145 8.182,2.372 11.454,3.681c3.273,1.309 6.436,2.618 9.491,3.927Z" style="fill-rule:nonzero;"/><path d="M1648.14,562.076c-30.108,0 -55.525,-4.5 -76.252,-13.5c-20.726,-9 -37.471,-21.845 -50.234,-38.535c-12.763,-16.69 -21.981,-36.98 -27.654,-60.87c-5.672,-23.89 -8.509,-50.889 -8.509,-80.997c0,-34.69 3.218,-64.389 9.655,-89.097c6.436,-24.709 16.363,-45.081 29.78,-61.116c13.418,-16.036 30.327,-27.817 50.726,-35.344c20.399,-7.528 44.562,-11.291 72.488,-11.291c27.926,0 52.089,3.763 72.488,11.291c20.4,7.527 37.308,19.308 50.726,35.344c13.418,16.035 23.345,36.407 29.781,61.116c6.436,24.708 9.654,54.407 9.654,89.097c0,30.108 -2.836,57.107 -8.509,80.997c-5.672,23.89 -14.89,44.18 -27.653,60.87c-12.764,16.69 -29.508,29.535 -50.235,38.535c-20.727,9 -46.144,13.5 -76.252,13.5Zm0,-28.963c19.854,0 36.981,-2.209 51.38,-6.627c14.4,-4.418 26.672,-10.554 36.817,-18.408c10.145,-7.855 18.327,-17.018 24.545,-27.49c6.218,-10.473 11.126,-21.845 14.726,-34.117c3.6,-12.273 6,-25.036 7.2,-38.29c1.2,-13.254 1.8,-26.59 1.8,-40.007c0,-30.436 -2.618,-56.289 -7.854,-77.561c-5.236,-21.272 -13.418,-38.617 -24.545,-52.035c-11.127,-13.418 -25.308,-23.154 -42.544,-29.208c-17.236,-6.054 -37.744,-9.081 -61.525,-9.081c-23.999,0 -44.562,3.027 -61.689,9.081c-17.126,6.054 -31.253,15.79 -42.38,29.208c-11.127,13.418 -19.308,30.763 -24.544,52.035c-5.237,21.272 -7.855,47.125 -7.855,77.561c0,13.417 0.6,26.753 1.8,40.007c1.2,13.254 3.6,26.017 7.2,38.29c3.6,12.272 8.509,23.644 14.727,34.117c6.218,10.472 14.399,19.635 24.544,27.49c10.145,7.854 22.418,13.99 36.817,18.408c14.4,4.418 31.526,6.627 51.38,6.627Z" style="fill-rule:nonzero;"/><path d="M1968.53,511.023c0,11.454 -0.164,23.726 -0.491,36.817c-0.327,13.09 -1.418,26.181 -3.273,39.271c-1.854,13.091 -4.745,25.69 -8.672,37.799c-3.927,12.108 -9.436,22.826 -16.527,32.153c-7.091,9.327 -16.09,16.772 -26.999,22.336c-10.909,5.563 -24.217,8.345 -39.926,8.345c-2.836,0 -5.563,-0.082 -8.181,-0.246c-2.618,-0.163 -4.909,-0.818 -6.873,-1.963c-1.963,-1.146 -3.545,-2.864 -4.745,-5.154c-1.2,-2.291 -1.8,-5.564 -1.8,-9.818c0,-4.255 0.6,-7.527 1.8,-9.818c1.2,-2.291 2.782,-3.927 4.745,-4.909c1.964,-0.982 4.255,-1.555 6.873,-1.718c2.618,-0.164 5.345,-0.246 8.181,-0.246c18.109,0 31.908,-4.254 41.399,-12.763c9.49,-8.509 16.363,-19.554 20.617,-33.135c4.255,-13.581 6.6,-28.881 7.036,-45.898c0.437,-17.018 0.655,-34.035 0.655,-51.053l0,-304.353c0,-7.2 0.818,-13.254 2.454,-18.163c1.637,-4.909 5.291,-7.363 10.964,-7.363c6.327,0 10.036,2.454 11.126,7.363c1.091,4.909 1.637,10.963 1.637,18.163l0,304.353Zm-30.763,-440.821c0,-7.527 1.636,-13.826 4.909,-18.899c3.273,-5.073 7.418,-7.609 12.436,-7.609c5.018,0 9.272,2.536 12.763,7.609c3.491,5.073 5.236,11.372 5.236,18.899c0,7.527 -1.745,13.582 -5.236,18.163c-3.491,4.582 -7.745,6.873 -12.763,6.873c-5.018,0 -9.163,-2.291 -12.436,-6.873c-3.273,-4.581 -4.909,-10.636 -4.909,-18.163Z" style="fill-rule:nonzero;"/><path d="M2205.46,200.289c-20.29,0 -38.29,2.618 -53.998,7.854c-15.709,5.236 -29.072,13.663 -40.09,25.281c-11.018,11.618 -19.581,26.59 -25.69,44.916c-6.109,18.327 -9.599,40.744 -10.472,67.252l246.755,0l0,-26.508c0,-16.363 -2.018,-31.744 -6.055,-46.143c-4.036,-14.4 -10.636,-26.999 -19.799,-37.799c-9.163,-10.8 -21.163,-19.309 -35.999,-25.526c-14.836,-6.218 -33.053,-9.327 -54.652,-9.327Zm-17.018,332.824c20.727,0 38.835,-1.964 54.325,-5.891c15.491,-3.927 28.799,-8.672 39.926,-14.235c11.127,-5.564 20.236,-11.291 27.327,-17.182c7.09,-5.89 12.599,-10.799 16.526,-14.726c1.309,-0.655 2.182,-0.982 2.618,-0.982c2.4,0 4.637,1.718 6.709,5.154c2.073,3.436 3.109,7.118 3.109,11.045c0,3.6 -1.091,6.545 -3.272,8.836c-1.964,2.946 -6.164,7.527 -12.6,13.745c-6.436,6.218 -15.654,12.518 -27.654,18.9c-11.999,6.381 -26.835,12.026 -44.507,16.935c-17.672,4.909 -38.617,7.364 -62.834,7.364c-25.308,0 -46.798,-4.746 -64.471,-14.236c-17.672,-9.491 -32.071,-22.745 -43.198,-39.762c-11.127,-17.018 -19.199,-37.472 -24.217,-61.362c-5.018,-23.89 -7.527,-50.071 -7.527,-78.542c0,-37.963 4.036,-69.543 12.108,-94.743c8.073,-25.199 19.145,-45.407 33.217,-60.625c14.073,-15.217 30.654,-25.935 49.744,-32.153c19.09,-6.218 39.653,-9.327 61.689,-9.327c45.38,0 79.36,13.009 101.942,39.026c22.581,26.017 33.871,63.243 33.871,111.678c0,4.581 -0.218,9.654 -0.655,15.217c-0.436,5.564 -1.036,10.882 -1.799,15.954c-0.764,5.073 -1.637,9.327 -2.619,12.763c-0.981,3.437 -1.909,5.155 -2.781,5.155l-96.215,0l-162.321,-4.909c0.436,30.435 3.109,56.207 8.017,77.315c4.909,21.109 12.109,38.29 21.6,51.544c9.49,13.254 21.217,22.908 35.18,28.963c13.963,6.054 30.217,9.081 48.762,9.081Z" style="fill-rule:nonzero;"/><path d="M2584.43,200.289c-25.09,0 -46.471,3.109 -64.143,9.327c-17.672,6.217 -32.126,16.117 -43.362,29.698c-11.236,13.582 -19.472,31.008 -24.708,52.28c-5.237,21.272 -7.855,46.799 -7.855,76.58c0,30.108 2.891,55.634 8.673,76.579c5.781,20.944 14.508,37.962 26.181,51.052c11.672,13.091 26.235,22.581 43.689,28.472c17.454,5.891 37.853,8.836 61.198,8.836c10.472,0 21.108,-1.145 31.908,-3.436c10.799,-2.291 21.108,-5.155 30.926,-8.591c9.818,-3.436 18.872,-7.281 27.162,-11.536c8.291,-4.254 15.054,-8.345 20.291,-12.272c3.272,-1.636 5.563,-2.454 6.872,-2.454c2.836,0 5.073,1.227 6.709,3.681c1.636,2.455 2.454,5.482 2.454,9.082c0,2.618 -0.545,5.318 -1.636,8.099c-1.091,2.782 -2.836,5.155 -5.236,7.118c-19.199,14.727 -39.053,24.954 -59.562,30.681c-20.508,5.727 -40.362,8.591 -59.561,8.591c-24.872,0 -47.507,-2.946 -67.907,-8.836c-20.399,-5.891 -37.853,-16.2 -52.361,-30.927c-14.509,-14.726 -25.8,-34.526 -33.872,-59.397c-8.072,-24.872 -12.109,-56.453 -12.109,-94.742c0,-37.963 3.709,-69.543 11.127,-94.743c7.418,-25.199 18.218,-45.407 32.399,-60.625c14.181,-15.217 31.581,-25.935 52.198,-32.153c20.618,-6.218 44.126,-9.327 70.525,-9.327c19.199,0 39.053,2.864 59.561,8.591c20.509,5.727 40.363,15.954 59.562,30.68c2.4,1.964 4.145,4.337 5.236,7.118c1.091,2.782 1.636,5.482 1.636,8.1c0,3.6 -0.818,6.627 -2.454,9.081c-1.636,2.455 -3.873,3.682 -6.709,3.682c-1.309,0 -3.6,-0.818 -6.872,-2.454c-5.237,-3.927 -12,-8.018 -20.291,-12.273c-8.29,-4.254 -17.344,-8.099 -27.162,-11.536c-9.818,-3.436 -20.127,-6.299 -30.926,-8.59c-10.8,-2.291 -21.327,-3.436 -31.581,-3.436Z" style="fill-rule:nonzero;"/><path d="M2944.74,188.507c3.273,0 5.727,1.227 7.364,3.682c1.636,2.454 2.454,5.154 2.454,8.1c0,2.945 -0.818,5.645 -2.454,8.099c-1.637,2.455 -4.091,3.682 -7.364,3.682l-108.65,0l0,208.138c0,23.89 1.636,43.198 4.909,57.925c3.272,14.727 7.69,26.181 13.254,34.363c5.563,8.181 12.108,13.663 19.635,16.444c7.527,2.782 15.545,4.173 24.054,4.173c10.472,0 20.727,-2.782 30.763,-8.345c10.036,-5.564 21.599,-13.581 34.689,-24.054c2.618,-1.963 5.127,-2.945 7.527,-2.945c2.837,0 5.073,1.227 6.709,3.682c1.636,2.454 2.455,5.481 2.455,9.081c0,6.545 -2.4,11.781 -7.2,15.709c-9.163,7.527 -17.29,13.581 -24.381,18.163c-7.091,4.581 -13.636,8.181 -19.636,10.799c-6,2.618 -11.836,4.418 -17.508,5.4c-5.673,0.982 -11.673,1.473 -18,1.473c-11.781,0 -22.744,-2.455 -32.889,-7.364c-10.145,-4.909 -18.981,-12.845 -26.508,-23.808c-7.528,-10.963 -13.418,-25.526 -17.673,-43.689c-4.254,-18.163 -6.381,-40.499 -6.381,-67.007l0,-208.138l-28.799,0c-3.055,0 -5.345,-1.227 -6.873,-3.682c-1.527,-2.454 -2.29,-5.154 -2.29,-8.099c0,-2.946 0.763,-5.646 2.29,-8.1c1.528,-2.455 3.818,-3.682 6.873,-3.682l28.799,0l0,-122.232c0,-10.472 1.418,-17.099 4.254,-19.881c2.836,-2.782 5.782,-4.172 8.836,-4.172c3.709,0 6.818,1.39 9.327,4.172c2.509,2.782 3.764,9.409 3.764,19.881l0,122.232l108.65,0Z" style="fill-rule:nonzero;"/><path d="M3307.68,454.57c0,-17.344 -4.091,-30.762 -12.272,-40.253c-8.182,-9.49 -18.982,-16.445 -32.399,-20.863c-13.418,-4.418 -28.69,-7.199 -45.817,-8.345c-17.126,-1.145 -34.58,-2.127 -52.362,-2.945c-17.781,-0.818 -35.235,-2.291 -52.361,-4.418c-17.127,-2.127 -32.399,-6.545 -45.817,-13.254c-13.418,-6.709 -24.217,-16.363 -32.399,-28.963c-8.181,-12.599 -12.272,-29.862 -12.272,-51.789c0,-22.581 4.091,-41.071 12.272,-55.471c8.182,-14.399 18.927,-25.853 32.235,-34.362c13.309,-8.509 28.363,-14.399 45.162,-17.672c16.8,-3.273 33.927,-4.909 51.38,-4.909c28.581,0 55.198,3.518 79.852,10.554c24.654,7.036 47.562,18.899 68.725,35.59c2.182,1.636 3.654,3.681 4.418,6.136c0.764,2.454 1.255,4.991 1.473,7.609c0,4.254 -0.873,8.018 -2.618,11.29c-1.746,3.273 -3.709,4.909 -5.891,4.909c-1.309,0 -2.182,-0.327 -2.618,-0.982c-18.545,-14.072 -39.544,-25.281 -62.998,-33.626c-23.454,-8.345 -49.798,-12.517 -79.033,-12.517c-14.836,0 -29.236,1.39 -43.199,4.172c-13.963,2.782 -26.344,7.364 -37.144,13.745c-10.8,6.382 -19.472,14.891 -26.017,25.526c-6.546,10.636 -9.818,23.972 -9.818,40.008c0,16.363 4.091,28.963 12.272,37.799c8.182,8.836 18.981,15.299 32.399,19.39c13.418,4.091 28.69,6.627 45.817,7.609c17.126,0.982 34.58,1.963 52.361,2.945c17.781,0.982 35.235,2.7 52.362,5.155c17.127,2.454 32.399,7.199 45.817,14.235c13.417,7.037 24.217,17.182 32.398,30.436c8.182,13.254 12.273,31.008 12.273,53.261c0,19.963 -4.146,36.817 -12.436,50.562c-8.291,13.745 -19.309,24.79 -33.054,33.135c-13.745,8.346 -29.617,14.4 -47.616,18.163c-17.999,3.764 -36.599,5.646 -55.798,5.646c-11.781,0 -24.49,-0.409 -38.126,-1.228c-13.636,-0.818 -27.272,-2.781 -40.908,-5.89c-13.635,-3.109 -26.726,-7.855 -39.271,-14.236c-12.545,-6.382 -23.508,-15.136 -32.89,-26.263c-3.054,-3.6 -4.581,-7.854 -4.581,-12.763c0,-4.254 0.818,-7.936 2.454,-11.045c1.636,-3.109 3.655,-4.664 6.054,-4.664c1.746,0 3.055,0.655 3.928,1.964c9.163,9.491 19.035,17.181 29.617,23.072c10.581,5.891 21.763,10.472 33.544,13.745c11.781,3.273 24.108,5.482 36.981,6.627c12.872,1.145 26.18,1.718 39.925,1.718c16.363,0 32.126,-1.227 47.29,-3.682c15.163,-2.454 28.58,-6.708 40.253,-12.763c11.672,-6.054 20.999,-14.072 27.98,-24.053c6.982,-9.982 10.473,-22.663 10.473,-38.045Z" style="fill-rule:nonzero;"/></g></svg>