<?xml version="1.0" standalone="no"?>
<!DOCTYPE svg PUBLIC "-//W3C//DTD SVG 20010904//EN"
 "http://www.w3.org/TR/2001/REC-SVG-20010904/DTD/svg10.dtd">
<svg version="1.0" xmlns="http://www.w3.org/2000/svg"
 width="700.000000pt" height="700.000000pt" viewBox="0 0 700.000000 700.000000"
 preserveAspectRatio="xMidYMid meet">
<metadata>
Created by potrace 1.11, written by Peter Selinger 2001-2013
</metadata>
<g transform="translate(0.000000,700.000000) scale(0.100000,-0.100000)"
fill="#000000" stroke="none">
<path d="M4754 5939 c-5 -8 -3 -9 6 -4 9 5 11 4 6 -4 -6 -9 -11 -9 -22 0 -11
9 -14 9 -14 -1 0 -10 -3 -10 -14 -1 -11 9 -18 7 -34 -13 -10 -14 -22 -23 -26
-21 -3 3 -4 2 -1 -2 3 -4 -7 -20 -22 -36 -16 -17 -22 -27 -15 -23 14 9 17 -10
2 -19 -6 -4 -8 -11 -4 -16 3 -5 0 -8 -8 -7 -7 2 -12 -3 -10 -9 1 -7 -2 -13 -8
-13 -5 0 -9 -6 -7 -12 1 -7 -4 -12 -11 -10 -8 1 -11 -2 -8 -7 4 -5 -1 -17 -10
-25 -8 -9 -12 -16 -8 -16 3 0 1 -7 -6 -15 -6 -8 -8 -20 -4 -27 6 -10 4 -10 -9
0 -14 12 -16 11 -12 -7 2 -12 -1 -21 -6 -21 -6 0 -7 -5 -3 -12 5 -7 2 -9 -8
-6 -11 5 -14 0 -12 -17 2 -18 -2 -22 -14 -17 -15 5 -15 3 -4 -10 10 -13 10
-18 1 -24 -8 -5 -9 -3 -4 6 5 9 4 11 -3 6 -7 -4 -12 -15 -12 -24 0 -9 -9 -28
-20 -42 -11 -14 -20 -31 -20 -37 0 -7 -5 -13 -11 -13 -5 0 -8 -4 -5 -8 3 -5
-4 -15 -14 -22 -13 -9 -16 -18 -10 -25 7 -8 5 -12 -5 -12 -8 0 -16 6 -19 14
-3 7 -1 13 5 13 6 0 7 5 4 10 -3 6 1 13 10 16 9 4 13 13 10 24 -3 10 2 25 10
34 9 9 13 16 9 16 -3 0 -2 6 4 13 6 6 10 15 9 19 -1 3 2 10 7 15 5 4 6 3 2 -4
-3 -6 -2 -15 4 -18 8 -5 7 -12 -2 -23 -12 -15 -11 -16 5 -3 13 10 15 17 6 27
-6 8 -8 14 -5 14 4 0 2 9 -4 20 -8 15 -8 20 2 18 6 -2 13 4 14 12 0 8 2 21 2
28 1 8 7 10 15 6 9 -6 9 -4 -1 8 -10 13 -10 18 -1 24 8 5 9 3 4 -6 -5 -8 -4
-11 2 -7 6 4 13 25 17 47 3 22 10 40 16 40 5 0 7 9 5 21 -3 14 0 19 9 16 9 -4
12 2 10 19 -1 13 2 24 8 24 6 0 4 7 -3 17 -10 11 -10 14 -1 9 8 -5 12 0 12 13
0 12 -5 21 -11 21 -5 0 -8 4 -5 9 11 17 -19 19 -38 2 -16 -13 -18 -13 -11 -1
7 12 6 13 -6 4 -8 -6 -34 -12 -59 -13 -25 -1 -53 -4 -64 -7 -10 -4 -16 -2 -13
3 4 5 0 10 -7 10 -8 0 -12 -7 -8 -15 4 -12 -1 -14 -21 -10 -15 3 -27 2 -27 -2
0 -4 -9 -10 -20 -13 -11 -3 -18 -1 -15 3 3 5 -4 7 -16 5 -13 -3 -26 -10 -30
-16 -4 -7 -14 -9 -23 -6 -21 8 -48 -2 -40 -15 4 -6 -2 -5 -14 1 -14 7 -23 8
-27 1 -4 -6 -11 -7 -17 -4 -6 4 -8 2 -5 -3 4 -6 0 -14 -9 -17 -10 -4 -13 -2
-9 7 4 6 -1 3 -9 -7 -12 -15 -16 -16 -16 -5 0 11 -2 12 -9 1 -4 -8 -11 -13
-15 -13 -25 4 -46 -1 -42 -8 4 -5 -5 -8 -19 -6 -14 1 -25 -3 -25 -9 0 -6 -5
-4 -10 4 -7 12 -10 12 -10 1 0 -7 -6 -11 -15 -7 -9 3 -15 0 -15 -10 0 -9 -5
-12 -11 -8 -6 3 -15 0 -20 -7 -7 -12 -9 -11 -9 1 0 10 -3 11 -8 3 -4 -6 -14
-13 -22 -15 -8 -2 -21 -10 -27 -18 -11 -13 -12 -12 -7 5 5 19 5 19 -10 1 -8
-10 -19 -15 -25 -11 -6 3 -11 2 -11 -4 0 -5 -9 -8 -19 -6 -14 2 -18 -1 -15
-10 4 -9 -2 -13 -20 -11 -15 2 -27 -3 -30 -11 -4 -8 -12 -13 -19 -10 -6 2 -16
-2 -22 -9 -5 -8 -25 -15 -43 -16 -18 -1 -38 -8 -44 -15 -6 -7 -15 -10 -21 -6
-6 4 -7 1 -2 -7 6 -10 4 -12 -9 -7 -10 4 -19 1 -22 -8 -4 -8 -10 -13 -14 -10
-4 3 -11 -2 -14 -11 -4 -9 -13 -14 -21 -10 -8 3 -15 1 -15 -5 0 -6 -4 -7 -10
-4 -5 3 -10 1 -10 -4 0 -6 -7 -11 -16 -11 -21 0 -75 -45 -66 -55 4 -4 0 -6 -8
-3 -17 5 -40 -14 -40 -33 0 -7 -6 -4 -15 7 -13 18 -14 18 -8 -5 5 -18 3 -22
-7 -16 -10 6 -12 4 -7 -8 4 -10 2 -16 -5 -14 -7 1 -13 -4 -14 -10 -3 -27 -5
-28 -15 -13 -9 12 -10 11 -6 -8 3 -12 -1 -28 -8 -36 -9 -9 -10 -17 -3 -24 6
-6 6 -12 -3 -17 -8 -6 -10 -4 -4 5 5 9 4 11 -3 6 -9 -5 -9 -13 -2 -26 7 -13 7
-21 -1 -25 -6 -4 -8 -13 -5 -21 3 -8 0 -11 -10 -7 -11 4 -14 -1 -10 -21 3 -15
0 -26 -6 -26 -7 0 -6 -5 1 -14 9 -11 9 -16 0 -22 -8 -5 -9 -3 -4 6 5 8 4 11
-3 7 -5 -4 -9 -18 -7 -32 1 -14 -1 -25 -6 -25 -4 0 -6 -9 -4 -21 3 -16 0 -19
-12 -15 -13 5 -14 4 -3 -9 8 -10 9 -15 2 -15 -6 0 -9 -7 -6 -15 4 -9 0 -15 -7
-15 -12 0 -12 -2 0 -9 9 -6 10 -11 2 -15 -6 -4 -11 -12 -11 -17 0 -6 5 -7 12
-3 7 4 8 3 4 -4 -4 -7 -15 -12 -24 -12 -10 0 -13 -3 -7 -8 6 -4 11 -15 11 -25
1 -10 0 -16 -4 -13 -3 3 -11 -6 -19 -21 -9 -18 -10 -30 -3 -37 6 -6 5 -15 -6
-27 -9 -10 -11 -19 -6 -23 6 -3 8 -15 5 -26 -3 -11 -9 -18 -13 -15 -4 3 -6
-11 -4 -30 1 -19 -1 -35 -6 -35 -5 0 -7 -7 -4 -15 4 -8 1 -15 -6 -15 -6 0 -8
-5 -5 -10 4 -6 11 -8 16 -4 6 3 5 -3 -3 -15 -7 -12 -14 -17 -16 -11 -2 6 -8 8
-12 5 -5 -3 -6 5 -3 17 3 13 6 57 7 100 0 42 4 74 7 72 4 -2 10 3 13 12 3 8 2
12 -4 9 -6 -3 -10 -1 -10 4 0 6 4 11 8 11 5 0 9 12 9 28 2 79 7 129 16 146 6
13 6 16 -2 12 -6 -4 -11 -3 -11 3 0 5 8 15 18 20 10 6 12 11 4 11 -7 0 -11 4
-8 9 4 5 2 11 -3 13 -5 1 -1 21 10 43 l19 40 -22 -25 c-17 -20 -20 -21 -13 -5
5 11 8 30 8 42 -1 13 2 21 6 18 4 -2 8 2 8 10 0 8 -7 15 -16 15 -11 0 -10 3 5
15 18 15 18 15 0 8 -11 -4 -17 -2 -13 3 3 6 2 16 -4 24 -7 13 -9 13 -9 0 0
-13 -1 -13 -10 0 -9 13 -10 13 -10 0 0 -12 -2 -13 -9 -1 -7 11 -14 9 -39 -9
-16 -12 -35 -19 -41 -16 -7 5 -9 1 -5 -8 5 -12 0 -16 -19 -16 -14 0 -29 -5
-33 -12 -5 -7 -3 -8 6 -3 8 5 11 4 6 -3 -4 -6 -14 -8 -22 -5 -9 3 -20 0 -25
-8 -7 -12 -9 -12 -9 1 -1 12 -3 11 -11 -2 -5 -10 -17 -18 -25 -18 -8 0 -13 -4
-9 -9 3 -6 -4 -8 -15 -6 -11 2 -18 1 -16 -4 3 -4 -4 -13 -16 -20 -16 -10 -19
-10 -12 1 6 10 4 10 -9 -1 -9 -7 -14 -17 -11 -22 3 -5 1 -9 -5 -9 -5 0 -12 6
-14 13 -3 7 -6 4 -6 -6 -1 -10 -4 -16 -8 -14 -10 6 -53 -39 -46 -47 4 -3 -4
-6 -17 -6 -13 0 -21 -3 -17 -6 9 -9 -21 -36 -33 -29 -6 4 -7 -1 -3 -11 5 -13
3 -16 -10 -11 -9 3 -16 3 -16 -1 3 -20 -3 -32 -16 -32 -9 0 -12 -6 -9 -15 4
-10 0 -15 -11 -15 -9 0 -14 -4 -10 -9 3 -5 -3 -16 -12 -23 -10 -7 -19 -20 -21
-28 -2 -8 -7 -16 -12 -18 -5 -2 -6 -10 -3 -19 4 -11 2 -14 -5 -9 -7 4 -12 2
-12 -4 0 -6 -5 -8 -11 -4 -8 4 -8 0 0 -15 10 -17 9 -21 -5 -21 -10 0 -14 -5
-11 -14 3 -8 -2 -17 -11 -21 -14 -5 -14 -7 -2 -15 13 -8 12 -10 -2 -10 -12 0
-15 -5 -11 -17 4 -10 2 -14 -4 -10 -7 5 -9 0 -6 -12 3 -11 -2 -21 -10 -24 -10
-4 -13 -13 -10 -28 5 -17 3 -20 -8 -14 -12 8 -12 6 0 -8 12 -15 12 -17 -4 -11
-13 5 -16 4 -11 -4 11 -18 -3 -54 -17 -45 -7 4 -6 -1 2 -10 11 -13 11 -17 1
-17 -8 0 -11 -3 -7 -6 3 -4 0 -21 -7 -39 -11 -25 -11 -36 -3 -45 9 -10 9 -11
0 -6 -9 5 -13 -1 -14 -16 -3 -52 -7 -68 -20 -85 -9 -11 -10 -14 -1 -9 6 4 12
2 12 -3 0 -6 -4 -11 -10 -11 -5 0 -10 -5 -10 -11 0 -5 4 -8 9 -5 11 7 9 -14
-4 -34 -13 -21 -14 -50 -1 -50 6 0 4 -4 -4 -10 -8 -5 -11 -12 -7 -16 4 -4 0
-18 -9 -32 -9 -13 -12 -22 -6 -18 5 3 13 -1 16 -10 3 -8 2 -12 -4 -9 -12 7
-12 7 -13 -106 0 -79 -2 -86 -24 -96 -12 -6 -21 -7 -18 -3 3 5 2 10 -2 13 -5
2 -2 2 4 1 16 -4 17 13 2 18 -6 2 -12 18 -12 35 -1 21 -5 29 -12 23 -7 -6 -10
0 -9 18 1 15 -4 33 -10 41 -7 10 -7 13 0 8 18 -10 12 22 -7 39 -14 12 -16 22
-9 40 8 19 5 27 -13 40 -18 13 -18 15 -3 10 18 -6 18 -5 1 20 -15 23 -15 26
-2 21 11 -4 14 -2 10 9 -3 7 -8 14 -13 14 -4 0 -6 23 -6 51 2 53 -15 86 -36
73 -7 -4 -8 -2 -4 5 4 6 13 8 19 5 8 -5 9 -4 2 4 -9 10 -42 16 -74 13 -8 -1
-11 -4 -8 -7 9 -10 -12 -46 -24 -39 -5 4 -9 3 -9 -2 -1 -13 -86 -103 -99 -103
-6 0 -10 -3 -10 -7 4 -23 -3 -33 -23 -33 -19 0 -20 -2 -8 -10 14 -9 7 -14 -13
-11 -5 1 -6 -3 -3 -8 4 -5 2 -12 -4 -16 -6 -4 -7 -12 -3 -18 4 -7 -1 -6 -10 2
-15 12 -17 12 -11 -4 5 -13 4 -16 -4 -11 -8 5 -10 2 -6 -8 4 -10 1 -16 -9 -16
-11 0 -15 -7 -12 -21 4 -18 2 -19 -12 -7 -12 9 -15 9 -9 0 4 -7 1 -14 -8 -18
-9 -3 -12 -12 -9 -21 4 -11 2 -14 -5 -9 -7 4 -12 1 -12 -9 0 -8 -7 -18 -15
-21 -8 -4 -15 -10 -15 -16 0 -5 -7 -16 -15 -24 -8 -9 -15 -25 -15 -36 0 -13
-5 -18 -14 -15 -9 4 -13 0 -12 -11 3 -18 -15 -42 -27 -35 -4 2 -7 -1 -7 -6 0
-6 5 -11 10 -11 6 0 5 -6 -2 -14 -7 -8 -17 -11 -22 -8 -5 3 -7 -5 -3 -17 4
-16 2 -21 -8 -17 -9 3 -12 -1 -10 -15 2 -10 0 -19 -5 -19 -5 0 -7 -7 -4 -15 4
-8 -1 -17 -9 -21 -9 -3 -14 -14 -12 -26 3 -15 1 -17 -8 -9 -13 10 -14 8 -20
-53 -1 -18 -5 -22 -14 -14 -10 8 -12 3 -9 -20 3 -26 0 -30 -17 -26 -15 2 -18
1 -10 -7 13 -13 6 -42 -8 -33 -5 3 -6 -2 -3 -10 4 -10 1 -16 -7 -16 -11 0 -11
-3 1 -10 9 -6 10 -10 3 -10 -7 0 -10 -9 -8 -21 3 -14 0 -19 -9 -16 -9 4 -13
-4 -13 -26 1 -20 -4 -31 -12 -29 -9 2 -9 -3 0 -19 6 -12 7 -19 1 -15 -5 3 -13
-1 -16 -10 -4 -10 -2 -13 7 -9 6 4 1 -4 -13 -16 -16 -14 -19 -20 -8 -16 12 4
15 2 11 -9 -3 -7 -9 -14 -13 -14 -5 0 -7 -8 -6 -17 2 -10 -4 -24 -13 -31 -9
-8 -11 -11 -5 -8 7 3 14 -3 17 -15 4 -15 2 -18 -7 -10 -14 11 -14 9 -17 -54 0
-19 -5 -32 -10 -29 -5 3 -9 1 -9 -5 0 -5 6 -12 13 -15 9 -3 8 -8 -3 -18 -8 -7
-15 -24 -15 -38 0 -14 -4 -30 -8 -37 -5 -7 -6 -16 -3 -22 3 -5 -1 -12 -9 -15
-12 -4 -13 -10 -6 -24 7 -13 7 -22 -1 -30 -7 -7 -9 -12 -5 -12 4 0 2 -10 -4
-22 -12 -22 -11 -22 6 -8 17 14 17 14 7 -7 -7 -12 -13 -33 -14 -47 -1 -15 -6
-26 -11 -26 -5 0 -4 -6 2 -13 6 -8 7 -17 3 -21 -7 -8 -9 -19 -11 -91 -1 -30
-5 -43 -13 -41 -7 1 -10 1 -5 -1 4 -3 7 -14 7 -24 0 -11 -4 -18 -9 -14 -6 3
-6 -6 -1 -25 5 -18 5 -32 -1 -36 -5 -3 -6 -10 -3 -16 10 -15 11 -68 2 -68 -4
0 -3 -13 2 -30 6 -21 5 -30 -3 -30 -7 0 -6 -4 3 -10 11 -7 11 -10 2 -10 -7 0
-10 -4 -7 -10 3 -5 3 -15 -1 -22 -13 -20 -14 -59 -2 -52 7 4 8 2 4 -5 -4 -6
-12 -9 -17 -6 -8 6 -13 -9 -10 -29 1 -5 -5 -6 -14 -2 -9 3 -14 2 -11 -3 3 -5
-5 -20 -19 -32 -13 -13 -25 -30 -25 -37 0 -8 -5 -10 -12 -6 -8 5 -9 2 -5 -9 7
-18 -24 -42 -38 -29 -4 4 -2 -4 5 -17 7 -14 8 -21 1 -17 -11 7 -53 -29 -48
-41 1 -5 -2 -9 -7 -10 -5 -1 -21 -21 -37 -45 -16 -24 -34 -42 -40 -40 -6 1 -8
-2 -5 -7 9 -14 -4 -41 -20 -41 -8 0 -14 -7 -14 -15 0 -9 -7 -18 -15 -21 -8 -4
-12 -11 -8 -17 4 -7 0 -8 -11 -4 -13 5 -17 3 -13 -7 7 -17 -26 -59 -37 -48 -4
4 -7 2 -6 -3 1 -6 1 -13 0 -17 -3 -9 -7 -24 -9 -34 0 -4 -7 -1 -15 5 -16 14
-17 -3 -2 -29 5 -8 6 -12 1 -8 -4 4 -17 2 -28 -3 -16 -9 -17 -13 -6 -20 11 -7
11 -9 1 -9 -7 0 -10 -5 -6 -12 4 -7 3 -8 -5 -4 -6 4 -14 0 -17 -8 -3 -9 -10
-14 -14 -11 -5 3 -6 -4 -3 -15 4 -15 0 -20 -13 -20 -16 0 -17 -2 -4 -10 10 -6
11 -10 3 -10 -7 0 -13 -7 -13 -16 0 -8 -4 -13 -8 -10 -4 2 -9 -5 -9 -17 -1
-12 -9 -27 -18 -33 -18 -13 -20 -28 -2 -18 6 4 4 -2 -6 -13 -9 -11 -14 -23
-11 -26 4 -4 0 -9 -9 -13 -9 -3 -13 -12 -10 -20 3 -9 0 -14 -8 -12 -10 2 -14
-7 -13 -29 0 -17 -5 -31 -10 -30 -6 1 -11 -8 -10 -20 0 -12 -4 -19 -9 -16 -6
4 -8 -1 -4 -10 4 -11 1 -17 -9 -17 -8 0 -13 -4 -9 -9 3 -5 1 -13 -5 -16 -8 -5
-7 -11 1 -21 10 -12 9 -13 -4 -8 -12 4 -15 1 -12 -15 2 -12 0 -19 -6 -16 -5 4
-9 1 -9 -5 0 -6 -4 -8 -10 -5 -6 3 -7 -1 -3 -10 5 -13 7 -14 14 -3 5 8 9 9 9
2 0 -6 -10 -19 -22 -28 -13 -9 -17 -14 -10 -11 18 9 15 -6 -5 -22 -11 -8 -12
-11 -3 -7 12 6 13 5 4 -7 -6 -8 -11 -24 -12 -36 -1 -18 2 -20 13 -10 7 6 13
14 13 17 0 3 0 12 1 20 1 12 3 13 10 1 7 -11 10 -9 16 9 9 29 36 60 47 54 4
-3 8 0 8 6 0 6 4 8 10 5 6 -3 7 1 4 10 -4 10 -2 15 7 13 9 -2 13 4 11 14 -2
10 2 18 8 18 5 0 10 -5 10 -12 0 -15 15 0 15 15 1 7 6 11 13 10 7 -2 12 4 12
13 0 8 5 12 10 9 6 -3 10 -1 10 6 0 9 3 9 14 0 11 -9 14 -8 12 6 0 11 6 18 19
18 12 0 19 6 17 14 -3 12 -1 12 14 0 10 -8 15 -9 11 -3 -4 7 0 15 9 18 8 3 12
2 9 -4 -3 -6 1 -7 9 -4 9 3 13 11 10 16 -4 6 -1 8 7 6 8 -3 13 -10 12 -16 -2
-7 4 -9 14 -5 11 4 13 8 5 11 -19 6 -14 18 7 18 11 0 17 -5 13 -11 -3 -6 0 -5
9 1 8 6 22 10 32 9 9 -2 17 2 17 8 0 7 5 5 10 -3 8 -12 10 -12 10 -1 0 11 3
11 15 1 13 -11 14 -10 9 3 -6 16 5 17 38 3 9 -4 23 -4 30 0 8 5 8 1 -2 -11
-14 -17 -14 -18 7 -6 13 6 23 9 23 6 0 -3 9 -1 20 5 11 6 20 20 20 31 0 11 4
17 10 14 6 -4 7 1 3 11 -4 11 -3 15 4 11 7 -5 9 0 6 12 -3 12 3 24 18 35 13 9
18 16 11 16 -7 0 -10 5 -7 10 4 6 11 8 16 5 5 -3 6 1 3 10 -4 8 -1 22 6 30 6
8 8 20 4 27 -6 10 -4 10 9 0 14 -12 16 -11 12 7 -2 12 1 21 6 21 6 0 7 5 4 10
-3 6 -1 10 5 10 6 0 8 5 5 10 -3 6 -2 10 4 10 5 0 8 9 6 19 -3 14 1 18 11 14
10 -4 12 0 8 11 -4 9 0 18 9 22 9 3 13 12 11 19 -3 7 5 21 18 30 19 14 19 16
4 11 -19 -7 -19 -6 -2 13 10 11 15 25 11 31 -3 6 -1 9 7 8 7 -2 12 5 12 15 -1
10 5 17 15 17 14 0 14 2 1 10 -8 5 -10 10 -5 10 6 0 19 13 30 28 18 25 18 26
0 12 -17 -14 -17 -14 -5 7 8 12 17 20 21 17 9 -5 19 21 19 47 0 11 4 18 9 15
12 -8 23 23 14 37 -4 7 0 7 9 -1 13 -10 18 -10 24 -1 4 8 3 9 -4 5 -7 -4 -12
-3 -12 2 0 6 7 12 15 16 8 3 15 2 15 -3 0 -8 18 -11 64 -11 23 0 27 -3 22 -17
-6 -17 -5 -17 8 0 10 13 15 14 18 6 2 -7 22 -14 44 -15 21 -1 39 -3 39 -4 0
-1 8 -3 18 -5 10 -2 14 1 11 7 -4 6 -1 8 7 6 8 -3 13 -12 11 -19 -2 -8 5 -6
19 6 12 11 19 14 15 7 -6 -10 -1 -11 17 -7 16 4 30 1 41 -10 15 -15 16 -15 17
2 0 10 3 13 5 7 3 -6 16 -9 31 -6 19 4 24 2 18 -8 -5 -9 -4 -11 4 -6 6 4 8 13
4 19 -4 7 2 5 12 -3 17 -14 18 -13 11 4 -7 20 -7 20 15 0 12 -10 19 -13 15 -6
-5 8 0 11 16 8 13 -2 29 2 37 8 11 8 15 8 19 -2 3 -10 7 -10 20 0 13 11 14 11
7 -2 -7 -13 -6 -13 7 -2 9 7 20 12 24 10 5 -1 19 3 30 10 12 6 24 9 27 5 4 -3
15 0 24 8 16 13 17 12 4 -4 -13 -16 -12 -17 11 -8 14 5 29 7 32 4 3 -4 6 -2 6
4 0 6 11 9 25 8 15 -2 23 1 19 7 -5 7 4 9 25 6 21 -3 36 1 47 13 8 9 23 15 35
12 11 -3 19 0 19 8 0 7 3 9 7 6 3 -4 13 -1 21 6 13 9 14 9 8 0 -4 -7 -2 -13 3
-13 6 0 11 8 11 18 0 13 2 14 9 3 7 -11 11 -10 19 5 11 19 46 30 36 11 -3 -7
1 -4 9 6 16 20 31 23 22 5 -4 -7 3 -2 15 12 12 14 19 19 15 12 -11 -21 12 -13
29 10 9 13 14 17 11 11 -3 -7 -1 -13 4 -13 6 0 11 5 11 11 0 5 5 7 10 4 6 -3
22 3 36 14 15 12 33 21 41 21 8 0 12 3 9 8 -2 4 7 12 20 19 18 8 23 8 18 0 -3
-7 4 -1 17 13 13 14 20 20 15 13 -12 -18 -3 -16 22 6 12 10 19 21 15 24 -3 4
4 5 15 2 16 -3 26 4 38 25 11 18 24 27 36 25 11 -2 18 2 18 11 0 8 7 14 15 14
8 0 15 5 15 11 0 5 4 8 9 5 5 -3 11 4 14 15 4 15 11 20 21 16 10 -4 16 -1 16
9 0 8 4 13 9 10 5 -3 21 6 35 19 15 14 32 23 37 20 5 -4 6 2 2 12 -3 10 -3 15
2 11 4 -4 19 4 32 18 12 14 27 23 32 19 5 -3 13 0 17 6 5 8 3 9 -6 4 -8 -5
-11 -3 -8 6 3 8 10 14 16 14 6 0 25 14 41 32 16 17 32 29 36 25 4 -4 5 0 3 8
-2 9 4 15 13 14 12 -1 15 4 11 19 -3 13 -1 18 6 13 13 -8 44 33 35 47 -4 6 0
8 10 4 11 -4 17 -1 17 8 0 8 6 14 13 13 7 -2 11 5 9 16 -2 10 1 15 6 12 6 -3
12 1 16 9 3 8 0 17 -6 21 -7 5 -8 2 -3 -6 6 -9 4 -11 -4 -5 -7 4 -11 15 -8 25
3 12 -1 17 -12 16 -8 -2 -22 3 -29 11 -8 7 -22 11 -31 8 -11 -3 -26 4 -40 19
-14 15 -29 22 -39 19 -10 -4 -13 -2 -8 5 4 7 -1 10 -14 7 -13 -3 -20 1 -20 12
0 13 -3 13 -17 2 -10 -7 -15 -10 -11 -5 8 10 -15 36 -32 36 -6 0 -8 5 -4 12 4
6 3 8 -4 4 -6 -3 -17 0 -25 8 -8 8 -17 12 -21 9 -3 -4 -6 1 -6 10 0 9 -6 16
-12 14 -7 -1 -12 3 -11 10 1 6 -11 17 -27 25 -17 7 -30 17 -30 21 0 5 -4 5
-10 2 -6 -3 -7 1 -4 9 4 11 0 16 -11 16 -9 0 -13 4 -10 10 3 5 -1 10 -9 10 -8
0 -18 4 -21 10 -3 6 2 8 12 5 10 -3 8 0 -4 6 -13 7 -23 16 -23 21 0 5 10 6 23
2 12 -4 27 -7 34 -7 6 0 9 -6 6 -13 -3 -9 2 -11 16 -7 12 3 21 1 21 -5 0 -6
10 -12 23 -14 12 -2 21 -9 20 -15 -2 -7 6 -10 17 -8 11 2 20 0 20 -6 0 -5 9
-9 20 -9 11 0 20 -4 20 -8 0 -4 10 -8 22 -9 11 -1 25 -8 29 -15 4 -7 11 -9 15
-5 4 4 13 -2 21 -12 9 -14 21 -18 39 -15 16 3 23 1 19 -6 -3 -5 1 -10 10 -10
9 0 14 -4 11 -8 -2 -4 5 -9 17 -9 17 -2 19 0 7 7 -8 5 -10 10 -4 10 6 0 17 -7
24 -15 7 -8 16 -12 21 -9 5 3 9 1 9 -5 0 -5 8 -8 18 -6 9 1 26 -3 37 -9 19
-11 26 -12 53 -15 7 0 11 -4 9 -8 -3 -5 6 -9 19 -9 24 -2 24 -1 7 13 -12 10
-9 10 10 -2 16 -9 31 -14 34 -11 4 3 12 1 20 -5 8 -7 13 -8 13 -1 0 6 17 8 40
6 21 -2 42 1 45 7 5 7 11 6 21 -2 8 -6 22 -9 33 -6 10 2 25 0 34 -5 13 -7 15
-5 10 8 -4 12 -3 15 5 10 7 -4 12 -2 12 6 0 9 3 9 10 -2 6 -9 10 -10 10 -3 0
6 9 10 20 8 11 -2 20 2 20 8 0 7 4 6 10 -3 8 -13 10 -12 10 2 0 13 6 17 22 14
13 -1 29 4 36 13 11 14 11 14 6 -4 -6 -18 -5 -18 15 3 12 12 26 20 31 17 4 -3
11 2 14 10 3 8 9 15 13 14 23 -4 43 2 38 11 -6 9 8 15 29 11 5 -1 6 5 3 13 -4
10 0 14 14 11 11 -2 17 0 14 6 -4 5 -1 9 5 9 6 0 8 5 5 10 -3 6 4 10 15 10 15
0 20 5 17 14 -4 10 0 14 12 11 12 -2 18 2 17 13 0 9 4 16 11 15 7 -2 10 3 7
11 -3 8 5 21 18 30 12 9 18 16 13 16 -5 0 -1 6 10 13 11 9 15 19 10 27 -5 8
-4 11 3 6 6 -3 14 3 17 15 4 12 12 18 20 15 9 -3 12 0 8 10 -3 8 4 25 16 38
12 12 18 26 14 30 -4 4 1 4 12 0 14 -6 17 -4 12 9 -3 9 -1 19 5 23 7 5 8 2 3
-6 -6 -9 -4 -11 4 -6 7 5 10 14 7 21 -3 9 2 12 15 10 11 -2 17 0 14 6 -4 5 1
19 9 31 9 12 16 18 16 13 0 -5 7 1 16 13 8 12 20 20 25 17 5 -4 14 6 19 20 5
14 14 24 19 20 5 -3 13 0 17 6 5 8 3 9 -7 4 -8 -5 -5 1 5 13 11 12 26 22 34
22 9 0 13 3 9 6 -9 9 21 36 32 29 5 -3 13 0 17 6 5 8 3 9 -7 4 -8 -4 -5 1 6
12 11 11 21 16 23 12 2 -5 9 -3 17 4 7 7 11 15 9 19 -2 4 1 10 7 14 8 5 9 3 4
-6 -5 -8 -3 -11 6 -8 8 3 13 11 11 17 -1 7 2 10 8 6 5 -3 10 0 10 7 0 10 2 10
9 -1 7 -10 12 -8 25 10 18 26 22 64 6 54 -5 -3 -10 -1 -10 5 0 6 -4 8 -10 5
-5 -3 -10 2 -10 12 0 15 -2 16 -10 3 -6 -10 -10 -11 -10 -2 0 6 -9 12 -20 12
-11 0 -20 4 -20 8 0 11 -60 45 -68 38 -3 -4 -12 4 -20 16 -10 17 -12 18 -7 4
6 -19 5 -19 -13 -3 -10 9 -22 14 -25 10 -4 -3 -7 -1 -7 6 0 8 -6 11 -16 7 -10
-4 -13 -2 -8 6 5 8 0 9 -15 5 -19 -5 -20 -3 -9 11 8 9 8 13 1 9 -6 -4 -14 -1
-16 5 -4 10 -6 10 -6 0 -1 -10 -6 -10 -23 -1 -13 7 -25 13 -28 13 -3 1 -4 4
-3 7 1 4 -6 5 -16 2 -10 -3 -22 0 -25 6 -4 5 -14 8 -24 5 -13 -5 -14 -4 -3 4
7 5 10 15 7 21 -10 16 0 13 18 -5 12 -12 16 -12 16 -2 0 10 2 10 9 -1 8 -12
12 -12 25 -2 19 16 20 8 5 -22 -9 -19 -8 -19 9 2 19 23 20 23 25 5 5 -19 5
-19 6 0 1 20 1 20 16 0 10 -13 14 -14 15 -5 0 11 3 11 17 0 9 -8 18 -13 20
-11 8 6 24 1 19 -7 -3 -4 7 -7 22 -5 14 1 33 -3 41 -9 12 -10 13 -9 7 3 -4 8
0 6 8 -4 15 -18 20 -15 17 9 -1 6 8 -1 19 -14 12 -14 20 -18 20 -10 0 12 2 12
9 0 5 -7 13 -11 19 -7 6 3 12 1 14 -5 2 -5 18 -11 36 -11 22 -1 32 -6 33 -17
0 -12 3 -11 9 4 l9 20 1 -20 c1 -19 1 -19 14 -2 11 14 15 15 19 5 4 -8 6 -7 6
5 1 9 7 17 14 17 20 0 50 37 42 50 -6 9 -2 9 15 0 12 -7 20 -8 17 -3 -3 5 10
22 28 38 19 15 32 32 29 36 -3 5 3 6 12 2 13 -5 15 -3 9 7 -6 10 -3 12 13 8
12 -3 21 -3 20 1 -2 19 3 31 12 26 6 -3 10 1 10 9 0 10 6 13 17 9 11 -4 14 -3
9 5 -4 7 -2 12 4 12 6 0 8 4 5 10 -3 6 1 7 9 4 9 -4 16 -1 16 6 0 7 7 10 16 6
15 -6 15 -4 3 11 -7 10 -10 15 -5 11 13 -11 48 11 40 24 -5 7 -2 8 6 3 8 -5
18 -1 27 10 7 11 13 15 13 9 0 -5 10 2 21 16 11 14 18 18 14 10 -4 -8 5 -3 18
12 14 15 28 24 31 21 3 -3 15 5 27 18 11 13 17 18 13 10 -5 -9 -3 -12 4 -7 7
4 12 14 12 22 0 12 4 13 23 3 20 -11 21 -11 8 5 -8 9 -10 16 -5 15 16 -4 44
13 38 23 -4 6 2 8 15 3 16 -5 20 -3 15 10 -4 9 -3 15 2 14 29 -5 46 2 40 17
-6 15 -4 15 11 3 9 -8 14 -9 10 -3 -4 7 1 18 10 25 14 12 15 12 9 1 -7 -11 -4
-12 12 -3 12 6 26 19 31 29 5 9 18 17 28 17 10 0 17 6 15 13 -1 8 2 11 8 7 6
-4 19 4 30 17 11 13 19 18 20 11 0 -6 -5 -13 -12 -15 -9 -3 -9 -6 0 -12 7 -4
14 3 18 19 3 14 10 25 16 25 5 0 6 -6 3 -12 -4 -7 0 -5 9 6 8 10 20 15 26 11
6 -4 9 -1 8 7 -2 7 5 12 14 12 10 -1 16 3 15 10 -1 6 6 11 15 11 9 0 20 4 25
9 5 5 2 6 -6 1 -9 -5 -12 -4 -7 3 4 7 15 12 25 12 10 0 26 10 35 23 9 12 14
15 10 7 -7 -12 -5 -13 8 -3 8 7 19 9 23 5 5 -4 5 -2 1 5 -7 13 31 39 51 35 6
-1 15 3 19 9 5 8 2 10 -7 5 -8 -4 -5 0 6 8 11 9 25 14 32 12 17 -7 17 11 1 18
-7 3 0 3 16 1 16 -2 26 -2 23 2 -6 6 17 33 28 33 3 0 3 -6 0 -12 -4 -7 0 -5 9
6 8 10 20 15 27 10 8 -4 10 -3 5 4 -4 7 -2 12 4 12 6 0 8 5 4 13 -5 8 -2 7 9
-2 15 -12 17 -12 11 4 -5 13 -4 16 4 11 7 -4 12 -3 12 3 0 5 -9 13 -20 16 -11
3 -20 11 -20 16 0 6 -4 7 -10 4 -5 -3 -10 -1 -10 5 0 6 -4 8 -10 5 -5 -3 -10
1 -10 11 0 12 -3 14 -13 6 -9 -8 -16 -6 -25 8 -8 14 -21 18 -47 16 -30 -2 -33
0 -23 13 7 9 9 13 4 9 -5 -4 -18 -3 -29 3 -12 7 -17 7 -13 1 4 -6 -2 -8 -14
-5 -15 4 -18 9 -10 17 7 9 2 11 -22 8 -23 -4 -29 -2 -23 8 6 10 4 11 -6 4 -24
-14 -37 -13 -55 7 -13 14 -21 16 -36 8 -18 -10 -19 -8 -13 13 3 13 3 18 -2 12
-9 -14 -70 -9 -89 7 -8 6 -23 9 -35 6 -17 -5 -18 -3 -7 10 12 14 11 15 -9 5
-16 -9 -23 -9 -26 1 -4 9 -6 9 -6 0 -1 -19 -21 -16 -21 3 0 13 -3 14 -14 5
-10 -8 -16 -9 -21 -1 -4 6 -3 10 2 9 4 -1 13 0 18 1 27 6 51 4 57 -5 5 -6 8
-5 8 3 0 10 5 10 23 1 21 -12 21 -11 7 6 -14 17 -14 17 7 7 12 -7 35 -10 52
-8 17 2 34 0 36 -5 3 -4 19 -4 36 1 26 8 29 7 19 -5 -10 -12 -7 -13 20 -5 27
8 31 7 25 -7 -5 -14 -2 -13 15 2 15 13 20 15 18 5 -2 -10 8 -13 40 -13 37 1
43 -1 38 -15 -5 -15 -4 -15 8 1 15 20 27 22 23 5 -1 -8 8 -12 26 -11 18 1 25
-2 21 -9 -5 -8 -1 -9 11 -4 10 4 28 0 41 -9 14 -9 24 -11 24 -5 0 7 6 6 14 -2
8 -7 11 -17 8 -22 -3 -5 0 -6 6 -2 6 4 9 14 5 24 -3 11 0 9 11 -5 10 -13 24
-23 32 -23 8 0 14 -5 14 -11 0 -5 4 -8 9 -5 15 9 42 -5 34 -18 -4 -6 2 -4 12
4 10 8 16 10 12 4 -9 -16 28 -25 44 -10 7 7 10 7 6 0 -3 -6 0 -11 8 -11 8 0
12 4 10 8 -7 11 21 60 30 51 5 -4 5 -2 1 5 -4 7 2 21 14 33 22 22 27 35 8 24
-10 -6 -10 -5 -1 8 7 8 9 19 5 24 -4 4 2 2 12 -6 14 -10 17 -11 12 -2 -4 7 -2
20 6 29 11 14 11 16 -2 8 -13 -8 -13 -6 -2 8 8 9 11 21 7 26 -4 7 0 8 11 4 12
-4 15 -2 12 8 -3 8 2 20 11 27 13 11 13 12 1 7 -11 -5 -11 -3 2 7 12 10 13 19
7 31 -9 16 -3 21 21 19 3 0 6 8 6 18 0 10 -5 16 -11 14 -5 -3 -1 2 9 10 15 12
16 16 5 16 -11 1 -11 3 2 13 9 7 15 20 13 30 -1 9 3 17 9 17 7 0 5 5 -3 10
-13 8 -13 10 2 10 9 0 20 5 24 12 5 8 2 9 -11 4 -18 -7 -18 -6 -1 13 11 12 16
29 13 41 -3 11 0 23 5 27 7 4 8 1 3 -7 -6 -9 -4 -11 4 -5 7 4 11 18 8 31 -2
13 0 24 4 24 5 0 5 8 2 17 -5 12 -2 15 9 11 13 -5 15 0 11 29 -4 28 -2 34 9
27 11 -6 11 -5 0 8 -9 11 -10 18 -2 23 5 3 10 15 10 25 0 10 6 21 13 23 9 4 8
6 -2 6 -11 1 -11 4 0 18 12 15 12 16 -1 8 -12 -6 -13 -5 -2 6 17 19 15 24 -14
37 -19 9 -24 9 -18 0 4 -6 -3 -4 -15 4 -12 9 -31 14 -42 11 -11 -3 -19 0 -19
6 0 7 -5 9 -12 5 -19 -12 -48 -12 -41 -1 4 6 -5 8 -21 5 -14 -3 -26 -1 -26 4
0 5 -5 6 -12 2 -8 -5 -9 -2 -5 10 5 12 3 15 -5 9 -18 -11 -48 -11 -55 0 -3 5
-9 3 -14 -4 -7 -11 -9 -10 -9 4 0 9 -5 17 -11 17 -5 0 -7 -4 -4 -10 3 -5 1
-10 -4 -10 -6 0 -11 5 -11 11 0 6 -6 9 -14 6 -8 -3 -17 -1 -20 6 -3 8 -5 7 -5
-2 -1 -11 -6 -10 -23 5 -12 10 -18 13 -13 5 6 -10 2 -12 -15 -6 -17 6 -21 4
-14 -6 6 -12 5 -12 -9 0 -9 7 -17 11 -17 7 0 -4 -11 1 -25 10 -13 8 -29 13
-34 10 -5 -4 -13 -2 -16 4 -5 8 -11 7 -21 -1 -9 -7 -14 -8 -14 -1 0 6 -11 9
-25 7 -15 -1 -29 4 -35 14 -7 12 -9 12 -10 2 0 -11 -3 -11 -16 0 -13 10 -17
10 -24 0 -5 -9 -9 -9 -11 -2 -2 5 -19 11 -36 13 -18 1 -33 5 -33 9 0 3 -17 5
-37 5 -21 -1 -46 4 -55 12 -18 15 -42 7 -32 -10 4 -7 2 -8 -5 -4 -6 4 -8 12
-5 18 5 7 -2 9 -20 6 -14 -3 -26 -2 -26 2 0 3 -15 5 -32 3 -25 -3 -30 -2 -18
6 18 13 1 14 -20 1 -9 -5 -19 -5 -26 1 -6 5 -37 10 -68 12 -31 1 -56 5 -56 8
0 4 -7 9 -14 12 -11 4 -13 1 -10 -11 5 -15 4 -15 -8 -2 -7 8 -24 15 -38 15
-14 0 -28 5 -32 10 -5 6 -8 4 -8 -5 0 -13 -1 -13 -10 0 -9 13 -10 13 -10 0 0
-13 -1 -13 -10 0 -7 12 -12 12 -21 3 -10 -10 -17 -9 -33 5 -11 9 -17 12 -13 6
7 -12 -29 -12 -40 1 -5 4 -3 5 4 1 6 -3 14 -2 18 3 6 10 -27 7 -45 -4 -6 -3
-10 -1 -10 5 0 6 -5 8 -12 3 -20 -12 -39 -13 -32 -1 4 6 -5 9 -22 7 -16 -2
-35 1 -43 5 -9 6 -12 5 -8 -1 4 -7 -8 -7 -36 -2 -57 11 -59 11 -51 -3 6 -10 5
-10 -8 -1 -8 7 -18 10 -21 6 -4 -3 -13 0 -21 6 -11 9 -16 9 -22 0z m-1251
-354 c-3 -9 -8 -14 -10 -11 -3 3 -2 9 2 15 9 16 15 13 8 -4z m-185 -99 c-7 -8
-15 -12 -17 -11 -5 6 10 25 20 25 5 0 4 -6 -3 -14z m-405 -241 c-3 -9 -8 -14
-10 -11 -3 3 -2 9 2 15 9 16 15 13 8 -4z m99 -407 c-7 -7 -12 -8 -12 -2 0 6 3
14 7 17 3 4 9 5 12 2 2 -3 -1 -11 -7 -17z m2892 -6 c3 -5 -1 -9 -9 -9 -8 0
-12 4 -9 9 3 4 7 8 9 8 2 0 6 -4 9 -8z m-2960 -251 c3 -5 -2 -15 -12 -22 -15
-13 -16 -12 -4 3 10 13 10 17 0 21 -9 4 -9 6 -1 6 6 1 14 -3 17 -8z m-1 -46
c-3 -9 -8 -14 -10 -11 -3 3 -2 9 2 15 9 16 15 13 8 -4z m1168 -588 c-13 -13
-26 -3 -16 12 3 6 11 8 17 5 6 -4 6 -10 -1 -17z m50 14 c7 11 9 10 9 -4 0 -11
4 -15 12 -11 7 4 8 3 4 -4 -5 -8 -13 -8 -31 0 -13 6 -21 16 -18 21 4 7 8 6 11
-2 4 -11 6 -11 13 0z m-2032 -102 c-16 -10 -23 -4 -14 10 3 6 11 8 17 5 6 -4
5 -9 -3 -15z m1001 -855 c0 -8 -19 -13 -24 -6 -3 5 1 9 9 9 8 0 15 -2 15 -3z
m-1990 -704 c0 -5 -2 -10 -4 -10 -3 0 -8 5 -11 10 -3 6 -1 10 4 10 6 0 11 -4
11 -10z m1391 -133 c-10 -9 -11 -8 -5 6 3 10 9 15 12 12 3 -3 0 -11 -7 -18z"/>
<path d="M5686 4917 c3 -10 9 -15 12 -12 3 3 0 11 -7 18 -10 9 -11 8 -5 -6z"/>
<path d="M2000 1990 c-12 -7 -10 -9 7 -7 12 0 19 5 17 9 -6 10 -6 10 -24 -2z"/>
</g>
</svg>
